<svg width="209" height="56" viewBox="0 0 209 56" fill="none" xmlns="http://www.w3.org/2000/svg">
<g clip-path="url(#clip0_469_1058)">
<path d="M121.62 15.4655L133.641 10.9895L121.62 6.38558V0.119141L142.21 8.43176V13.5472L121.62 21.8598V15.4655Z" fill="#A100FF"/>
<path d="M7.92896 55.1133C3.58082 55.1133 0 52.9392 0 48.0795V47.8237C0 41.941 5.11546 39.8948 11.3819 39.8948H14.3233V38.7438C14.3233 36.314 13.3002 34.9072 10.7425 34.9072C8.44051 34.9072 7.28953 36.1861 7.16164 37.9765H0.767319C1.27886 32.6052 5.49912 30.0475 11.1261 30.0475C16.881 30.0475 21.1013 32.4774 21.1013 38.488V54.6017H14.5791V51.7882C13.3002 53.5786 11.1261 55.1133 7.92896 55.1133ZM14.3233 46.6728V44.3708H11.6377C8.31262 44.3708 6.6501 45.266 6.6501 47.4401V47.6959C6.6501 49.3584 7.67319 50.5094 9.97515 50.5094C12.2771 50.3815 14.3233 49.1026 14.3233 46.6728ZM36.3198 55.1133C29.6697 55.1133 24.81 51.0209 24.81 42.8362V42.4525C24.81 34.2678 29.9254 29.9196 36.3198 29.9196C41.8189 29.9196 46.2949 32.7331 46.8065 38.9996H40.4121C40.0285 36.6976 38.7496 35.163 36.4477 35.163C33.6341 35.163 31.588 37.4649 31.588 42.1967V42.9641C31.588 47.8237 33.3784 49.9978 36.4477 49.9978C38.7496 49.9978 40.4121 48.3353 40.7958 45.6497H46.9343C46.5507 51.2767 42.842 55.1133 36.3198 55.1133ZM61.3855 55.1133C54.7354 55.1133 49.8757 51.0209 49.8757 42.8362V42.4525C49.8757 34.2678 54.9912 29.9196 61.3855 29.9196C66.8846 29.9196 71.3607 32.7331 71.8722 38.9996H65.4779C65.0942 36.6976 63.8154 35.163 61.5134 35.163C58.6999 35.163 56.6537 37.4649 56.6537 42.1967V42.9641C56.6537 47.8237 58.4441 49.9978 61.5134 49.9978C63.8154 49.9978 65.4779 48.3353 65.8615 45.6497H72.0001C71.6164 51.2767 67.9077 55.1133 61.3855 55.1133ZM86.5792 55.1133C79.6733 55.1133 74.9415 51.0209 74.9415 42.9641V42.4525C74.9415 34.3957 79.9291 29.9196 86.4513 29.9196C92.4619 29.9196 97.4495 33.2447 97.4495 41.3015V44.2429H81.7195C81.9753 48.5911 83.8935 50.2536 86.707 50.2536C89.2648 50.2536 90.6715 48.8468 91.1831 47.1843H97.4495C96.6822 51.6603 92.8456 55.1133 86.5792 55.1133ZM81.8474 39.7669H90.7994C90.6715 36.1861 89.009 34.6514 86.3234 34.6514C84.2772 34.7793 82.3589 35.9303 81.8474 39.7669ZM101.542 30.5591H108.32V34.1399C109.471 31.8379 111.901 30.0475 115.609 30.0475C119.958 30.0475 122.899 32.7331 122.899 38.488V54.6017H116.121V39.5111C116.121 36.6976 114.97 35.4188 112.54 35.4188C110.238 35.4188 108.32 36.8255 108.32 39.8948V54.6017H101.542V30.5591ZM135.304 23.2695V30.5591H139.908V35.5466H135.304V46.9285C135.304 48.7189 136.071 49.6142 137.734 49.6142C138.757 49.6142 139.396 49.4863 140.036 49.2305V54.4738C139.268 54.7296 137.862 54.9854 136.199 54.9854C130.956 54.9854 128.526 52.5555 128.526 47.6959V35.5466H125.712V30.5591H128.526V26.083L135.304 23.2695ZM165.229 54.6017H158.579V51.0209C157.428 53.3229 155.126 55.1133 151.546 55.1133C147.197 55.1133 144 52.4277 144 46.8007V30.5591H150.778V45.9054C150.778 48.7189 151.929 49.9978 154.231 49.9978C156.533 49.9978 158.451 48.4632 158.451 45.5218V30.5591H165.229V54.6017ZM170.217 30.5591H176.995V35.0351C178.402 31.8379 180.704 30.3033 184.284 30.3033V36.9534C179.681 36.9534 176.995 38.3601 176.995 42.3246V54.7296H170.217V30.5591ZM197.968 55.1133C191.062 55.1133 186.331 51.0209 186.331 42.9641V42.4525C186.331 34.3957 191.318 29.9196 197.84 29.9196C203.851 29.9196 208.839 33.2447 208.839 41.3015V44.2429H193.237C193.492 48.5911 195.411 50.2536 198.224 50.2536C200.782 50.2536 202.189 48.8468 202.7 47.1843H208.967C207.943 51.6603 204.235 55.1133 197.968 55.1133ZM193.109 39.7669H202.189C202.061 36.1861 200.398 34.6514 197.713 34.6514C195.666 34.7793 193.748 35.9303 193.109 39.7669Z" fill="black"/>
</g>
<defs>
<clipPath id="clip0_469_1058">
<rect width="208.967" height="55" fill="white" transform="translate(0 0.117188)"/>
</clipPath>
</defs>
</svg>
