<svg width="115" height="48" viewBox="0 0 115 48" fill="none" xmlns="http://www.w3.org/2000/svg">
<path fill-rule="evenodd" clip-rule="evenodd" d="M0 45.0224L0.085533 0.117188H1.44694L3.32869 3.33183V16.2688C12.324 7.12382 22.5738 13.66 26.4014 18.5426C30.229 23.4251 29.5875 37.2531 23.8425 42.7059C18.0975 48.1586 8.70306 48.7574 0.00712661 45.0224H0ZM22.8731 38.0585C19.1809 43.5612 12.3382 45.2505 3.54965 42.4992V20.0323C12.9726 9.66845 22.5666 16.1548 24.484 21.8071C26.4014 27.4595 26.5725 32.5559 22.8731 38.0585Z" fill="black"/>
<path fill-rule="evenodd" clip-rule="evenodd" d="M45.4185 11.6738C53.922 11.6738 60.8146 19.6641 60.8146 29.4934C60.8146 39.3226 53.922 47.3129 45.4185 47.3129C36.9151 47.3129 30.0225 39.3226 30.0225 29.4934C30.0225 19.6641 36.9151 11.6738 45.4185 11.6738ZM45.4185 15.1094C52.1187 15.1094 57.5358 21.5601 57.5358 29.5147C57.5358 37.4694 52.1044 43.9272 45.4185 43.9272C38.7327 43.9272 33.3013 37.5121 33.3013 29.5147C33.3013 21.5173 38.7327 15.1094 45.4185 15.1094Z" fill="black"/>
<path fill-rule="evenodd" clip-rule="evenodd" d="M68.94 47.2728H57.229L71.2352 11.8262H81.4065L95.4127 46.9306H84.2078L87.7717 40.7936H65.3405L68.9044 47.2657L68.94 47.2728ZM69.7882 40.3802L76.4171 21.2206L81.8413 35.7043L69.7882 40.3802Z" fill="#ED1C24"/>
<path fill-rule="evenodd" clip-rule="evenodd" d="M97.6509 3.40557C97.6509 6.19967 97.6509 8.90111 97.6509 11.5954H89.9386L86.895 14.639H97.4157V39.2585C97.9645 44.0412 100.089 46.3863 104.123 46.9565C108.157 47.5267 111.008 47.7477 115 45.7091V41.9884C112.527 43.4567 109.462 44.1268 105.734 43.7989C102.883 43.5138 101.607 41.5964 101.607 38.3033V14.7031H113.097V11.852H101.892V0.226562H100.73C99.6324 1.31712 98.7414 2.21522 97.6509 3.40557Z" fill="black"/>
</svg>
