<svg width="11" height="8" viewBox="0 0 11 8" fill="none" xmlns="http://www.w3.org/2000/svg">
<path d="M3.80932 6.42011L9.25351 0.975918C9.38199 0.847441 9.53188 0.783203 9.70318 0.783203C9.87448 0.783203 10.0244 0.847441 10.1528 0.975918C10.2813 1.10439 10.3456 1.25707 10.3456 1.43394C10.3456 1.61081 10.2813 1.76326 10.1528 1.89131L4.25899 7.80123C4.13052 7.92971 3.98063 7.99395 3.80932 7.99395C3.63802 7.99395 3.48813 7.92971 3.35966 7.80123L0.597412 5.03899C0.468936 4.91051 0.407267 4.75805 0.412406 4.58161C0.417545 4.40517 0.484567 4.2525 0.613471 4.12359C0.742376 3.99469 0.895049 3.93045 1.07149 3.93088C1.24793 3.93131 1.40039 3.99554 1.52887 4.12359L3.80932 6.42011Z" fill="#027A48"/>
</svg>
