<svg width="123" height="49" viewBox="0 0 123 49" fill="none" xmlns="http://www.w3.org/2000/svg">
<path d="M0.5 0.117188V3.45954H24.2725V0.117188H0.5ZM27.6406 0.117188V3.45954H61.5176C61.5176 3.45954 58.0572 0.117188 53.4742 0.117188H27.6406ZM68.1632 0.117188V3.45954H88.6582L87.4417 0.117188H68.1632ZM103.352 0.117188L102.136 3.45954H122.444V0.117188H103.352ZM0.5 6.61722V9.95957H24.2725V6.61722H0.5ZM27.6406 6.62199V9.95969H65.4486C65.4486 9.95969 65.0071 7.38726 64.2368 6.62199H27.6406ZM68.1632 6.62199V9.95969H90.9052L89.7793 6.62199H68.1632ZM100.919 6.62199L99.7931 9.95969H122.444V6.62199H100.919ZM7.33162 13.1173V16.4644H17.6269V13.1173H7.33162ZM34.4723 13.1173V16.4644H44.7676V13.1173H34.4723ZM54.7813 13.1173V16.4644H65.0766C65.0766 16.4644 65.7302 14.6968 65.7302 13.1173H54.7813ZM74.9949 13.1173V16.4644H93.2477L92.0312 13.1173H74.9949ZM98.6768 13.1173L97.4555 16.4644H115.799V13.1173H98.6768ZM7.33162 19.6222V22.9645H17.6269V19.6222H7.33162ZM34.4723 19.6222V22.9645H60.7685C60.7685 22.9645 62.9683 21.2496 63.6691 19.6222H34.4723ZM74.9949 19.6222V22.9645H85.2902V21.104L85.9438 22.9645H104.802L105.504 21.104V22.9645H115.799V19.6222H96.4727L95.447 22.4532L94.4165 19.6222H74.9949ZM7.33162 26.1222V29.4646H17.6269V26.1222H7.33162ZM34.4723 26.1222V29.4646H63.6691C62.9682 27.8425 60.7685 26.1222 60.7685 26.1222H34.4723ZM74.9949 26.1222V29.4646H85.2902V26.1222H74.9949ZM87.1602 26.1222L88.4053 29.4646H102.546L103.729 26.1222H87.1602ZM105.504 26.1222V29.4646H115.799V26.1222H105.504ZM7.33162 32.6222V35.9645H17.6269V32.6222H7.33162ZM34.4723 32.6222V35.9645H44.7676V32.6222H34.4723ZM54.7813 32.6222V35.9645H65.7301C65.7301 34.3872 65.0764 32.6222 65.0764 32.6222H54.7813ZM74.9949 32.6222V35.9645H85.2902V32.6222H74.9949ZM89.4979 32.6222L90.7049 35.9645H100.184L101.401 32.6222H89.4979ZM105.504 32.6222V35.9645H115.799V32.6222H105.504ZM0.686005 39.1223V42.4694H24.4585V39.1223H0.686005ZM27.6406 39.1223V42.4694H64.2368C65.0071 41.703 65.4486 39.1223 65.4486 39.1223H27.6406ZM68.3493 39.1223V42.4694H85.2902V39.1223H68.3493ZM91.8403 39.1223L93.0806 42.4694H97.9038L99.0678 39.1223H91.8403ZM105.504 39.1223V42.4694H122.631V39.1223H105.504ZM0.686005 45.6271V48.9694H24.4585V45.6271H0.686005ZM27.6406 45.6271V48.9647H53.4742C58.0572 48.9647 61.5176 45.6271 61.5176 45.6271H27.6406ZM68.3493 45.6271V48.9694H85.2902V45.6271H68.3493ZM94.1923 45.6271L95.385 48.96L95.5902 48.9647L96.8019 45.6271H94.1923ZM105.504 45.6271V48.9694H122.631V45.6271H105.504Z" fill="#1F70C1"/>
</svg>
