<svg width="37" height="37" viewBox="0 0 37 37" fill="none" xmlns="http://www.w3.org/2000/svg">
<path d="M18.8329 12.3705C15.5288 12.3705 12.8323 15.067 12.8323 18.3711C12.8323 21.6753 15.5288 24.3717 18.8329 24.3717C22.1371 24.3717 24.8336 21.6753 24.8336 18.3711C24.8336 15.067 22.1371 12.3705 18.8329 12.3705ZM36.8303 18.3711C36.8303 15.8863 36.8528 13.4239 36.7132 10.9435C36.5737 8.0625 35.9165 5.5056 33.8097 3.39886C31.6985 1.28761 29.1461 0.634882 26.2651 0.495333C23.7802 0.355784 21.3178 0.378292 18.8374 0.378292C16.3526 0.378292 13.8902 0.355784 11.4098 0.495333C8.52881 0.634882 5.97191 1.29211 3.86517 3.39886C1.75392 5.5101 1.10119 8.0625 0.961642 10.9435C0.822093 13.4284 0.844601 15.8908 0.844601 18.3711C0.844601 20.8515 0.822093 23.3184 0.961642 25.7987C1.10119 28.6798 1.75842 31.2367 3.86517 33.3434C5.97641 35.4547 8.52881 36.1074 11.4098 36.2469C13.8947 36.3865 16.3571 36.364 18.8374 36.364C21.3223 36.364 23.7847 36.3865 26.2651 36.2469C29.1461 36.1074 31.703 35.4501 33.8097 33.3434C35.921 31.2322 36.5737 28.6798 36.7132 25.7987C36.8573 23.3184 36.8303 20.856 36.8303 18.3711ZM18.8329 27.6039C13.7236 27.6039 9.60019 23.4804 9.60019 18.3711C9.60019 13.2618 13.7236 9.13838 18.8329 9.13838C23.9422 9.13838 28.0657 13.2618 28.0657 18.3711C28.0657 23.4804 23.9422 27.6039 18.8329 27.6039ZM28.4438 10.9165C27.2509 10.9165 26.2876 9.95317 26.2876 8.76025C26.2876 7.56733 27.2509 6.60399 28.4438 6.60399C29.6367 6.60399 30.6001 7.56733 30.6001 8.76025C30.6004 9.04351 30.5449 9.32406 30.4367 9.58583C30.3284 9.8476 30.1696 10.0854 29.9693 10.2857C29.769 10.486 29.5312 10.6449 29.2694 10.7531C29.0076 10.8613 28.7271 10.9169 28.4438 10.9165Z" fill="#FFF6C3"/>
</svg>
