<svg width="293" height="113" viewBox="0 0 293 113" fill="none" xmlns="http://www.w3.org/2000/svg">
<path d="M82.1436 73.8506L82.2905 74H82.5H101H102.197L101.356 73.1486L66.5117 37.8802L90.4467 12.4492L91.7689 11.0444L89.9308 11.6302L62.3299 20.4264L62.2089 20.465L62.1209 20.5567L0.639161 84.6539L1.25534 85.4299L46.3579 58.6408L46.4149 58.6069L46.4611 58.5594L56.7198 48.0066L82.1436 73.8506Z" fill="url(#paint0_linear_776_380)" stroke="black"/>
<path d="M45 74.5L27.2986 57.301L17.5924 47.5948L14.8626 50.0214V64.5L0 74.5V11.5H6.36967L14.8626 20.9029V38.192L32.1517 20.2962H46.1043L27.6019 39.7086L52 64.5L45 74.5Z" fill="black"/>
<path d="M7 4C7 5.933 5.433 7.5 3.5 7.5C1.567 7.5 0 5.933 0 4C0 2.067 1.567 0.5 3.5 0.5C5.433 0.5 7 2.067 7 4Z" fill="#FA9805"/>
<path d="M37.3438 71V103H32.5156V71H37.3438ZM48.6719 88.75V103H44V79H48.4844V82.9062H48.7813C49.3333 81.6354 50.1979 80.6146 51.375 79.8437C52.5625 79.0729 54.0573 78.6875 55.8594 78.6875C57.4948 78.6875 58.9271 79.0313 60.1563 79.7188C61.3854 80.3958 62.3385 81.4062 63.0156 82.75C63.6927 84.0937 64.0313 85.7552 64.0313 87.7344V103H59.3594V88.2969C59.3594 86.5573 58.9063 85.1979 58 84.2187C57.0938 83.2292 55.849 82.7344 54.2656 82.7344C53.1823 82.7344 52.2188 82.9687 51.375 83.4375C50.5417 83.9062 49.8802 84.5937 49.3906 85.5C48.9115 86.3958 48.6719 87.4792 48.6719 88.75ZM74.9688 88.75V103H70.2969V79H74.7812V82.9062H75.0781C75.6302 81.6354 76.4948 80.6146 77.6719 79.8437C78.8594 79.0729 80.3542 78.6875 82.1563 78.6875C83.7917 78.6875 85.224 79.0313 86.4531 79.7188C87.6823 80.3958 88.6354 81.4062 89.3125 82.75C89.9896 84.0937 90.3281 85.7552 90.3281 87.7344V103H85.6563V88.2969C85.6563 86.5573 85.2031 85.1979 84.2969 84.2187C83.3906 83.2292 82.1458 82.7344 80.5625 82.7344C79.4792 82.7344 78.5156 82.9687 77.6719 83.4375C76.8385 83.9062 76.1771 84.5937 75.6875 85.5C75.2083 86.3958 74.9688 87.4792 74.9688 88.75ZM106.703 103.484C104.453 103.484 102.49 102.969 100.813 101.937C99.1354 100.906 97.8333 99.4635 96.9063 97.6094C95.9792 95.7552 95.5156 93.5885 95.5156 91.1094C95.5156 88.6198 95.9792 86.4427 96.9063 84.5781C97.8333 82.7135 99.1354 81.2656 100.813 80.2344C102.49 79.2031 104.453 78.6875 106.703 78.6875C108.953 78.6875 110.917 79.2031 112.594 80.2344C114.271 81.2656 115.573 82.7135 116.5 84.5781C117.427 86.4427 117.891 88.6198 117.891 91.1094C117.891 93.5885 117.427 95.7552 116.5 97.6094C115.573 99.4635 114.271 100.906 112.594 101.937C110.917 102.969 108.953 103.484 106.703 103.484ZM106.719 99.5625C108.177 99.5625 109.385 99.1771 110.344 98.4062C111.302 97.6354 112.01 96.6094 112.469 95.3281C112.938 94.0469 113.172 92.6354 113.172 91.0937C113.172 89.5625 112.938 88.1562 112.469 86.875C112.01 85.5833 111.302 84.5469 110.344 83.7656C109.385 82.9844 108.177 82.5937 106.719 82.5937C105.25 82.5937 104.031 82.9844 103.063 83.7656C102.104 84.5469 101.391 85.5833 100.922 86.875C100.464 88.1562 100.234 89.5625 100.234 91.0937C100.234 92.6354 100.464 94.0469 100.922 95.3281C101.391 96.6094 102.104 97.6354 103.063 98.4062C104.031 99.1771 105.25 99.5625 106.719 99.5625Z" fill="black"/>
<path d="M120.516 103V71H125.344V86.2812H125.734L139.156 71H145.234L132.328 85.4062L145.281 103H139.469L129.125 88.7031L125.344 93.0469V103H120.516ZM151.391 88.75V103H146.719V79H151.204V82.9062H151.501C152.053 81.6354 152.917 80.6146 154.094 79.8437C155.282 79.0729 156.777 78.6875 158.579 78.6875C160.214 78.6875 161.646 79.0313 162.876 79.7188C164.105 80.3958 165.058 81.4062 165.735 82.75C166.412 84.0937 166.751 85.7552 166.751 87.7344V103H162.079V88.2969C162.079 86.5573 161.626 85.1979 160.719 84.2187C159.813 83.2292 158.568 82.7344 156.985 82.7344C155.902 82.7344 154.938 82.9687 154.094 83.4375C153.261 83.9062 152.6 84.5937 152.11 85.5C151.631 86.3958 151.391 87.4792 151.391 88.75ZM180.486 103.484C178.236 103.484 176.272 102.969 174.595 101.937C172.918 100.906 171.616 99.4635 170.689 97.6094C169.762 95.7552 169.298 93.5885 169.298 91.1094C169.298 88.6198 169.762 86.4427 170.689 84.5781C171.616 82.7135 172.918 81.2656 174.595 80.2344C176.272 79.2031 178.236 78.6875 180.486 78.6875C182.736 78.6875 184.699 79.2031 186.376 80.2344C188.053 81.2656 189.355 82.7135 190.283 84.5781C191.21 86.4427 191.673 88.6198 191.673 91.1094C191.673 93.5885 191.21 95.7552 190.283 97.6094C189.355 99.4635 188.053 100.906 186.376 101.937C184.699 102.969 182.736 103.484 180.486 103.484ZM180.501 99.5625C181.96 99.5625 183.168 99.1771 184.126 98.4062C185.085 97.6354 185.793 96.6094 186.251 95.3281C186.72 94.0469 186.954 92.6354 186.954 91.0937C186.954 89.5625 186.72 88.1562 186.251 86.875C185.793 85.5833 185.085 84.5469 184.126 83.7656C183.168 82.9844 181.96 82.5937 180.501 82.5937C179.033 82.5937 177.814 82.9844 176.845 83.7656C175.887 84.5469 175.173 85.5833 174.704 86.875C174.246 88.1562 174.017 89.5625 174.017 91.0937C174.017 92.6354 174.246 94.0469 174.704 95.3281C175.173 96.6094 175.887 97.6354 176.845 98.4062C177.814 99.1771 179.033 99.5625 180.501 99.5625ZM198.721 103L191.658 79H196.486L201.189 96.625H201.424L206.143 79H210.971L215.658 96.5469H215.893L220.564 79H225.393L218.346 103H213.58L208.705 85.6719H208.346L203.471 103H198.721ZM247.717 79L239.014 103H234.014L225.295 79H230.311L236.389 97.4687H236.639L242.702 79H247.717ZM258.995 103.484C256.631 103.484 254.594 102.979 252.886 101.969C251.188 100.948 249.876 99.5156 248.948 97.6719C248.032 95.8177 247.573 93.6458 247.573 91.1562C247.573 88.6979 248.032 86.5312 248.948 84.6562C249.876 82.7812 251.167 81.3177 252.823 80.2656C254.49 79.2135 256.438 78.6875 258.667 78.6875C260.021 78.6875 261.334 78.9115 262.605 79.3594C263.876 79.8073 265.016 80.5104 266.027 81.4687C267.037 82.4271 267.834 83.6719 268.417 85.2031C269.001 86.724 269.292 88.5729 269.292 90.75V92.4062H250.214V88.9062H264.714C264.714 87.6771 264.464 86.5885 263.964 85.6406C263.464 84.6823 262.761 83.9271 261.855 83.375C260.959 82.8229 259.907 82.5469 258.698 82.5469C257.386 82.5469 256.24 82.8698 255.261 83.5156C254.292 84.151 253.542 84.9844 253.011 86.0156C252.49 87.0365 252.23 88.1458 252.23 89.3438V92.0781C252.23 93.6823 252.511 95.0469 253.073 96.1719C253.646 97.2969 254.443 98.1562 255.464 98.75C256.485 99.3333 257.678 99.625 259.042 99.625C259.928 99.625 260.735 99.5 261.464 99.25C262.193 98.9896 262.823 98.6042 263.355 98.0937C263.886 97.5833 264.292 96.9531 264.573 96.2031L268.995 97C268.641 98.3021 268.006 99.4427 267.089 100.422C266.183 101.391 265.042 102.146 263.667 102.687C262.303 103.219 260.745 103.484 258.995 103.484ZM274.965 79L280.262 88.3437L285.605 79H290.715L283.23 91L290.777 103H285.668L280.262 94.0312L274.871 103H269.746L277.215 91L269.84 79H274.965Z" fill="#ED7F01"/>
<defs>
<linearGradient id="paint0_linear_776_380" x1="19.9625" y1="47.5701" x2="131.086" y2="49.9155" gradientUnits="userSpaceOnUse">
<stop stop-color="#FA9805"/>
<stop offset="1" stop-color="#930D0D"/>
</linearGradient>
</defs>
</svg>
