<svg width="37" height="35" viewBox="0 0 37 35" fill="none" xmlns="http://www.w3.org/2000/svg">
<path d="M7.90292 4.53661C7.90242 5.54349 7.50195 6.50893 6.78963 7.22054C6.0773 7.93215 5.11147 8.33165 4.10459 8.33115C3.09772 8.33064 2.13228 7.93018 1.42067 7.21785C0.709052 6.50553 0.309556 5.53969 0.310059 4.53282C0.310563 3.52594 0.711025 2.5605 1.42335 1.84889C2.13567 1.13728 3.10151 0.737778 4.10839 0.738282C5.11526 0.738785 6.0807 1.13925 6.79231 1.85157C7.50393 2.5639 7.90342 3.52974 7.90292 4.53661ZM8.01681 11.1424H0.423952V34.9081H8.01681V11.1424ZM20.0135 11.1424H12.4586V34.9081H19.9376V22.4368C19.9376 15.4893 28.9921 14.8439 28.9921 22.4368V34.9081H36.49V19.8552C36.49 8.14322 23.0886 8.57981 19.9376 14.3314L20.0135 11.1424Z" fill="#FFF6C3"/>
</svg>
