<svg width="26" height="21" viewBox="0 0 26 21" fill="none" xmlns="http://www.w3.org/2000/svg">
<path d="M21.7667 0H3.84119C2.82244 0 1.84542 0.404695 1.12506 1.12506C0.404695 1.84542 0 2.82244 0 3.84119V16.6451C0 17.6639 0.404695 18.6409 1.12506 19.3613C1.84542 20.0816 2.82244 20.4863 3.84119 20.4863H21.7667C22.7855 20.4863 23.7625 20.0816 24.4829 19.3613C25.2032 18.6409 25.6079 17.6639 25.6079 16.6451V3.84119C25.6079 2.82244 25.2032 1.84542 24.4829 1.12506C23.7625 0.404695 22.7855 0 21.7667 0ZM21.7667 2.56079L13.4442 8.28416C13.2495 8.39654 13.0287 8.4557 12.804 8.4557C12.5792 8.4557 12.3584 8.39654 12.1638 8.28416L3.84119 2.56079H21.7667Z" fill="#FFF6C3"/>
</svg>
