<svg width="188" height="52" viewBox="0 0 188 52" fill="none" xmlns="http://www.w3.org/2000/svg">
<g clip-path="url(#clip0_469_722)">
<path d="M128.945 40.1891V30.93C128.945 28.6511 128.091 27.5117 125.954 27.5117C125.1 27.5117 124.103 27.6544 123.533 27.7964V41.3285C123.533 41.7559 123.105 42.1833 122.678 42.1833H119.402C118.974 42.1833 118.547 41.7559 118.547 41.3285V25.5175C118.547 24.9474 118.974 24.5207 119.402 24.378C121.539 23.666 123.675 23.2386 125.954 23.2386C131.082 23.2386 133.931 25.9449 133.931 30.9308V41.4713C133.931 41.8986 133.503 42.326 133.076 42.326H131.082C129.8 42.3253 128.945 41.3285 128.945 40.1891ZM141.766 34.6338L141.623 35.916C141.623 37.6255 142.762 38.6223 144.614 38.6223C146.038 38.6223 147.32 38.1949 148.745 37.4828C148.888 37.4828 149.03 37.3401 149.172 37.3401C149.457 37.3401 149.6 37.4828 149.742 37.6248C149.885 37.7675 150.17 38.1949 150.17 38.1949C150.454 38.6223 150.74 39.1916 150.74 39.619C150.74 40.3311 150.313 41.0431 149.743 41.3285C148.176 42.1833 146.325 42.6107 144.331 42.6107C142.052 42.6107 140.199 42.0406 138.775 40.9012C137.351 39.619 136.496 37.9102 136.496 35.7733V30.218C136.496 25.8022 139.345 23.0959 144.189 23.0959C148.889 23.0959 151.595 25.6602 151.595 30.218V33.6363C151.595 34.0637 151.168 34.4911 150.741 34.4911H141.767L141.766 34.6338ZM141.623 31.5001H147.035V30.076C147.035 28.3665 146.039 27.227 144.329 27.227C142.62 27.227 141.623 28.2238 141.623 30.076V31.5001ZM177.946 34.6338L177.804 35.916C177.804 37.6255 178.943 38.6223 180.794 38.6223C182.219 38.6223 183.501 38.1949 184.926 37.4828C185.068 37.4828 185.21 37.3401 185.353 37.3401C185.638 37.3401 185.78 37.4828 185.923 37.6248C186.066 37.7675 186.351 38.1949 186.351 38.1949C186.635 38.6223 186.921 39.1916 186.921 39.619C186.921 40.3311 186.493 41.0431 185.924 41.3285C184.357 42.1833 182.506 42.6107 180.511 42.6107C178.232 42.6107 176.38 42.0406 174.956 40.9012C173.532 39.619 172.677 37.9102 172.677 35.7733V30.218C172.677 25.8022 175.526 23.0959 180.369 23.0959C185.07 23.0959 187.776 25.6602 187.776 30.218V33.6363C187.776 34.0637 187.349 34.4911 186.921 34.4911H177.948V34.6338H177.946ZM177.804 31.5001H183.216V30.076C183.216 28.3665 182.219 27.227 180.51 27.227C178.8 27.227 177.804 28.2238 177.804 30.076V31.5001ZM94.0469 42.3253H96.0411C96.4685 42.3253 96.8959 41.8979 96.8959 41.4705V30.93C96.8959 26.0868 94.3316 23.2378 90.0585 23.2378C88.7763 23.2378 87.3522 23.5225 86.4974 23.8079V18.5373C86.4974 17.3979 85.5007 16.4004 84.3605 16.4004H82.3663C81.9389 16.4004 81.5115 16.8278 81.5115 17.2552V41.4705C81.5115 41.8979 81.9389 42.3253 82.3663 42.3253H85.6427C86.07 42.3253 86.4974 41.8979 86.4974 41.4705V28.0811C87.2095 27.7964 88.207 27.6537 88.919 27.6537C91.056 27.6537 91.91 28.6504 91.91 31.072V40.3311C92.0527 41.3285 92.9075 42.3253 94.0469 42.3253ZM115.556 30.3599V35.6306C115.556 40.0464 112.565 42.7527 107.579 42.7527C102.736 42.7527 99.6022 40.0464 99.6022 35.6306V30.3599C99.6022 25.9441 102.593 23.2378 107.579 23.2378C112.565 23.2378 115.556 25.9449 115.556 30.3599ZM110.571 30.3599C110.571 28.6504 109.574 27.511 107.722 27.511C105.87 27.511 104.873 28.5077 104.873 30.3599V35.6306C104.873 37.3401 105.87 38.3368 107.722 38.3368C109.574 38.3368 110.571 37.3401 110.571 35.6306V30.3599ZM78.806 27.9391C78.806 32.4976 75.3876 35.6313 70.8291 35.6313C69.6896 35.6313 68.6921 35.4886 67.6954 35.0612V41.4713C67.6954 41.8986 67.268 42.326 66.8406 42.326H63.5642C63.1369 42.326 62.7095 41.8986 62.7095 41.4713V18.8228C62.7095 18.2527 63.1369 17.826 63.5642 17.6833C65.7012 16.9712 67.8374 16.5439 70.1163 16.5439C75.2442 16.5439 78.8052 19.6775 78.8052 24.5207C78.806 24.52 78.806 27.9391 78.806 27.9391ZM73.6781 24.2353C73.6781 21.9564 72.1112 20.817 69.9743 20.817C68.6921 20.817 67.8374 21.2444 67.8374 21.2444V30.6454C68.6921 31.0728 69.1195 31.2155 70.1163 31.2155C72.2532 31.2155 73.82 29.9333 73.82 27.7971V24.2361H73.6781V24.2353ZM170.824 27.9391C170.824 32.4976 167.406 35.6313 162.847 35.6313C161.708 35.6313 160.71 35.4886 159.714 35.0612V41.4713C159.714 41.8986 159.286 42.326 158.859 42.326H155.582C155.155 42.326 154.728 41.8986 154.728 41.4713V18.8228C154.728 18.2527 155.155 17.826 155.582 17.6833C157.719 16.9712 159.856 16.5439 162.134 16.5439C167.262 16.5439 170.823 19.6775 170.823 24.5207C170.824 24.52 170.824 27.9391 170.824 27.9391ZM165.696 24.2353C165.696 21.9564 164.129 20.817 161.992 20.817C160.71 20.817 159.856 21.2444 159.856 21.2444V30.6454C160.71 31.0728 161.138 31.2155 162.134 31.2155C164.271 31.2155 165.838 29.9333 165.838 27.7971V24.2361H165.696V24.2353Z" fill="#5F259F"/>
<path d="M25.4975 51.1142C39.5794 51.1142 50.995 39.6985 50.995 25.6166C50.995 11.5348 39.5794 0.119141 25.4975 0.119141C11.4156 0.119141 0 11.5348 0 25.6166C0 39.6985 11.4156 51.1142 25.4975 51.1142Z" fill="#5F259F"/>
<path d="M37.0698 18.9644C37.0698 17.9676 36.2151 17.1129 35.2183 17.1129H31.8L23.9658 8.13925C23.2537 7.28448 22.1143 6.9998 20.9748 7.28448L18.2686 8.13925C17.8412 8.28196 17.6985 8.85131 17.9839 9.13598L26.5301 17.2556H13.5666C13.1392 17.2556 12.8545 17.5403 12.8545 17.9676V19.3918C12.8545 20.3885 13.7093 21.2433 14.706 21.2433H16.7002V28.0807C16.7002 33.2086 19.4065 36.2003 23.9651 36.2003C25.3892 36.2003 26.5294 36.0576 27.9535 35.4883V40.0468C27.9535 41.329 28.9502 42.3257 30.2324 42.3257H32.2266C32.654 42.3257 33.0814 41.8983 33.0814 41.4709V21.1013H36.3578C36.7852 21.1013 37.0698 20.8166 37.0698 20.3893V18.9644ZM27.9535 31.2144C27.0987 31.6418 25.9593 31.7845 25.1045 31.7845C22.8256 31.7845 21.6862 30.645 21.6862 28.0807V21.2433H27.9535V31.2144Z" fill="white"/>
</g>
<defs>
<clipPath id="clip0_469_722">
<rect width="187.776" height="51" fill="white" transform="translate(0 0.117188)"/>
</clipPath>
</defs>
</svg>
