<svg width="300" height="151" viewBox="0 0 300 151" fill="none" xmlns="http://www.w3.org/2000/svg">
<g clip-path="url(#clip0_286_7451)">
<path d="M66.1754 108.717C66.1406 108.153 66.1472 107.589 66.1495 107.025C66.1519 106.462 66.15 105.899 66.15 105.338C66.396 105.117 66.6606 105.176 66.9015 105.252C66.983 105.278 67.0512 105.445 67.0685 105.557C67.1167 105.868 67.1351 106.183 67.1673 106.519C67.5527 106.519 67.8942 106.519 68.2827 106.519C68.2957 106.375 68.3085 106.237 68.3207 106.099C68.3358 105.927 68.3349 105.752 68.3684 105.583C68.4342 105.253 68.5212 105.191 68.8359 105.206C69.1115 105.218 69.2081 105.307 69.2598 105.599C69.2698 105.656 69.2748 105.714 69.2745 105.772C69.2705 106.726 69.2652 107.681 69.2612 108.677C68.999 108.717 68.7358 108.717 68.4344 108.677C68.3701 108.183 68.3441 107.73 68.3192 107.295C67.8786 107.173 67.4955 107.176 67.1165 107.295C67.0795 107.763 67.0419 108.24 67.0044 108.717C66.7412 108.717 66.478 108.717 66.1754 108.717Z" fill="#2B2D8D"/>
<path d="M52.1945 108.716C52.1306 107.839 52.0986 106.963 52.0861 106.086C52.0823 105.816 52.132 105.546 52.1605 105.24C52.3311 105.225 52.4697 105.204 52.6087 105.202C52.9411 105.197 53.2744 105.215 53.6059 105.197C53.9814 105.176 54.2787 105.353 54.5592 105.553C54.8286 105.746 54.8406 106.42 54.5984 106.703C54.5053 106.813 54.3939 106.906 54.2678 107.029C54.738 107.474 54.9776 108.032 55.0996 108.684C54.9588 108.716 54.8099 108.716 54.631 108.685C54.2958 108.513 54.0674 108.292 53.9081 107.997C53.8603 107.909 53.8047 107.823 53.7674 107.73C53.6487 107.435 53.4401 107.314 53.0839 107.379C52.962 107.816 52.9639 108.264 53.0235 108.716C52.7603 108.716 52.4971 108.716 52.1945 108.716ZM53.645 106.608C53.867 106.406 53.9073 106.137 53.6998 105.969C53.5935 105.882 53.4098 105.84 53.2713 105.858C53.0988 105.88 53.0156 106.051 53.038 106.219C53.0634 106.409 53.1323 106.593 53.1902 106.81C53.3583 106.738 53.4744 106.688 53.645 106.608Z" fill="#2B2D8E"/>
<path d="M110.898 108.715C110.854 107.673 110.845 106.632 110.847 105.59C110.848 105.194 110.905 105.156 111.318 105.195C111.445 105.207 111.571 105.226 111.744 105.247C111.744 105.573 111.739 105.875 111.745 106.176C111.754 106.592 111.787 106.624 112.192 106.63C112.409 106.633 112.626 106.628 112.843 106.623C112.885 106.622 112.925 106.604 112.99 106.587C113.091 106.3 113.036 105.996 113.038 105.698C113.041 105.301 113.111 105.174 113.371 105.161C113.721 105.144 113.97 105.371 113.971 105.727C113.973 106.696 113.969 107.666 113.976 108.675C113.694 108.715 113.402 108.715 113.079 108.675C113.042 108.182 113.036 107.728 113.029 107.221C112.713 107.215 112.445 107.214 112.178 107.204C111.947 107.194 111.84 107.307 111.811 107.528C111.759 107.925 111.698 108.32 111.641 108.715C111.406 108.715 111.172 108.715 110.898 108.715Z" fill="#2C2E8E"/>
<path d="M92.575 108.716C92.4178 107.594 92.4212 105.668 92.55 105.26C93.2171 105.284 93.8918 105.301 94.5656 105.336C94.8111 105.349 95.0768 105.646 95.1268 105.918C95.2121 106.381 95.0181 106.73 94.6477 107.028C95.097 107.488 95.3309 108.047 95.4837 108.683C95.254 108.716 95.0196 108.716 94.7647 108.689C94.5818 108.414 94.4167 108.169 94.2581 107.92C94.2046 107.836 94.175 107.737 94.1213 107.653C93.927 107.35 93.7153 107.302 93.3175 107.499C93.3175 107.888 93.3175 108.302 93.3175 108.716C93.083 108.716 92.8486 108.716 92.575 108.716ZM93.5521 105.859C93.5142 105.877 93.4485 105.889 93.4426 105.915C93.3835 106.175 93.3302 106.438 93.3776 106.758C93.5698 106.733 93.7445 106.736 93.8999 106.683C94.0691 106.625 94.1855 106.49 94.1921 106.291C94.1987 106.09 94.0862 105.96 93.9205 105.885C93.8344 105.847 93.7242 105.862 93.5521 105.859Z" fill="#2B2D8E"/>
<path d="M97.9568 108.716C97.742 108.377 97.7477 108.012 97.7576 107.644C97.7789 106.852 97.7943 106.06 97.8128 105.235C98.0846 105.235 98.3218 105.235 98.6139 105.235C98.6203 105.544 98.6223 105.827 98.6329 106.11C98.6447 106.429 98.6681 106.465 98.9684 106.499C99.2528 106.531 99.5404 106.535 99.8485 106.553C99.8805 106.425 99.9153 106.333 99.9244 106.238C99.9368 106.109 99.9273 105.978 99.9311 105.848C99.9504 105.192 100.163 105.059 100.86 105.31C100.86 105.449 100.863 105.606 100.859 105.762C100.84 106.571 100.825 107.379 100.796 108.187C100.79 108.34 100.725 108.491 100.693 108.68C100.55 108.716 100.401 108.716 100.215 108.681C100.032 108.511 99.9774 108.348 99.9852 108.146C99.9962 107.862 99.9801 107.578 99.975 107.259C99.5014 107.255 99.0771 107.162 98.6601 107.354C98.5773 107.822 98.7321 108.308 98.4407 108.716C98.2918 108.716 98.1429 108.716 97.9568 108.716Z" fill="#2B2D8E"/>
<path d="M107.426 108.715C107.195 108.28 107.032 107.83 106.808 107.413C106.494 106.831 106.834 105.887 107.284 105.526C107.37 105.458 107.485 105.416 107.593 105.385C107.856 105.31 108.121 105.233 108.39 105.186C108.538 105.16 108.696 105.193 108.85 105.199C108.992 105.205 109.134 105.22 109.276 105.217C109.618 105.209 109.698 105.262 109.846 105.628C109.657 105.851 109.442 105.961 109.132 105.85C109.002 105.803 108.847 105.814 108.703 105.816C108.032 105.824 107.658 106.19 107.635 106.855C107.613 107.479 108.136 108.022 108.758 108.019C108.858 108.019 108.958 108.01 109.085 108.003C109.111 107.921 109.144 107.844 109.159 107.763C109.217 107.465 109.192 107.4 108.904 107.326C108.726 107.28 108.601 107.228 108.628 107.021C108.654 106.813 108.762 106.745 109.028 106.754C109.245 106.761 109.461 106.766 109.678 106.769C109.892 106.771 110.008 106.884 109.997 107.09C109.977 107.478 109.949 107.866 109.897 108.251C109.884 108.342 109.767 108.425 109.685 108.498C109.615 108.56 109.525 108.602 109.457 108.684C108.802 108.715 108.135 108.715 107.426 108.715Z" fill="#2B2D8E"/>
<path d="M76.0734 108.715C75.8301 108.481 75.8429 108.197 75.845 107.912C75.8502 107.19 75.8453 106.469 75.8475 105.748C75.8479 105.592 75.861 105.436 75.8707 105.228C76.6374 105.226 77.3774 105.05 78.0818 105.466C78.5257 105.728 78.6473 106.249 78.3166 106.652C78.2172 106.773 78.119 106.896 78.0188 107.019C78.4278 107.517 78.7212 108.05 78.892 108.684C78.6388 108.715 78.3756 108.715 78.0891 108.686C77.8777 108.339 77.6928 108.018 77.4993 107.703C77.44 107.606 77.3743 107.486 77.2812 107.445C77.1472 107.385 76.9812 107.36 76.8378 107.381C76.785 107.389 76.7178 107.573 76.7258 107.671C76.7555 108.036 76.6484 108.373 76.5573 108.715C76.4084 108.715 76.2595 108.715 76.0734 108.715ZM76.8873 105.863C76.5853 106.158 76.7185 106.475 76.8187 106.863C77.0417 106.789 77.2457 106.76 77.4039 106.659C77.6621 106.494 77.6693 106.06 77.4191 105.92C77.2933 105.85 77.1157 105.873 76.8873 105.863Z" fill="#2C2E8E"/>
<path d="M72.777 108.717C72.6821 108.647 72.6417 108.556 72.5716 108.511C71.9257 108.096 71.5172 107.298 71.7051 106.582C71.8554 106.009 72.1454 105.475 72.7781 105.265C72.8816 105.231 73.0034 105.249 73.1167 105.248C73.4326 105.245 73.7486 105.245 74.0645 105.242C74.093 105.242 74.1212 105.231 74.1499 105.228C74.6394 105.177 74.8607 105.407 74.7923 105.953C74.643 105.937 74.4907 105.93 74.3421 105.903C74.2151 105.88 74.0938 105.826 73.9671 105.799C73.3736 105.67 72.8306 105.941 72.6849 106.476C72.5267 107.057 72.6715 107.773 73.2981 108.021C73.4153 108.067 73.5512 108.099 73.6749 108.09C74.0166 108.064 74.1044 107.94 74.1641 107.464C74.0489 107.225 73.5511 107.359 73.6225 106.887C74.0772 106.887 74.517 106.887 74.9752 106.887C75.1311 107.507 75.1508 108.073 74.6575 108.547C74.6292 108.574 74.6222 108.624 74.6261 108.69C74.0371 108.717 73.4274 108.717 72.777 108.717Z" fill="#2C2E8E"/>
<path d="M82.4146 108.716C82.466 108.399 82.5412 108.076 82.6499 107.765C82.9306 106.962 83.2261 106.164 83.516 105.363C83.6421 105.341 83.7399 105.318 83.839 105.306C84.5135 105.221 84.7527 105.363 84.9906 105.997C85.2544 106.7 85.5032 107.409 85.7796 108.107C85.8685 108.331 85.8276 108.493 85.6753 108.684C85.4981 108.716 85.3208 108.716 85.1123 108.684C84.8569 108.061 84.8026 108.023 84.1702 108.022C84.0122 108.022 83.8522 108.01 83.6968 108.031C83.6067 108.043 83.49 108.088 83.4447 108.157C83.3308 108.332 83.2507 108.528 83.157 108.716C82.9226 108.716 82.6881 108.716 82.4146 108.716ZM84.5039 107.28C84.4733 106.882 84.3127 106.528 84.1373 106.11C83.9264 106.521 83.7836 106.876 83.8239 107.312C84.0471 107.312 84.2438 107.312 84.5039 107.28Z" fill="#2D2F8F"/>
<path d="M58.707 108.715C58.6995 108.519 58.7024 108.312 58.7674 108.127C59.0492 107.326 59.3532 106.533 59.6405 105.734C59.7512 105.427 59.9334 105.246 60.2809 105.287C60.3377 105.294 60.396 105.287 60.4535 105.288C60.9496 105.295 61.0321 105.348 61.2052 105.828C61.5028 106.654 61.7952 107.481 62.0836 108.31C62.12 108.415 62.1189 108.533 62.1384 108.68C61.8784 108.715 61.6152 108.715 61.3294 108.685C61.2323 108.442 61.2244 108.142 60.9673 108.096C60.6058 108.032 60.2217 108.009 59.8603 108.06C59.5717 108.101 59.5704 108.452 59.452 108.673C59.4459 108.684 59.4501 108.701 59.4495 108.715C59.2151 108.715 58.9806 108.715 58.707 108.715ZM60.3309 107.46C60.4655 107.425 60.6 107.39 60.7467 107.351C60.7267 106.911 60.6299 106.539 60.3792 106.152C60.1899 106.607 60.0218 107.005 59.9831 107.472C60.0964 107.472 60.1789 107.472 60.3309 107.46Z" fill="#2D2F8F"/>
<path d="M55.7563 108.714C55.7107 107.791 55.6996 106.868 55.7048 105.945C55.7062 105.693 55.7567 105.442 55.7858 105.18C56.5913 105.18 57.336 105.18 58.0724 105.18C58.2259 105.67 58.1277 105.826 57.6702 105.847C57.5117 105.854 57.3527 105.849 57.1939 105.849C57.0516 105.849 56.9093 105.849 56.7201 105.849C56.7094 106.078 56.7004 106.27 56.6896 106.502C56.847 106.518 56.9703 106.535 57.0943 106.542C57.2383 106.549 57.3838 106.538 57.5268 106.553C57.927 106.593 57.9517 106.626 57.9666 107.095C57.5931 107.32 57.1475 107.102 56.7467 107.261C56.7293 107.31 56.701 107.361 56.6928 107.415C56.6178 107.913 56.6643 107.966 57.1658 107.976C57.4396 107.982 57.7135 107.988 57.9873 107.998C58.0281 107.999 58.068 108.024 58.1442 108.051C58.1442 108.24 58.1442 108.438 58.1457 108.675C57.3638 108.714 56.5804 108.714 55.7563 108.714Z" fill="#2D2F8F"/>
<path d="M79.5504 108.716C79.485 107.807 79.4599 106.897 79.4361 105.987C79.4331 105.872 79.4316 105.756 79.4389 105.64C79.46 105.306 79.514 105.249 79.8415 105.196C80.4913 105.091 81.1318 105.217 81.7904 105.223C81.8104 105.369 81.8324 105.466 81.8352 105.564C81.8407 105.762 81.7333 105.851 81.5388 105.85C81.2928 105.849 81.0468 105.849 80.8009 105.853C80.6597 105.855 80.5187 105.865 80.3189 105.874C80.3926 106.148 80.4543 106.377 80.5185 106.616C80.9497 106.616 81.3352 106.616 81.7709 106.616C81.7559 106.807 81.743 106.971 81.7274 107.169C81.2821 107.192 80.8708 107.213 80.4291 107.236C80.4291 107.481 80.4291 107.688 80.4291 107.948C80.9071 107.968 81.3616 107.987 81.8649 108.008C81.8649 108.241 81.8649 108.44 81.8596 108.678C81.0999 108.716 80.3455 108.716 79.5504 108.716Z" fill="#2C2E8E"/>
<path d="M101.956 108.717C101.884 107.808 101.84 106.899 101.825 105.99C101.813 105.259 101.879 105.193 102.595 105.163C103.071 105.142 103.548 105.159 104.033 105.159C104.08 105.247 104.13 105.318 104.158 105.397C104.266 105.706 104.183 105.839 103.861 105.85C103.503 105.862 103.144 105.853 102.767 105.853C102.746 105.994 102.717 106.091 102.72 106.187C102.732 106.483 102.782 106.53 103.084 106.543C103.4 106.556 103.716 106.565 104.052 106.576C104.092 106.757 104.126 106.907 104.165 107.083C103.738 107.337 103.262 107.103 102.812 107.271C102.812 107.473 102.812 107.68 102.812 107.944C103.299 107.966 103.779 107.988 104.306 108.012C104.282 108.255 104.262 108.452 104.251 108.682C103.505 108.717 102.751 108.717 101.956 108.717Z" fill="#282A8D"/>
<path d="M89.1898 108.715C89.1445 107.746 89.1338 106.778 89.1381 105.809C89.1401 105.355 89.2639 105.195 89.7231 105.179C90.3119 105.158 90.9031 105.205 91.4808 105.223C91.6068 105.717 91.517 105.843 91.0659 105.85C90.7638 105.854 90.4616 105.851 90.1445 105.851C90.1161 105.976 90.0867 106.071 90.0747 106.167C90.036 106.477 90.098 106.56 90.3971 106.587C90.6415 106.609 90.8871 106.618 91.1321 106.632C91.3981 106.648 91.4797 106.716 91.4723 106.914C91.4638 107.145 91.3132 107.197 91.1187 107.198C90.8585 107.2 90.5982 107.203 90.3381 107.211C90.2822 107.212 90.2268 107.234 90.1235 107.257C90.1137 107.46 90.1037 107.667 90.093 107.888C90.5904 108.089 91.1015 107.879 91.6038 108.061C91.5939 108.252 91.5838 108.449 91.5771 108.68C90.7972 108.715 90.0139 108.715 89.1898 108.715Z" fill="#2D2F8F"/>
<path d="M118.281 108.717C118.22 108.421 118.2 108.125 118.177 107.78C118.569 107.842 118.906 107.901 119.245 107.946C119.372 107.964 119.509 107.978 119.63 107.947C119.874 107.883 119.925 107.659 119.733 107.491C119.629 107.4 119.491 107.338 119.358 107.288C119.143 107.206 118.917 107.152 118.7 107.071C118.296 106.921 118.042 106.561 118.064 106.188C118.097 105.648 118.35 105.367 118.849 105.225C119.334 105.086 119.827 105.196 120.311 105.265C120.555 105.299 120.598 105.55 120.435 105.938C120.278 105.908 120.11 105.879 119.945 105.842C119.876 105.827 119.811 105.772 119.743 105.77C119.183 105.75 119.056 105.713 118.966 106.319C119.066 106.356 119.168 106.41 119.276 106.432C119.668 106.51 120.012 106.682 120.326 106.923C120.515 107.068 120.752 107.158 120.753 107.471C120.755 107.831 120.726 108.164 120.442 108.424C120.359 108.5 120.282 108.582 120.22 108.689C119.599 108.717 118.96 108.717 118.281 108.717Z" fill="#2C2E8E"/>
<path d="M63.3979 108.714C63.3054 108.642 63.2686 108.548 63.1995 108.502C62.4892 108.024 62.2795 107.532 62.4402 106.691C62.451 106.634 62.4701 106.578 62.472 106.521C62.4886 106.014 62.7178 105.641 63.1738 105.42C63.3501 105.334 63.5358 105.225 63.7227 105.213C64.0807 105.19 64.4433 105.221 64.8027 105.247C65.0827 105.267 65.2602 105.557 65.2261 105.94C65.1327 105.94 65.0347 105.952 64.9409 105.937C64.8423 105.921 64.7484 105.878 64.6513 105.851C63.9527 105.655 63.641 105.785 63.3877 106.375C63.1398 106.954 63.3253 107.665 63.8038 107.95C64.0866 108.119 64.3887 108.084 64.6855 107.999C64.9096 107.934 65.1097 107.912 65.2722 108.194C65.1196 108.345 64.9624 108.501 64.8194 108.685C64.3685 108.714 63.9035 108.714 63.3979 108.714Z" fill="#2C2E8E"/>
<path d="M86.6704 108.716C86.6212 107.782 86.6119 106.848 86.6023 105.891C86.3065 105.862 86.0523 105.833 85.7974 105.812C85.6064 105.796 85.5079 105.712 85.5206 105.509C85.5323 105.322 85.6083 105.209 85.8074 105.205C86.6292 105.19 87.451 105.169 88.2729 105.164C88.4626 105.163 88.6603 105.384 88.6573 105.565C88.6536 105.788 88.4926 105.827 88.3068 105.864C87.4155 106.044 87.5859 105.998 87.5757 106.774C87.5676 107.394 87.585 108.014 87.5884 108.675C87.2939 108.716 87.002 108.716 86.6704 108.716Z" fill="#2D2F8F"/>
<path d="M115.588 108.715C115.548 107.809 115.548 106.902 115.548 105.983C115.334 105.942 115.154 105.895 114.97 105.876C114.642 105.843 114.487 105.66 114.449 105.294C114.587 105.249 114.73 105.163 114.873 105.164C115.725 105.171 116.577 105.198 117.429 105.221C117.484 105.222 117.538 105.25 117.618 105.273C117.618 105.441 117.618 105.61 117.618 105.83C117.279 105.83 116.94 105.83 116.537 105.83C116.524 106.798 116.512 107.716 116.502 108.675C116.212 108.715 115.92 108.715 115.588 108.715Z" fill="#3E3F98"/>
<path d="M105.338 108.716C105.094 108.481 105.108 108.197 105.11 107.911C105.115 107.188 105.11 106.465 105.112 105.742C105.113 105.586 105.128 105.43 105.136 105.291C105.429 105.112 105.684 105.117 105.965 105.304C105.965 105.998 105.968 106.703 105.963 107.409C105.962 107.639 105.949 107.871 105.922 108.099C105.9 108.282 105.849 108.462 105.817 108.679C105.673 108.716 105.524 108.716 105.338 108.716Z" fill="#2B2D8E"/>
<path d="M78.617 83.4487C79.163 83.566 79.6721 83.6691 80.1727 83.8041C80.6609 83.9357 81.1397 84.1015 81.6238 84.2488C81.745 84.2857 81.8704 84.3089 82.0598 84.3541C81.8698 83.9984 81.6727 83.7357 81.407 83.5153C80.3247 82.6179 79.0376 82.1374 77.7174 81.7547C77.1991 81.6045 76.6316 81.6002 76.0845 81.5786C74.8724 81.5307 73.6586 81.5586 72.4567 81.7254C71.8914 81.8039 71.3059 81.8347 70.7799 82.117C70.6459 82.189 70.4724 82.1951 70.315 82.2145C69.0772 82.3671 67.872 82.6701 66.6684 82.9851C65.7593 83.2229 64.8456 83.4428 63.9326 83.6655C63.8152 83.6942 63.6902 83.6916 63.4821 83.7119C63.6188 83.462 63.7124 83.2885 63.8082 83.1163C64.1524 82.4975 64.5066 81.8841 64.8392 81.2592C65.1542 80.6675 65.2509 80.6099 65.9371 80.6836C66.0926 80.7004 66.2568 80.7053 66.4089 80.6751C67.3166 80.4945 68.2318 80.3393 69.126 80.1054C70.6933 79.6955 72.2732 79.3453 73.867 79.0671C74.5138 78.9542 75.165 78.8087 75.8414 78.8797C76.2541 78.923 76.6798 78.8816 77.0962 78.8421C77.8518 78.7704 78.5966 78.8431 79.3401 78.9605C81.7461 79.3402 83.9182 80.2578 85.8238 81.7863C85.9367 81.8768 86.0506 81.966 86.1666 82.0524C86.2126 82.0866 86.2656 82.1112 86.3342 82.1511C86.4016 82.1128 86.4816 82.0809 86.5454 82.029C87.5023 81.2513 88.5241 80.5723 89.634 80.0347C89.9831 79.8656 90.3621 79.758 90.7282 79.6244C90.8776 79.5699 91.0297 79.523 91.1795 79.4698C92.4999 79.0013 93.8595 78.7784 95.2612 78.8041C95.5494 78.8094 95.8397 78.7503 96.1264 78.7665C96.657 78.7965 97.1889 78.8378 97.7145 78.9137C99.9071 79.2305 102.061 79.7322 104.201 80.2967C105.019 80.5122 105.854 80.5705 106.69 80.6291C107.012 80.6517 107.281 80.7679 107.459 81.0467C107.942 81.8018 108.423 82.5579 108.9 83.3169C108.959 83.4109 108.986 83.5249 109.058 83.7039C108.855 83.6806 108.705 83.6786 108.564 83.6446C106.581 83.1697 104.607 82.6539 102.615 82.2247C101.247 81.9301 99.8635 81.7009 98.4528 81.6569C97.4553 81.6258 96.4629 81.5644 95.4692 81.7045C94.4434 81.8491 93.4607 82.1182 92.5582 82.6432C92.1958 82.854 91.823 83.0472 91.4636 83.2628C91.0572 83.5066 90.7609 83.8511 90.55 84.3434C90.6991 84.3184 90.8065 84.3117 90.9066 84.2813C91.1278 84.2141 91.3486 84.1433 91.5637 84.0592C92.68 83.6229 93.8488 83.4285 95.0344 83.3613C95.7969 83.3181 96.5647 83.3688 97.3301 83.3774C98.8869 83.3948 100.383 83.8205 101.907 84.0601C103.437 84.3007 104.94 84.6804 106.413 85.1548C107.645 85.5517 108.9 85.811 110.182 85.9505C110.495 85.9846 110.663 86.1259 110.8 86.4005C111.115 87.0349 111.462 87.6531 111.798 88.2769C111.853 88.3784 111.921 88.473 111.977 88.5737C112.214 88.9963 112.569 89.1843 113.055 89.1406C113.811 89.0727 114.358 89.4643 114.809 90.0016C115.381 90.683 115.752 91.4895 116.141 92.2812C116.369 92.7441 116.419 92.7778 116.901 92.6825C117.46 92.572 117.942 92.7445 118.324 93.1408C118.602 93.4299 118.856 93.7544 119.061 94.0988C119.512 94.8565 119.927 95.6355 120.351 96.409C120.446 96.5821 120.517 96.7683 120.616 96.985C120.476 97.026 120.387 97.0684 120.294 97.0761C120.136 97.0894 119.976 97.0814 119.817 97.0814C110.467 97.0815 101.117 97.0827 91.7676 97.0792C91.0125 97.079 91.1313 97.1354 91.1455 97.7194C91.1601 98.3149 91.1524 98.3191 90.5453 98.3194C87.7375 98.3209 84.9297 98.3207 82.1218 98.3189C81.9517 98.3188 81.7817 98.2994 81.557 98.2857C81.5482 97.9979 81.543 97.7422 81.532 97.4868C81.5165 97.1299 81.4814 97.0955 81.1234 97.0831C80.9788 97.0781 80.8339 97.0815 80.6892 97.0815C71.3684 97.0815 62.0475 97.0817 52.7267 97.08C52.518 97.0799 52.3092 97.0573 52.0479 97.0422C52.1047 96.8671 52.1235 96.755 52.1746 96.6604C52.6485 95.7824 53.1145 94.8997 53.6131 94.0359C53.7914 93.727 54.0233 93.4349 54.2827 93.1903C54.6948 92.8017 55.1748 92.5675 55.7803 92.7221C56.115 92.8076 56.3607 92.6647 56.5199 92.3362C56.6394 92.0895 56.7061 91.8156 56.8385 91.5773C57.1191 91.0722 57.382 90.5469 57.7364 90.0961C58.1197 89.6086 58.5984 89.2041 59.2809 89.1613C59.6251 89.1397 59.9667 89.0762 60.3258 89.0295C60.4953 88.4052 60.8925 87.9206 61.2088 87.3906C61.4087 87.0556 61.6099 86.7212 61.8028 86.3821C61.9309 86.1572 62.0851 85.9678 62.3673 85.971C63.2064 85.9803 63.99 85.7024 64.7863 85.5016C66.3845 85.0986 67.9702 84.6446 69.5731 84.262C71.3333 83.8419 73.1223 83.5727 74.9324 83.5005C76.1458 83.452 77.3617 83.4638 78.617 83.4487ZM92.0601 88.2139C92.4779 88.217 92.8968 88.2019 93.3132 88.2276C93.9456 88.2665 94.5763 88.3339 95.2077 88.3887C96.0128 88.4586 96.8167 88.5613 97.6233 88.59C98.9051 88.6357 100.132 89.1007 101.431 89.034C101.987 89.0055 102.551 89.1254 103.111 89.1817C103.341 89.2047 103.569 89.2618 103.799 89.2617C104.577 89.2615 105.356 89.2296 106.135 89.2349C106.808 89.2394 107.43 89.0816 108.03 88.7768C107.998 88.7288 107.986 88.691 107.967 88.6857C107.283 88.5035 106.603 88.3043 105.913 88.1496C104.886 87.9195 103.856 87.7046 102.821 87.5135C101.587 87.2855 100.347 87.0844 99.1083 86.8819C98.5816 86.7958 98.0481 86.6619 97.522 86.6796C96.4135 86.7168 95.3005 86.634 94.1948 86.8318C93.1918 87.0112 92.2115 87.23 91.3342 87.7747C91.1922 87.8628 91.0635 87.9724 90.9286 88.072C90.9373 88.1032 90.946 88.1344 90.9546 88.1656C91.2949 88.1767 91.6352 88.1879 92.0601 88.2139ZM68.6565 87.7657C67.5719 87.9319 64.7685 88.6209 64.4925 88.8051C64.8414 88.9265 65.1577 89.091 65.4911 89.1403C66.0457 89.2223 66.6108 89.2448 67.1725 89.266C67.8781 89.2926 68.5846 89.2953 69.2908 89.3014C69.4046 89.3024 69.5185 89.2666 69.6325 89.2486C70.1452 89.1679 70.6555 89.0652 71.171 89.011C72.8794 88.8315 74.5898 88.6709 76.2991 88.5002C76.9873 88.4315 77.6732 88.328 78.3629 88.2888C79.3706 88.2314 80.3808 88.219 81.3898 88.1831C81.4761 88.18 81.5611 88.1446 81.7037 88.1105C81.57 88.008 81.4953 87.9426 81.413 87.889C80.887 87.5461 80.3085 87.3319 79.7042 87.1699C79.0114 86.9842 78.3316 86.7124 77.6089 86.7007C76.4845 86.6826 75.3623 86.6721 74.237 86.8227C72.3891 87.0701 70.5481 87.3438 68.6565 87.7657Z" fill="#2E3092"/>
<path d="M156.465 93.1711C156.465 97.956 156.465 102.697 156.465 107.455C156.322 107.475 156.239 107.497 156.156 107.497C155.432 107.5 154.709 107.491 153.985 107.505C153.741 107.509 153.63 107.418 153.55 107.189C152.855 105.181 152.149 103.177 151.445 101.172C150.396 98.1846 149.346 95.1977 148.296 92.211C148.274 92.1494 148.243 92.0914 148.216 92.0315C148.216 92.8628 148.178 93.6821 148.222 94.497C148.444 98.6019 148.331 102.71 148.36 106.816C148.361 107.017 148.36 107.217 148.36 107.401C148.016 107.518 145.481 107.552 144.777 107.456C144.765 107.257 144.743 107.046 144.742 106.836C144.741 99.2247 144.741 91.6132 144.741 84.0017C144.741 83.4518 144.737 82.9019 144.743 82.3521C144.748 81.9623 144.771 81.9364 145.17 81.9325C145.908 81.9252 146.646 81.927 147.384 81.9308C147.825 81.933 147.831 81.9379 147.976 82.3465C148.261 83.1504 148.539 83.957 148.824 84.7612C149.817 87.5687 150.812 90.3756 151.806 93.183C152.187 94.2595 152.566 95.3368 152.947 96.4133C152.979 96.505 153.02 96.5936 153.092 96.7688C153.132 96.6427 153.16 96.5973 153.159 96.5528C153.141 95.9755 153.118 95.3982 153.097 94.821C153.082 94.431 153.065 94.0411 153.052 93.6512C153.021 92.7124 152.975 91.7738 152.965 90.8348C152.937 88.0726 152.924 85.3103 152.905 82.548C152.904 82.377 152.905 82.2061 152.905 82.0558C153.259 81.9059 155.857 81.8731 156.383 81.9921C156.393 82.0029 156.403 82.013 156.412 82.0246C156.42 82.0359 156.43 82.0479 156.433 82.061C156.443 82.1031 156.457 82.1458 156.457 82.1883C156.46 85.8347 156.462 89.4812 156.465 93.1711Z" fill="#24268C"/>
<path d="M220.473 51.4724C221.994 55.7831 223.504 60.0615 225.013 64.3398C225.036 64.3405 225.058 64.3412 225.08 64.3419C225.094 64.2732 225.125 64.2038 225.121 64.136C225.099 63.6457 225.062 63.1561 225.044 62.6657C225.008 61.7417 224.997 60.8165 224.949 59.8932C224.778 56.6112 224.907 53.327 224.867 50.0441C224.865 49.8743 224.883 49.7043 224.891 49.5477C225.264 49.4299 227.804 49.4093 228.283 49.5092C228.292 49.52 228.302 49.5303 228.311 49.5416C228.32 49.5527 228.333 49.5641 228.335 49.5767C228.346 49.6478 228.364 49.7192 228.364 49.7905C228.366 58.0826 228.366 66.3747 228.366 74.6668C228.366 74.7385 228.356 74.8107 228.345 74.8819C228.341 74.9082 228.321 74.9321 228.291 74.9895C227.418 74.9895 226.528 74.9895 225.583 74.9895C223.792 69.8836 221.996 64.7623 220.201 59.641C220.17 59.6467 220.139 59.6523 220.108 59.658C220.169 62.2029 220.255 64.7475 220.285 67.2927C220.316 69.8488 220.292 72.4055 220.292 74.9917C219.062 74.9917 217.896 74.9917 216.668 74.9917C216.617 73.3002 216.652 71.6135 216.646 69.9277C216.639 68.2201 216.644 66.5125 216.644 64.8049C216.644 63.1117 216.644 61.4186 216.644 59.7254C216.644 58.0178 216.644 56.3102 216.644 54.6026C216.644 52.9137 216.644 51.2248 216.644 49.508C216.827 49.4843 216.952 49.455 217.077 49.4543C217.844 49.4499 218.611 49.4595 219.378 49.448C219.649 49.4439 219.796 49.5377 219.881 49.8055C220.057 50.356 220.266 50.8958 220.473 51.4724Z" fill="#24268C"/>
<path d="M147.665 68.5954C147.662 70.7469 147.671 72.8551 147.66 74.9923C146.321 74.9923 145.043 74.9923 143.772 74.9923C143.683 74.6309 143.663 50.0393 143.752 49.4922C143.891 49.4786 144.043 49.4511 144.195 49.4509C146.352 49.4482 148.508 49.4421 150.664 49.4562C151.051 49.4587 151.444 49.5195 151.823 49.603C153.189 49.9038 154.025 50.7844 154.364 52.1088C154.549 52.8325 154.654 53.5845 154.714 54.3303C154.784 55.2075 154.793 56.0923 154.778 56.9729C154.763 57.8549 154.659 58.7304 154.392 59.5802C154.15 60.3485 153.719 60.9499 152.972 61.2962C152.897 61.3309 152.832 61.3874 152.725 61.459C152.837 61.5289 152.913 61.5895 152.999 61.6279C153.589 61.892 153.953 62.3574 154.192 62.9413C154.542 63.7963 154.687 64.6969 154.719 65.6083C154.775 67.2119 154.783 68.8172 154.816 70.4216C154.842 71.7368 154.873 73.0518 154.905 74.3669C154.91 74.5635 154.934 74.7596 154.952 74.9907C153.641 74.9907 152.375 74.9907 151.069 74.9907C151.044 74.8667 151.005 74.7451 150.998 74.6218C150.98 74.2753 150.969 73.9282 150.966 73.5812C150.945 70.9055 150.934 68.2298 150.899 65.5543C150.893 65.0818 150.813 64.6057 150.723 64.1398C150.624 63.6237 150.28 63.3125 149.772 63.1786C149.107 63.0034 148.428 63.0161 147.775 62.9987C147.739 63.0312 147.728 63.0399 147.719 63.0502C147.709 63.0608 147.698 63.0718 147.694 63.0847C147.685 63.1121 147.675 63.1408 147.675 63.169C147.671 64.9633 147.668 66.7577 147.665 68.5954ZM147.665 56.7417C147.665 57.2619 147.658 57.7822 147.667 58.3022C147.676 58.8285 147.627 59.3589 147.699 59.8757C148.363 59.8757 148.97 59.9026 149.572 59.8675C150.099 59.8369 150.446 59.5223 150.609 59.0177C150.658 58.8671 150.702 58.7133 150.73 58.5578C150.944 57.3853 150.934 56.2003 150.885 55.0176C150.863 54.4736 150.78 53.9283 150.678 53.3925C150.596 52.96 150.285 52.6811 149.866 52.5731C149.161 52.3916 148.443 52.4269 147.665 52.4706C147.665 53.8894 147.665 55.2721 147.665 56.7417Z" fill="#24268C"/>
<path d="M193.343 106.966C193.343 98.6222 193.343 90.3201 193.343 81.9805C193.55 81.9602 193.704 81.9322 193.857 81.9321C196.013 81.9293 198.169 81.9211 200.325 81.9387C200.74 81.942 201.162 82.0153 201.566 82.1168C202.814 82.4305 203.591 83.2574 203.94 84.4714C204.106 85.0516 204.204 85.6562 204.279 86.2565C204.435 87.4933 204.441 88.7383 204.365 89.9809C204.32 90.7166 204.211 91.4462 203.974 92.1508C203.733 92.8697 203.29 93.4148 202.615 93.7674C202.528 93.8125 202.445 93.8641 202.321 93.9359C202.412 93.9952 202.464 94.0416 202.525 94.067C203.15 94.3279 203.547 94.8012 203.803 95.4143C204.084 96.0895 204.218 96.8014 204.279 97.5209C204.365 98.5422 204.433 99.5671 204.451 100.591C204.485 102.472 204.474 104.353 204.491 106.234C204.494 106.633 204.537 107.033 204.565 107.498C203.249 107.502 201.984 107.502 200.675 107.497C200.641 107.259 200.594 107.051 200.584 106.841C200.563 106.379 200.556 105.916 200.552 105.453C200.531 102.908 200.518 100.363 200.487 97.8175C200.482 97.4306 200.423 97.0398 200.347 96.6594C200.229 96.0699 199.834 95.7144 199.255 95.626C198.616 95.5285 197.966 95.4951 197.253 95.4272C197.249 97.4805 197.252 99.4728 197.251 101.465C197.251 103.457 197.252 105.45 197.25 107.471C195.933 107.471 194.682 107.471 193.38 107.471C193.368 107.313 193.356 107.16 193.343 106.966ZM197.278 90.9568C197.283 91.4153 197.287 91.8738 197.292 92.3663C197.932 92.3663 198.521 92.3925 199.108 92.3592C199.752 92.3226 200.136 91.93 200.278 91.3169C200.365 90.9382 200.443 90.5494 200.456 90.1628C200.489 89.18 200.503 88.1954 200.483 87.2124C200.474 86.7689 200.394 86.3214 200.296 85.8868C200.201 85.4638 199.915 85.1778 199.488 85.0593C198.781 84.8631 198.063 84.9221 197.288 84.937C197.268 86.9434 197.283 88.9068 197.278 90.9568Z" fill="#24268C"/>
<path d="M201.535 63.4718C201.535 65.0341 201.543 66.5531 201.532 68.0719C201.523 69.2314 201.402 70.3808 201.063 71.4941C200.933 71.9204 200.77 72.3441 200.562 72.7372C199.9 73.988 198.824 74.6799 197.45 74.9207C197.068 74.9876 196.674 75.0154 196.286 75.0175C194.521 75.0275 192.756 75.0219 190.991 75.0219C190.82 75.0219 190.648 75.0219 190.52 75.0219C190.467 74.9721 190.455 74.963 190.446 74.952C190.437 74.9413 190.427 74.9294 190.424 74.9165C190.413 74.8601 190.396 74.8032 190.396 74.7465C190.393 66.472 190.392 58.1976 190.392 49.9232C190.392 49.8365 190.395 49.7495 190.404 49.6633C190.408 49.6221 190.428 49.5824 190.455 49.4973C190.593 49.4831 190.746 49.454 190.899 49.4538C192.823 49.4508 194.747 49.4335 196.67 49.4591C197.796 49.4741 198.835 49.7928 199.715 50.5394C200.282 51.0204 200.657 51.6281 200.929 52.3081C201.299 53.231 201.487 54.1982 201.498 55.184C201.53 57.9319 201.525 60.6802 201.535 63.4718ZM197.599 59.6942C197.599 58.3783 197.624 57.0617 197.588 55.7468C197.571 55.1308 197.474 54.5103 197.347 53.9058C197.216 53.2839 196.873 52.7856 196.227 52.5801C195.624 52.3883 195.008 52.4303 194.401 52.4662C194.283 52.9554 194.303 71.6233 194.418 71.961C194.916 71.961 195.423 71.9928 195.924 71.9537C196.705 71.8928 197.211 71.4508 197.383 70.6894C197.494 70.2001 197.587 69.6941 197.59 69.195C197.608 66.0571 197.599 62.9191 197.599 59.6942Z" fill="#24268D"/>
<path d="M137.086 102.877C137.124 101.8 137.18 100.76 137.182 99.7206C137.191 94.0198 137.185 88.3189 137.187 82.6181C137.187 81.9356 137.105 81.9305 137.872 81.9308C138.755 81.9311 139.637 81.929 140.52 81.9328C140.689 81.9335 140.858 81.9565 141.061 81.9719C141.073 82.1584 141.092 82.313 141.092 82.4676C141.094 88.9064 141.102 95.3452 141.086 101.784C141.083 102.976 140.866 104.142 140.347 105.234C139.802 106.382 138.929 107.16 137.705 107.507C136.105 107.96 134.501 107.954 132.927 107.397C131.572 106.918 130.765 105.898 130.308 104.575C130.057 103.847 129.911 103.094 129.869 102.326C129.829 101.59 129.808 100.853 129.807 100.117C129.803 94.3 129.805 88.4835 129.805 82.6669C129.805 82.453 129.805 82.2392 129.805 82.0474C130.194 81.9041 133.186 81.8851 133.683 82.0143C133.693 82.2118 133.711 82.4238 133.711 82.6359C133.713 88.6117 133.707 94.5874 133.719 100.563C133.721 101.355 133.801 102.148 133.866 102.939C133.883 103.151 133.959 103.364 134.04 103.563C134.411 104.47 135.814 104.787 136.522 104.104C136.73 103.904 136.847 103.603 136.982 103.335C137.045 103.21 137.049 103.055 137.086 102.877Z" fill="#24268C"/>
<path d="M232.148 53.8155C232.283 53.0476 232.512 52.3508 232.857 51.6914C233.529 50.4071 234.569 49.6076 235.986 49.3009C236.959 49.0901 237.939 49.073 238.915 49.2625C240.766 49.622 241.939 50.7501 242.51 52.5207C242.827 53.5035 242.97 54.5166 242.96 55.5525C242.949 56.6665 242.958 57.7806 242.958 58.8947C242.958 59.0652 242.958 59.2357 242.958 59.3912C242.595 59.4943 239.888 59.5217 239.232 59.4355C239.22 59.2808 239.197 59.1146 239.197 58.9482C239.193 58.0367 239.213 57.1247 239.189 56.2139C239.17 55.5366 239.107 54.8598 239.041 54.185C239.018 53.9436 238.943 53.7037 238.866 53.4718C238.665 52.8696 238.256 52.5401 237.647 52.5435C237.023 52.547 236.51 52.7507 236.263 53.3906C236.108 53.7907 236.012 54.2207 235.946 54.646C235.875 55.1011 235.842 55.5663 235.841 56.0273C235.834 60.1652 235.829 64.3033 235.844 68.4412C235.847 69.1891 235.876 69.9452 236.084 70.6747C236.143 70.8816 236.225 71.0854 236.322 71.2777C236.779 72.185 238.137 72.1104 238.57 71.4794C238.745 71.2236 238.896 70.9181 238.947 70.6165C239.065 69.9067 239.161 69.187 239.185 68.4687C239.223 67.3125 239.194 66.1541 239.196 64.9966C239.196 64.8272 239.213 64.6578 239.223 64.4598C240.494 64.4598 241.73 64.4598 243.01 64.4598C243.022 64.6266 243.043 64.78 243.042 64.9333C243.036 66.3363 243.052 67.7402 243.007 69.1421C242.973 70.1983 242.801 71.2408 242.428 72.2399C241.767 74.0053 240.49 74.9969 238.634 75.2544C237.71 75.3826 236.787 75.3798 235.878 75.1486C234.389 74.7704 233.366 73.8347 232.713 72.4677C232.315 71.6364 232.104 70.7506 232.007 69.8423C231.937 69.183 231.906 68.5166 231.905 67.8532C231.896 64.0624 231.902 60.2717 231.899 56.481C231.898 55.5964 231.985 54.7213 232.148 53.8155Z" fill="#24268C"/>
<path d="M210.723 88.6343C210.947 89.4645 211.463 90.0734 211.998 90.6641C212.968 91.7353 213.968 92.78 214.924 93.864C215.945 95.0217 216.794 96.2942 217.293 97.7715C217.596 98.6683 217.737 99.5924 217.749 100.541C217.765 101.774 217.695 102.998 217.393 104.198C217.175 105.066 216.818 105.86 216.186 106.518C215.465 107.268 214.556 107.607 213.562 107.738C212.494 107.878 211.424 107.854 210.379 107.551C209.122 107.186 208.241 106.385 207.698 105.199C207.253 104.224 207.05 103.186 206.994 102.13C206.926 100.875 206.94 99.6153 206.922 98.3576C206.92 98.2603 206.947 98.1625 206.969 98.0049C208.187 97.9875 209.393 97.987 210.629 98.0049C210.638 98.2234 210.651 98.3801 210.651 98.5367C210.653 99.4485 210.632 100.361 210.661 101.272C210.679 101.847 210.769 102.42 210.831 102.994C210.84 103.08 210.871 103.163 210.891 103.247C211.157 104.343 212.024 104.597 212.883 104.376C213.276 104.275 213.554 104.033 213.69 103.655C213.777 103.412 213.846 103.157 213.879 102.902C213.989 102.056 214.042 101.208 213.929 100.356C213.801 99.3875 213.415 98.5198 212.865 97.727C212.544 97.2651 212.197 96.815 211.816 96.4022C211.042 95.5628 210.225 94.762 209.445 93.9273C208.632 93.0565 207.923 92.1108 207.463 90.9959C207.14 90.2119 206.949 89.3992 206.906 88.556C206.843 87.2796 206.911 86.0146 207.269 84.7749C207.772 83.0338 208.944 82.0524 210.697 81.7349C211.614 81.569 212.539 81.5674 213.462 81.6898C215.3 81.9334 216.431 82.9955 216.967 84.739C217.232 85.6017 217.339 86.4921 217.39 87.3862C217.434 88.1654 217.418 88.948 217.425 89.7292C217.427 89.885 217.412 90.041 217.405 90.1853C216.958 90.3011 214.192 90.2932 213.78 90.1675C213.78 90.0154 213.781 89.8455 213.779 89.6756C213.77 88.8366 213.786 87.9962 213.74 87.1592C213.716 86.7175 213.63 86.2662 213.489 85.847C213.27 85.1945 212.907 84.9716 212.252 84.9694C211.532 84.9671 211.038 85.2599 210.813 85.8667C210.578 86.4996 210.53 87.163 210.588 87.8318C210.611 88.0896 210.671 88.3441 210.723 88.6343Z" fill="#24268C"/>
<path d="M175.801 55.8334C175.751 55.1434 175.702 54.4963 175.648 53.8497C175.64 53.7501 175.606 53.6517 175.578 53.5547C175.359 52.8048 174.992 52.5018 174.296 52.4923C173.5 52.4814 172.963 52.8058 172.782 53.5261C172.419 54.975 172.474 56.3783 173.505 57.5806C174.191 58.3813 174.906 59.1584 175.621 59.9339C176.661 61.061 177.717 62.1721 178.487 63.5157C179.226 64.8034 179.677 66.1674 179.748 67.6634C179.82 69.1769 179.714 70.6663 179.293 72.123C178.763 73.9584 177.369 75.0979 175.464 75.2795C174.611 75.3607 173.761 75.3606 172.915 75.1997C171.323 74.8971 170.223 74.0009 169.617 72.497C169.317 71.7535 169.157 70.9772 169.057 70.1859C168.872 68.7157 168.956 67.2388 168.948 65.7642C168.948 65.7085 168.969 65.6526 168.979 65.6023C169.349 65.4906 172.188 65.4805 172.65 65.5971C172.658 65.7519 172.672 65.9205 172.674 66.0892C172.685 67.2321 172.673 68.3758 172.714 69.5176C172.73 69.9746 172.821 70.439 172.947 70.8798C173.226 71.8486 174.215 72.2554 175.13 71.8177C175.423 71.6777 175.629 71.4546 175.716 71.1547C175.82 70.7963 175.906 70.4268 175.945 70.0564C176.079 68.7615 176.046 67.4799 175.47 66.2745C175.044 65.3796 174.46 64.5895 173.78 63.8714C172.904 62.9479 172.008 62.0432 171.152 61.1024C170.288 60.1523 169.596 59.0853 169.234 57.8379C168.929 56.7884 168.831 55.7186 168.92 54.6223C168.981 53.8703 169.064 53.129 169.258 52.3988C169.721 50.6534 170.85 49.6206 172.609 49.2812C173.697 49.0711 174.795 49.0576 175.885 49.2859C177.295 49.5814 178.261 50.4119 178.799 51.7501C179.131 52.5782 179.296 53.445 179.353 54.3259C179.418 55.3204 179.421 56.319 179.447 57.3158C179.45 57.4438 179.432 57.5723 179.425 57.6907C179.071 57.8127 176.332 57.8321 175.819 57.7117C175.781 57.1109 175.809 56.4929 175.801 55.8334Z" fill="#24268C"/>
<path d="M131.788 75.0227C131.182 75.0227 130.62 75.0227 130.072 75.0227C129.961 74.6701 129.929 50.0842 130.034 49.4897C130.175 49.477 130.329 49.4513 130.482 49.4511C132.449 49.4486 134.417 49.432 136.384 49.4569C137.509 49.4711 138.556 49.7658 139.415 50.5499C139.873 50.9673 140.193 51.4761 140.428 52.0441C140.723 52.7578 140.897 53.506 140.97 54.2684C141.176 56.4328 141.192 58.5966 140.815 60.7481C140.697 61.4189 140.525 62.0751 140.213 62.6877C139.585 63.9233 138.596 64.6894 137.217 64.8506C136.374 64.9492 135.516 64.922 134.664 64.9482C134.451 64.9548 134.237 64.9492 133.98 64.9492C133.966 65.1894 133.945 65.3859 133.945 65.5825C133.943 68.5188 133.943 71.4552 133.943 74.3915C133.943 74.5763 133.943 74.7612 133.943 74.9627C133.559 75.0667 133.213 75.0115 132.872 75.0206C132.525 75.0299 132.178 75.0227 131.788 75.0227ZM137.185 57.2632C137.186 56.8442 137.191 56.4251 137.185 56.0062C137.172 55.1954 137.083 54.3943 136.864 53.6106C136.722 53.1039 136.428 52.718 135.921 52.5607C135.292 52.3654 134.643 52.4487 134.013 52.4572C133.913 52.9314 133.922 61.2823 134.025 61.6871C134.425 61.69 134.841 61.6986 135.256 61.6949C136.237 61.6861 136.716 61.3101 136.961 60.3654C136.982 60.2817 136.997 60.196 137.012 60.1108C137.176 59.1972 137.197 58.2746 137.185 57.2632Z" fill="#24268C"/>
<path d="M176.916 98.528C176.661 100.311 176.412 102.056 176.165 103.801C176.011 104.888 175.86 105.975 175.704 107.062C175.686 107.19 175.644 107.314 175.606 107.469C174.019 107.469 172.434 107.469 170.792 107.469C170.436 105.352 170.124 103.227 169.795 101.105C169.465 98.9779 169.129 96.8513 168.798 94.7239C168.47 92.6106 168.144 90.4967 167.818 88.383C167.491 86.2622 167.149 84.1435 166.843 82.0309C167.252 81.9115 170.002 81.8907 170.561 81.9951C171.057 85.2078 171.517 88.4492 171.973 91.6906C172.426 94.9154 172.827 98.1475 173.25 101.376C173.279 101.377 173.308 101.378 173.337 101.378C173.375 101.102 173.42 100.827 173.45 100.55C173.667 98.5245 173.869 96.4975 174.1 94.4737C174.331 92.4502 174.591 90.4301 174.834 88.4081C175.017 86.8876 175.194 85.3663 175.374 83.8455C175.436 83.3291 175.498 82.8127 175.565 82.297C175.607 81.977 175.632 81.9391 175.935 81.9368C176.948 81.9288 177.961 81.9332 178.974 81.9375C179.055 81.9379 179.137 81.9734 179.258 82.0019C179.203 82.4306 179.156 82.8427 179.097 83.2531C178.445 87.8023 177.791 92.3512 177.139 96.9003C177.063 97.4297 176.995 97.9602 176.916 98.528Z" fill="#24268C"/>
<path d="M205.007 51.4035C205.007 50.7544 205.007 50.1488 205.007 49.4987C205.2 49.4804 205.352 49.4533 205.505 49.4532C208.051 49.4505 210.597 49.4506 213.144 49.4529C213.299 49.453 213.453 49.4767 213.633 49.4915C213.633 50.6059 213.633 51.6827 213.633 52.7982C213.423 52.813 213.24 52.8366 213.057 52.8371C211.899 52.8407 210.742 52.8373 209.585 52.841C209.402 52.8416 209.219 52.8664 209.007 52.8822C209.007 55.3157 209.007 57.7107 209.007 60.1597C209.187 60.1795 209.366 60.2154 209.545 60.2163C210.645 60.2218 211.744 60.2177 212.844 60.2213C213.013 60.2218 213.182 60.2454 213.376 60.2601C213.376 61.3617 213.376 62.425 213.376 63.5506C212.634 63.5725 211.916 63.5588 211.199 63.5612C210.48 63.5637 209.761 63.5618 209.058 63.5618C208.951 63.9849 208.945 71.169 209.051 71.6378C209.826 71.6378 210.617 71.6378 211.407 71.6378C212.187 71.6378 212.967 71.6378 213.733 71.6378C213.865 72.0039 213.877 74.568 213.755 74.9994C210.874 74.9994 207.985 74.9994 205.043 74.9994C205.031 74.8266 205.009 74.6601 205.009 74.4937C205.006 72.8878 205.007 71.2819 205.007 69.676C205.007 63.5996 205.007 57.5233 205.007 51.4035Z" fill="#24268C"/>
<path d="M158.114 66.9478C158.114 61.1198 158.114 55.3353 158.114 49.5041C158.302 49.4839 158.454 49.4536 158.605 49.4534C161.137 49.4505 163.668 49.4505 166.2 49.4532C166.355 49.4533 166.509 49.4813 166.684 49.4983C166.684 50.6091 166.684 51.6879 166.684 52.8211C165.161 52.8678 163.661 52.8113 162.18 52.8528C162.063 53.2122 162.032 59.5661 162.14 60.1678C162.306 60.1839 162.486 60.2158 162.666 60.2166C163.751 60.2215 164.836 60.218 165.921 60.2208C166.092 60.2212 166.262 60.2394 166.421 60.2487C166.534 60.6177 166.545 63.0777 166.434 63.5493C165.021 63.5493 163.596 63.5493 162.189 63.5493C162.062 63.9008 162.019 70.8503 162.129 71.6105C162.284 71.6191 162.451 71.6362 162.618 71.6365C163.847 71.6388 165.077 71.6378 166.307 71.6378C166.476 71.6378 166.646 71.6378 166.8 71.6378C166.908 72.0485 166.917 74.5456 166.818 74.9921C163.943 74.9921 161.061 74.9921 158.114 74.9921C158.114 72.3057 158.114 69.6484 158.114 66.9478Z" fill="#24268C"/>
<path d="M185.642 89.2631C185.642 90.4045 185.642 91.5025 185.642 92.6473C185.847 92.6663 186.014 92.6945 186.18 92.6952C187.266 92.6993 188.351 92.6961 189.436 92.6991C189.622 92.6996 189.807 92.718 189.979 92.7274C190.097 93.0996 190.109 95.557 189.992 96.0275C188.579 96.0275 187.152 96.0275 185.741 96.0275C185.624 96.3859 185.594 103.487 185.703 104.099C186.477 104.131 187.267 104.109 188.056 104.113C188.836 104.117 189.616 104.114 190.382 104.114C190.497 104.469 190.52 106.919 190.426 107.423C190.104 107.52 182.252 107.54 181.777 107.445C181.69 107.109 181.669 82.5196 181.765 81.9782C181.902 81.9631 182.054 81.9321 182.206 81.9319C184.739 81.9289 187.272 81.9292 189.804 81.9312C189.946 81.9313 190.088 81.9517 190.261 81.9651C190.277 82.1182 190.301 82.2436 190.301 82.3692C190.305 83.1941 190.306 84.0191 190.302 84.8441C190.3 85.2853 190.28 85.3072 189.83 85.3092C188.644 85.3142 187.457 85.3101 186.27 85.3132C186.085 85.3137 185.9 85.3324 185.654 85.3461C185.631 86.0183 185.645 86.6642 185.642 87.3092C185.64 87.9461 185.642 88.5829 185.642 89.2631Z" fill="#24268D"/>
<path d="M242.69 89.2613C242.873 89.949 243.048 90.6018 243.223 91.2546C243.255 91.2583 243.287 91.2621 243.319 91.2658C243.364 91.124 243.417 90.9844 243.451 90.8401C244.119 88.0132 244.784 85.1858 245.449 82.3585C245.546 81.9452 245.549 81.9352 245.961 81.933C246.915 81.928 247.87 81.9299 248.825 81.933C248.951 81.9334 249.077 81.9574 249.244 81.9747C249.217 82.1312 249.206 82.2561 249.174 82.3756C247.967 86.9149 246.765 91.4553 245.545 95.9908C245.322 96.8207 245.199 97.6467 245.206 98.5102C245.231 101.302 245.216 104.094 245.214 106.887C245.214 107.071 245.199 107.255 245.189 107.469C243.89 107.469 242.626 107.469 241.314 107.469C241.302 107.279 241.281 107.097 241.28 106.916C241.278 104.08 241.269 101.244 241.286 98.409C241.29 97.6932 241.208 97.0057 241.012 96.316C240.011 92.7843 239.029 89.2472 238.042 85.7118C237.738 84.6262 237.436 83.5401 237.136 82.4537C237.098 82.317 237.071 82.1771 237.026 81.9823C237.215 81.9626 237.365 81.9339 237.515 81.9332C238.441 81.929 239.367 81.9285 240.293 81.9322C240.745 81.934 240.751 81.9378 240.873 82.3952C241.363 84.2388 241.849 86.0835 242.336 87.9277C242.451 88.3608 242.567 88.7935 242.69 89.2613Z" fill="#24268C"/>
<path d="M248.534 63.4415C247.236 58.7885 245.948 54.169 244.648 49.5058C244.838 49.4829 244.964 49.4552 245.09 49.4548C246.059 49.4511 247.029 49.4491 247.999 49.4545C248.384 49.4566 248.404 49.4774 248.502 49.848C249.252 52.685 250.001 55.5226 250.752 58.3597C250.788 58.4955 250.835 58.6284 250.876 58.7627C250.908 58.7666 250.94 58.7705 250.971 58.7744C251.013 58.6322 251.062 58.4916 251.096 58.3475C251.763 55.5196 252.428 52.6912 253.094 49.863C253.186 49.475 253.197 49.4571 253.576 49.4548C254.546 49.449 255.516 49.4511 256.485 49.4545C256.61 49.4549 256.735 49.4823 256.899 49.5018C256.86 49.6805 256.835 49.8198 256.799 49.956C255.517 54.7761 254.233 59.5955 252.957 64.4171C252.887 64.6785 252.862 64.9587 252.862 65.2302C252.855 68.2692 252.857 71.3083 252.857 74.3473C252.857 74.5472 252.857 74.7471 252.857 74.9322C252.501 75.0388 249.678 75.0701 248.96 74.9821C248.948 74.7984 248.923 74.6035 248.923 74.4086C248.92 71.7024 248.903 68.996 248.93 66.2901C248.94 65.3253 248.869 64.3868 248.534 63.4415Z" fill="#24268C"/>
<path d="M233.637 100.119C233.637 102.588 233.637 105.013 233.637 107.47C232.322 107.47 231.071 107.47 229.766 107.47C229.754 107.259 229.731 107.049 229.731 106.839C229.729 99.9109 229.729 92.9822 229.729 86.0536C229.729 85.8398 229.729 85.626 229.729 85.3724C229.513 85.3502 229.347 85.3199 229.18 85.3183C228.544 85.3123 227.907 85.3184 227.271 85.3134C227.102 85.3121 226.934 85.2874 226.744 85.2716C226.744 84.1645 226.744 83.0988 226.744 81.9822C226.903 81.9634 227.053 81.9302 227.203 81.93C230.14 81.927 233.076 81.9273 236.012 81.9292C236.154 81.9293 236.295 81.9509 236.424 81.9615C236.52 82.3212 236.537 84.7575 236.447 85.2732C236.307 85.2864 236.154 85.3118 236 85.3132C235.407 85.3182 234.814 85.3132 234.221 85.3174C234.051 85.3186 233.882 85.3385 233.747 85.3475C233.705 85.395 233.694 85.4049 233.686 85.4168C233.678 85.4283 233.67 85.4411 233.667 85.4545C233.658 85.4967 233.644 85.5394 233.644 85.5819C233.641 90.4131 233.639 95.2443 233.637 100.119Z" fill="#24268C"/>
<path d="M84.5423 79.3622C84.3662 79.1562 84.1888 78.9513 84.0144 78.744C83.7167 78.3903 83.4134 78.041 83.1275 77.6781C82.9794 77.4901 82.81 77.3547 82.5865 77.2648C81.7959 76.9466 81.0125 76.6104 80.221 76.2945C80.0636 76.2317 79.8831 76.2076 79.712 76.2018C79.0187 76.1784 78.3249 76.1674 77.6313 76.1564C77.5311 76.1548 77.43 76.1747 77.3301 76.1897C75.4565 76.4709 73.6055 76.8622 71.7646 77.3086C70.4867 77.6185 69.2017 77.8995 67.9186 78.1877C67.725 78.2312 67.5245 78.2436 67.2368 78.2826C67.3157 78.0588 67.3599 77.9003 67.4261 77.7516C67.7493 77.0254 68.0788 76.302 68.4053 75.5773C68.6287 75.0813 68.9777 74.7943 69.5443 74.6994C70.6556 74.513 71.7504 74.2292 72.8615 74.0412C74.3997 73.781 75.9408 73.5138 77.4915 73.3574C79.0602 73.1992 80.6067 73.4549 82.1126 73.9248C82.2222 73.9591 82.3257 74.0147 82.4297 74.0652C83.0018 74.3433 83.5766 74.6162 84.1439 74.9039C84.6718 75.1718 85.1833 75.4618 85.6463 75.8429C86.1596 76.2655 86.4689 76.2522 87.0155 75.8659C87.783 75.3234 88.5241 74.7272 89.4114 74.3932C90.7075 73.9052 91.9994 73.3765 93.428 73.4151C93.7014 73.4225 93.9758 73.3837 94.25 73.3746C96.0425 73.3156 97.7915 73.6387 99.5356 73.991C100.896 74.2657 102.251 74.5664 103.611 74.8397C103.879 74.8936 104.038 75.0055 104.148 75.2628C104.523 76.1397 104.924 77.0055 105.313 77.8767C105.359 77.9794 105.387 78.0899 105.442 78.2504C104.924 78.2513 104.462 78.1461 104.009 78.0334C101.371 77.377 98.7269 76.7505 96.0487 76.2798C95.6539 76.2104 95.2448 76.2168 94.8419 76.2006C94.3077 76.1791 93.7731 76.1613 93.2387 76.1601C93.0544 76.1596 92.8678 76.2043 92.6861 76.2454C92.4193 76.3057 92.1586 76.3939 91.8908 76.4482C90.4085 76.7484 89.283 77.5762 88.4189 78.7889C88.2346 79.0476 88.0751 79.324 87.8644 79.6245C87.8024 79.6771 87.7802 79.6974 87.758 79.7177C87.758 79.7177 87.7618 79.7129 87.7231 79.713C86.9951 79.7123 86.3056 79.7014 85.6166 79.7145C85.2111 79.7222 84.8483 79.6388 84.5423 79.3622Z" fill="#2E3091"/>
<path d="M164.281 96.9916C164.281 100.502 164.281 103.969 164.281 107.468C162.968 107.468 161.717 107.468 160.428 107.468C160.41 107.361 160.385 107.253 160.376 107.144C160.367 107.029 160.373 106.912 160.373 106.797C160.373 98.7541 160.373 90.7116 160.373 82.6691C160.373 82.4553 160.373 82.2415 160.373 82.0488C160.75 81.9037 163.721 81.8786 164.203 81.9964C164.213 82.0072 164.224 82.0171 164.232 82.0289C164.24 82.0405 164.248 82.0533 164.251 82.0666C164.26 82.1088 164.274 82.1516 164.274 82.1941C164.277 87.1121 164.279 92.0301 164.281 96.9916Z" fill="#24268C"/>
<path d="M224.461 105.156C224.461 105.947 224.461 106.694 224.461 107.471C223.145 107.471 221.893 107.471 220.59 107.471C220.578 107.257 220.555 107.047 220.555 106.837C220.553 99.1992 220.553 91.5617 220.553 83.9242C220.553 83.4324 220.551 82.9406 220.555 82.4488C220.556 82.3071 220.571 82.1655 220.579 82.0369C220.943 81.9033 223.931 81.8839 224.387 82.0013C224.396 82.0121 224.407 82.0219 224.415 82.0339C224.423 82.0456 224.43 82.0589 224.432 82.0725C224.441 82.1148 224.454 82.1575 224.454 82.2001C224.457 89.8376 224.459 97.4751 224.461 105.156Z" fill="#24268C"/>
<path d="M182.575 65.9885C182.578 60.5195 182.582 55.0938 182.587 49.6682C182.587 49.6273 182.609 49.5864 182.62 49.5489C182.967 49.4192 186.014 49.4049 186.443 49.5289C186.525 49.8652 186.545 74.4515 186.464 74.942C186.158 75.037 183.387 75.0709 182.615 74.9821C182.602 74.7985 182.577 74.6039 182.577 74.4093C182.574 71.6168 182.575 68.8244 182.575 65.9885Z" fill="#24268D"/>
<path d="M76.9 67.8974C78.0648 67.6734 79.2075 67.6217 80.3467 67.7008C81.0631 67.7506 81.7873 67.8714 82.4778 68.0668C83.5186 68.3613 84.5334 68.7476 85.5584 69.0974C86.0917 69.2793 86.6218 69.4705 87.1558 69.6503C87.7004 69.8336 88.2157 69.6589 88.7182 69.4805C89.262 69.2875 89.7922 69.0563 90.3273 68.8391C91.4103 68.3994 92.5646 68.2739 93.7017 68.0746C94.1137 68.0024 94.5304 67.9107 94.9451 67.9098C95.8481 67.9079 96.7568 67.9075 97.6527 68.0038C98.4096 68.0852 99.1554 68.2887 99.8991 68.4678C100.288 68.5614 100.519 68.8813 100.716 69.2053C101.137 69.8966 101.548 70.5944 101.959 71.2917C102.067 71.4758 102.162 71.6678 102.292 71.9091C102.13 71.8929 102.02 71.8944 101.916 71.8693C101.579 71.7876 101.24 71.7113 100.91 71.6056C99.7142 71.2221 98.4666 71.1766 97.2349 71.0276C96.8189 70.9772 96.4024 70.9297 95.985 70.8945C95.6834 70.8691 95.378 70.8379 95.0777 70.8587C94.2134 70.9187 93.3508 71.0033 92.4876 71.08C92.4319 71.0849 92.3774 71.1046 92.2713 71.1293C92.3558 71.3972 92.4355 71.6502 92.5297 71.949C92.4167 71.9949 92.3209 72.0586 92.2188 72.0714C90.9606 72.2297 89.7971 72.7323 88.5843 73.0523C87.8091 73.2569 87.005 73.3702 86.1869 73.217C85.9597 73.1745 85.7075 73.2599 85.4676 73.2927C85.3141 73.3136 85.1559 73.3873 85.0106 73.3655C84.3533 73.267 83.6992 73.1464 83.0454 73.026C82.8487 72.9898 82.6441 72.9472 82.5543 72.6781C82.7622 72.5138 82.9722 72.3417 83.1889 72.1784C83.3679 72.0434 83.4539 71.8759 83.4041 71.6523C83.357 71.4405 83.2001 71.3407 83.006 71.3007C81.8328 71.0592 80.6773 70.7103 79.4682 70.6805C77.8036 70.6394 76.1475 70.7177 74.5107 71.058C74.0156 71.161 73.5155 71.2409 73.0162 71.3225C72.8987 71.3417 72.7754 71.3254 72.6484 71.3254C72.7167 70.8948 73.4345 69.5886 73.7066 69.3373C74.52 68.5859 75.5397 68.2713 76.5673 67.9716C76.6643 67.9433 76.7645 67.9257 76.9 67.8974Z" fill="#2E3091"/>
<path d="M88.6448 63.6307C88.2541 63.3289 87.8943 63.0377 87.5234 62.7614C87.3271 62.6153 87.1231 62.47 86.9026 62.3673C85.6925 61.8038 84.4312 61.3714 83.1302 61.0901C82.4728 60.948 81.78 60.9724 81.1039 60.9129C80.702 60.8776 80.301 60.83 79.9008 60.7781C79.8045 60.7656 79.7133 60.714 79.5386 60.6514C79.753 60.5093 79.9017 60.3766 80.0752 60.3013C81.3645 59.7421 82.719 59.4766 84.1203 59.4365C84.9896 59.4116 85.8552 59.4533 86.7151 59.5882C88.008 59.7911 89.1951 60.2713 90.2731 61.0034C90.8819 61.4169 91.4597 61.877 92.0396 62.3313C92.2961 62.5323 92.5288 62.6436 92.867 62.5007C94.414 61.8472 95.9909 61.2937 97.6491 60.9723C99.1501 60.6814 100.647 60.668 102.126 60.9956C103.18 61.2292 104.213 61.5849 105.133 62.1919C105.169 62.216 105.207 62.2375 105.276 62.2788C105.001 62.7434 104.623 62.9648 104.136 62.9906C103.732 63.0119 103.325 63.0145 102.921 62.9934C101.997 62.945 101.075 62.8735 100.152 62.8178C99.1718 62.7585 98.1869 62.7438 97.2112 62.6402C96.364 62.5503 95.5789 62.7828 94.7765 62.9533C94.5732 62.9965 94.3936 63.0791 94.2729 63.3276C94.385 63.4032 94.4889 63.5203 94.6128 63.5481C95.0312 63.642 95.4542 63.7435 95.88 63.7703C96.7592 63.8256 97.6414 63.832 98.5222 63.8646C98.7242 63.872 98.9191 63.9179 99.0914 64.1215C98.864 64.225 98.6623 64.3189 98.4589 64.409C97.4013 64.8774 96.3419 65.3415 95.2862 65.8142C94.8042 66.03 94.292 65.9617 93.7919 65.987C92.8926 66.0325 91.9955 66.1088 91.1528 66.4357C90.6039 66.6487 90.0894 66.9521 89.5644 67.2242C89.3613 67.3294 89.1715 67.4602 88.9602 67.5888C88.3252 67.0551 87.7089 66.5372 87.0955 66.0217C87.2357 65.7027 87.2651 65.6854 87.6137 65.6936C88.1629 65.7065 88.7122 65.7266 89.2614 65.7263C89.4759 65.7262 89.6919 65.6882 89.9043 65.6508C90.2552 65.5892 90.6037 65.5141 90.9719 65.4409C90.9109 65.1406 90.8643 64.849 90.547 64.7286C89.8627 64.4689 89.2842 64.0288 88.6448 63.6307Z" fill="#2D2F90"/>
<path d="M104.487 53.885C104.274 54.038 104.067 54.1526 103.905 54.3132C103.635 54.5824 103.676 54.7413 104.021 54.8904C104.141 54.9418 104.274 54.9654 104.385 55.029C104.46 55.0718 104.509 55.1623 104.569 55.2315C104.494 55.2866 104.426 55.3769 104.345 55.3906C103.984 55.4512 103.66 55.5954 103.328 55.7454C102.467 56.1347 101.859 56.8092 101.267 57.5017C101.046 57.7599 100.81 57.9232 100.468 57.9518C99.0735 58.0683 97.842 58.6135 96.7232 59.4274C96.3119 59.7265 95.8824 59.8508 95.3803 59.7539C95.0973 59.6993 94.806 59.6893 94.5216 59.6407C94.3494 59.6112 94.1499 59.5475 94.1465 59.3434C94.1445 59.2243 94.2399 59.064 94.341 58.991C94.5594 58.8335 94.7978 58.6876 95.0495 58.5961C95.5223 58.424 96.0103 58.2939 96.4864 58.1481C96.4201 57.7507 96.4205 57.7484 96.0708 57.6731C95.2371 57.4937 94.3982 57.3358 93.5701 57.1337C92.5432 56.8832 91.5412 56.5661 90.6534 55.955C89.5362 55.1861 88.3047 54.6413 87.0079 54.2666C86.4748 54.1126 85.8999 54.1059 85.3456 54.0214C85.2164 54.0017 85.0279 53.9728 84.9823 53.8868C84.8902 53.7131 85.0059 53.5581 85.1743 53.4623C85.2244 53.4338 85.2744 53.3955 85.3288 53.3859C85.8829 53.2874 86.4359 53.1312 86.993 53.1145C87.7413 53.092 88.4926 53.1991 89.2432 53.2111C89.7793 53.2197 90.2752 53.3384 90.7381 53.5939C91.3864 53.9518 92.1064 54.0394 92.8151 54.176C94.0635 54.4168 95.3104 54.6652 96.559 54.9044C96.871 54.9641 97.1874 55.0009 97.5019 55.0477C97.9727 55.1177 98.4513 55.1545 98.9124 55.2647C99.6043 55.4301 100.195 55.2685 100.738 54.8374C101.575 54.172 102.432 53.5303 103.25 52.8421C104.242 52.0067 105.384 51.5393 106.647 51.3185C107.388 51.1891 108.122 51.022 108.863 50.9001C109.26 50.8349 109.667 50.8181 110.069 50.8031C110.22 50.7975 110.372 50.8589 110.531 50.8912C110.497 51.1382 110.331 51.2018 110.17 51.2623C109.9 51.364 109.627 51.461 109.353 51.5546C107.65 52.137 106.031 52.8962 104.487 53.885Z" fill="#2D2F90"/>
<path d="M103.468 49.1011C104.01 49.0668 104.485 49.1539 104.941 49.3706C105.36 49.5695 105.809 49.5668 106.26 49.505C106.724 49.4412 107.108 49.5824 107.415 49.9378C107.017 50.3832 106.623 50.4744 106.117 50.3321C105.895 50.2697 105.627 50.2811 105.4 50.3397C104.688 50.5241 103.985 50.7468 103.255 50.9617C102.87 50.5293 102.336 50.6684 101.847 50.6399C101.46 50.6174 101.069 50.6598 100.679 50.6624C100.566 50.6631 100.443 50.6478 100.341 50.6027C99.6865 50.3132 98.9954 50.1685 98.2943 50.0578C98.2104 50.0446 98.1294 50.0125 97.9821 49.9708C98.0699 49.8013 98.1425 49.6545 98.221 49.5109C98.4609 49.0722 98.4051 48.8693 97.9429 48.7261C97.4754 48.5812 96.9916 48.4893 96.517 48.3663C95.9716 48.225 95.4179 48.1052 94.8877 47.9191C94.4709 47.7728 94.1407 47.4901 94.0402 47.0162C93.978 46.7224 93.905 46.4309 93.8384 46.1446C94.071 46.0133 94.2327 46.0921 94.3662 46.245C94.7432 46.6772 95.2485 46.8852 95.7715 47.0651C96.5397 47.3294 97.3282 47.4989 98.1368 47.5771C98.6893 47.6306 99.1984 47.8001 99.6985 48.0535C100.406 48.4118 101.144 48.7105 101.876 49.0179C102.03 49.0826 102.214 49.0911 102.385 49.0969C102.732 49.1087 103.079 49.1009 103.468 49.1011Z" fill="#2D2F8F"/>
<path d="M98.8513 100.834C98.9239 101.132 98.9873 101.397 99.0508 101.661C99.0835 101.664 99.1162 101.667 99.1489 101.669C99.338 100.91 99.5271 100.15 99.7214 99.3691C100.016 99.3691 100.284 99.3691 100.612 99.3691C100.802 100.113 100.995 100.872 101.189 101.631C101.218 101.631 101.248 101.632 101.277 101.633C101.486 100.878 101.694 100.123 101.905 99.3587C102.067 99.3511 102.196 99.3369 102.324 99.3407C102.654 99.3507 102.739 99.4557 102.664 99.7747C102.568 100.183 102.458 100.587 102.359 100.995C102.254 101.43 102.157 101.868 102.054 102.304C101.911 102.909 101.789 102.993 101.182 102.909C101.098 102.897 101.013 102.885 100.927 102.873C100.505 102.127 100.466 101.27 100.11 100.488C100.02 100.889 99.9274 101.289 99.8384 101.69C99.7758 101.973 99.7255 102.258 99.6556 102.538C99.5712 102.876 99.4982 102.931 99.1432 102.944C99.0284 102.948 98.9124 102.935 98.7977 102.923C98.516 102.894 98.3608 102.728 98.297 102.459C98.0837 101.559 97.8658 100.659 97.6534 99.759C97.582 99.4562 97.6538 99.3634 97.9568 99.3402C98.3941 99.3068 98.5178 99.3989 98.6165 99.8282C98.6909 100.152 98.7669 100.476 98.8513 100.834Z" fill="#2B2D8E"/>
<path d="M69.8414 100.937C70.0603 100.463 70.2686 100.018 70.4692 99.5703C70.5429 99.4058 70.6505 99.3371 70.8366 99.334C71.8528 99.317 71.7048 99.3971 71.7091 100.17C71.7132 100.907 71.71 101.644 71.7099 102.381C71.7099 102.537 71.7099 102.693 71.7099 102.848C71.5802 102.885 71.4996 102.918 71.416 102.93C70.9625 102.993 70.8421 102.89 70.8394 102.436C70.8361 101.875 70.8386 101.314 70.8386 100.687C70.4951 100.9 70.4793 101.224 70.3528 101.476C70.2245 101.732 70.1199 102 70.0118 102.247C69.5067 102.314 69.4141 102.272 69.2316 101.876C69.1046 101.601 68.9924 101.319 68.8682 101.042C68.8118 100.917 68.7424 100.797 68.6086 100.686C68.6002 100.823 68.5856 100.959 68.5847 101.096C68.5816 101.559 68.5874 102.021 68.5819 102.484C68.5773 102.874 68.4741 102.969 68.0882 102.939C67.9771 102.931 67.8684 102.891 67.7602 102.866C67.7422 102.785 67.7191 102.73 67.7189 102.674C67.7156 101.677 67.7105 100.68 67.7169 99.6828C67.7189 99.3847 67.7962 99.3067 68.0824 99.3462C68.3514 99.3833 68.6204 99.4577 68.8733 99.5566C68.9734 99.5957 69.0502 99.7358 69.1029 99.8465C69.2706 100.198 69.4191 100.559 69.5814 100.913C69.634 101.028 69.7078 101.127 69.8414 100.937Z" fill="#2C2E8E"/>
<path d="M89.5675 101.335C89.568 100.801 89.5617 100.309 89.5712 99.818C89.5796 99.3886 89.6326 99.3663 90.0448 99.3325C90.4296 99.301 90.6696 99.4383 90.8312 99.7883C90.9882 100.128 91.1783 100.454 91.3711 100.776C91.4618 100.927 91.5928 101.054 91.7614 101.261C92.0578 100.597 91.7841 99.9432 92.051 99.361C92.269 99.361 92.4816 99.361 92.7493 99.361C92.7696 99.5452 92.8051 99.7255 92.8066 99.9061C92.8134 100.686 92.816 101.467 92.8084 102.247C92.8038 102.714 92.6795 102.92 92.407 102.974C92.0952 103.035 91.6578 102.819 91.5004 102.524C91.2488 102.053 90.9999 101.58 90.747 101.109C90.7011 101.024 90.6416 100.946 90.545 100.798C90.5083 100.958 90.4722 101.045 90.4708 101.133C90.4643 101.552 90.4694 101.971 90.4662 102.39C90.4623 102.905 90.3663 102.989 89.8442 102.937C89.7738 102.93 89.7054 102.904 89.5738 102.872C89.5717 102.378 89.5696 101.878 89.5675 101.335Z" fill="#2D2F8F"/>
<path d="M64.4242 102.945C63.9885 102.963 63.7909 102.684 63.6318 102.39C63.4397 102.035 63.2896 101.658 63.1148 101.294C63.0434 101.145 62.9804 100.982 62.7411 100.861C62.7411 101.528 62.7411 102.138 62.7411 102.743C62.6038 102.789 62.5251 102.826 62.4424 102.84C61.9683 102.922 61.8727 102.851 61.869 102.365C61.8619 101.44 61.8681 100.515 61.8706 99.59C61.8708 99.5332 61.8874 99.4765 61.899 99.4033C62.1909 99.2831 62.4933 99.3102 62.7802 99.3963C62.8957 99.4309 63.0045 99.5656 63.0685 99.6812C63.3621 100.212 63.6378 100.753 63.9225 101.288C63.9814 101.399 64.0512 101.504 64.1644 101.693C64.2013 101.514 64.2345 101.426 64.2354 101.338C64.241 100.832 64.2362 100.326 64.2403 99.8198C64.244 99.3502 64.269 99.3279 64.7307 99.3388C64.8015 99.3405 64.8721 99.3519 64.9838 99.3629C65.0156 99.543 65.071 99.7224 65.0753 99.9031C65.0946 100.712 65.1089 101.521 65.1059 102.33C65.104 102.862 65.0182 102.929 64.4242 102.945Z" fill="#2C2E8E"/>
<path d="M72.4552 100.692C72.6095 100.319 72.7495 99.9747 72.9135 99.6426C72.9509 99.5671 73.0649 99.5057 73.1549 99.4836C73.7609 99.3348 74.3699 99.2503 74.9911 99.4115C75.3928 99.5157 75.6983 99.7345 75.8767 100.109C76.2138 100.818 76.2169 101.527 75.8484 102.227C75.7099 102.49 75.4974 102.681 75.2305 102.812C74.5442 103.149 73.8588 103.115 73.1978 102.762C72.7069 102.5 72.542 102.015 72.4744 101.5C72.4409 101.245 72.4564 100.984 72.4552 100.692ZM74.334 100.001C73.5951 100.108 73.2773 100.51 73.368 101.246C73.3907 101.43 73.4399 101.614 73.5019 101.789C73.6391 102.177 73.9388 102.356 74.3406 102.312C74.8097 102.259 75.0343 102.069 75.0737 101.613C75.0995 101.315 75.0637 101.011 75.0409 100.71C75.011 100.317 74.7996 100.076 74.334 100.001Z" fill="#2C2E8E"/>
<path d="M112.927 102.265C112.543 102.74 112.037 102.891 111.493 102.928C111.091 102.956 110.685 102.945 110.282 102.929C110.095 102.921 109.905 102.873 109.907 102.608C109.913 101.569 109.913 100.53 109.918 99.4908C109.918 99.4647 109.938 99.4386 109.975 99.3507C110.346 99.3482 110.743 99.341 111.141 99.3449C111.299 99.3465 111.456 99.3843 111.615 99.386C112.832 99.3992 113.692 100.717 113.079 102.017C113.043 102.095 112.99 102.165 112.927 102.265ZM111.106 102.245C111.445 102.297 111.76 102.175 111.975 101.956C112.324 101.6 112.503 101.1 112.08 100.461C111.805 100.046 111.401 99.9598 110.787 100.225C110.787 100.746 110.776 101.289 110.793 101.832C110.798 101.992 110.811 102.19 111.106 102.245Z" fill="#2B2D8E"/>
<path d="M76.8033 101.162C76.812 100.546 76.784 99.9711 76.824 99.3686C77.5176 99.3339 78.162 99.2892 78.8053 99.4031C79.1535 99.4648 79.4708 99.6249 79.5492 99.981C79.6359 100.375 79.6355 100.792 79.2695 101.095C79.226 101.131 79.1911 101.177 79.1424 101.229C79.3281 101.8 79.9151 102.177 79.9412 102.865C79.6278 102.865 79.3345 102.865 79.0375 102.865C78.8841 102.566 78.7444 102.265 78.5796 101.979C78.4252 101.711 78.2037 101.543 77.8348 101.631C77.8199 101.74 77.7975 101.849 77.7917 101.959C77.7832 102.117 77.7904 102.277 77.7844 102.436C77.7625 103.007 77.4644 103.008 77.0551 102.871C76.8642 102.808 76.8016 102.657 76.8036 102.463C76.8079 102.044 76.8039 101.624 76.8033 101.162ZM77.7883 100.373C77.7883 100.541 77.7883 100.71 77.7883 100.911C77.9559 100.921 78.0983 100.949 78.2366 100.935C78.59 100.9 78.7377 100.659 78.6298 100.321C78.5638 100.114 78.3571 100 78.0712 100.003C77.8676 100.004 77.7874 100.111 77.7883 100.373Z" fill="#2C2E8E"/>
<path d="M52.6174 102.71C52.3217 102.477 52.1493 102.207 52.1183 101.854C52.1083 101.739 52.0846 101.623 52.0457 101.516C51.8349 100.933 52.0061 100.411 52.2863 99.9036C52.4775 99.5571 52.744 99.363 53.1653 99.4145C53.4063 99.4439 53.6381 99.412 53.8797 99.3126C54.3196 99.1316 54.8734 99.4142 55.1387 99.9368C54.9654 99.9707 54.8064 100.02 54.6451 100.029C54.386 100.045 54.1254 100.032 53.8655 100.035C53.2844 100.042 52.9346 100.393 52.9253 100.98C52.923 101.124 52.9189 101.27 52.9359 101.413C53.0212 102.128 53.6093 102.587 54.4004 102.173C54.4004 102.016 54.4004 101.847 54.4004 101.655C54.3104 101.624 54.2205 101.582 54.1259 101.561C53.9194 101.516 53.8937 101.375 53.9146 101.2C53.9341 101.037 54.037 100.991 54.1857 100.988C54.3729 100.983 54.5601 100.953 54.7467 100.958C54.931 100.964 55.1146 100.998 55.3377 101.025C55.352 101.482 55.3852 101.926 55.3732 102.369C55.3644 102.693 55.1156 102.845 54.8312 102.902C54.1794 103.031 53.523 103.162 52.8897 102.814C52.8148 102.773 52.7285 102.752 52.6174 102.71Z" fill="#2C2E8E"/>
<path d="M94.4794 102.873C94.0417 102.644 93.7778 102.33 93.7149 101.856C93.6867 101.643 93.6119 101.436 93.5633 101.226C93.3443 100.273 94.078 99.3432 95.0507 99.3377C95.094 99.3375 95.1374 99.3387 95.1807 99.3375C96.4577 99.3043 96.4291 99.4926 97.0233 100.419C97.1008 100.54 97.1309 100.72 97.1158 100.865C97.0758 101.252 96.9854 101.633 96.9403 102.019C96.8833 102.507 96.5177 102.745 96.1378 102.818C95.6093 102.92 95.0524 102.872 94.4794 102.873ZM96.1966 101.048C96.173 100.891 96.1699 100.728 96.1217 100.58C95.9831 100.154 95.7333 99.9805 95.3209 99.9972C94.8847 100.015 94.6456 100.223 94.5158 100.651C94.4086 101.004 94.5015 101.34 94.5674 101.678C94.6517 102.11 94.9086 102.326 95.3026 102.334C95.7355 102.343 96.0681 102.102 96.1571 101.686C96.196 101.505 96.1852 101.313 96.1966 101.048Z" fill="#2C2E8E"/>
<path d="M86.7667 100.522C87.0661 100.238 87.3427 99.9634 87.5971 99.6698C87.8117 99.422 88.0546 99.2911 88.3903 99.3343C88.5565 99.3558 88.7279 99.3381 88.8969 99.3381C88.9117 99.3659 88.9265 99.3937 88.9414 99.4215C88.7072 99.6832 88.4773 99.9488 88.2377 100.205C88.0501 100.406 87.8462 100.591 87.6575 100.791C87.4284 101.034 87.4259 101.127 87.6689 101.37C88.0057 101.708 88.3608 102.028 88.697 102.366C88.8359 102.506 88.9459 102.674 89.0862 102.851C88.8038 102.996 88.5555 102.975 88.3287 102.891C87.9632 102.757 87.6146 102.589 87.3537 102.271C87.183 102.062 86.9654 101.892 86.7384 101.676C86.5579 102.079 86.7149 102.463 86.5988 102.858C86.3472 102.858 86.0828 102.858 85.8157 102.858C85.6286 102.429 85.64 100.2 85.8424 99.3686C86.0741 99.3686 86.3141 99.3686 86.6094 99.3686C86.6214 99.5567 86.6272 99.7522 86.6481 99.9461C86.6689 100.14 86.7049 100.331 86.7667 100.522Z" fill="#2D2F8F"/>
<path d="M116.532 100.972C116.669 100.964 116.77 100.956 116.87 100.962C117.073 100.975 117.185 101.069 117.186 101.29C117.186 101.651 117.198 102.013 117.215 102.374C117.225 102.576 117.136 102.694 116.956 102.774C116.352 103.041 115.745 103.162 115.117 102.849C115.066 102.823 115.011 102.801 114.955 102.79C114.306 102.659 113.983 102.187 113.811 101.615C113.608 100.941 113.828 99.7451 114.862 99.5473C115.426 99.4396 116.008 99.4118 116.584 99.3949C116.989 99.383 117.142 99.6794 117.035 100.173C116.697 100.127 116.355 100.096 116.02 100.031C115.22 99.8749 114.564 100.535 114.725 101.337C114.795 101.687 114.958 101.95 115.298 102.095C115.47 102.168 115.627 102.276 115.797 102.355C116.065 102.482 116.217 102.446 116.314 102.25C116.468 101.941 116.417 101.625 116.154 101.544C115.9 101.466 115.786 101.351 115.835 101.031C116.052 101.013 116.274 100.995 116.532 100.972Z" fill="#2C2E8E"/>
<path d="M57.1224 99.4007C57.1743 99.3656 57.2014 99.3519 57.2295 99.3496C58.1516 99.275 58.1963 99.2971 58.516 100.159C58.6865 100.619 58.8297 101.088 58.989 101.552C59.0497 101.729 59.121 101.902 59.1869 102.077C59.2376 102.212 59.3076 102.343 59.3336 102.482C59.3951 102.811 59.2771 102.934 58.9411 102.916C58.8407 102.91 58.7405 102.899 58.6434 102.891C58.6171 102.872 58.58 102.859 58.5733 102.837C58.4213 102.342 58.0409 102.296 57.6109 102.341C57.3963 102.364 57.181 102.381 56.9607 102.4C56.8211 102.595 56.7538 102.842 56.4624 102.9C56.0578 102.98 55.8368 102.776 55.9624 102.374C56.0957 101.947 56.252 101.527 56.4143 101.111C56.6342 100.547 56.8694 99.9882 57.1224 99.4007ZM57.6627 100.393C57.3429 100.717 57.3502 101.157 57.1899 101.563C57.5204 101.654 57.7925 101.708 58.0898 101.54C57.9571 101.163 57.8285 100.798 57.6627 100.393Z" fill="#2B2D8E"/>
<path d="M83.0519 101.009C83.0165 101.418 82.9961 101.449 82.6613 101.466C82.3044 101.484 81.9467 101.485 81.5596 101.494C81.5596 101.609 81.5525 101.677 81.5607 101.743C81.6221 102.242 81.6231 102.241 82.112 102.248C82.3866 102.252 82.6613 102.255 82.9358 102.263C82.9914 102.265 83.0462 102.293 83.1344 102.318C83.1344 102.481 83.1344 102.647 83.1344 102.85C83.0196 102.879 82.8974 102.937 82.7757 102.937C82.1692 102.933 81.5629 102.908 80.9565 102.903C80.7305 102.901 80.6443 102.786 80.6392 102.584C80.6308 102.251 80.6247 101.919 80.6236 101.586C80.6214 100.979 80.6184 100.371 80.6258 99.7639C80.6306 99.3722 80.6619 99.3441 81.0501 99.3395C81.5129 99.3341 81.9759 99.3356 82.4387 99.3389C82.9991 99.3428 83.0332 99.3768 83.0996 99.9949C82.6438 100.195 82.1378 99.995 81.6288 100.139C81.6288 100.316 81.6288 100.504 81.6288 100.751C81.9684 100.758 82.2959 100.764 82.6233 100.774C82.7923 100.78 82.9811 100.752 83.0519 101.009Z" fill="#2C2E8E"/>
<path d="M119.025 99.3371C119.386 99.3372 119.704 99.3338 120.022 99.3381C120.482 99.3444 120.524 99.3882 120.51 99.8324C120.508 99.9037 120.493 99.9745 120.476 100.099C120.008 100.099 119.539 100.099 119.023 100.099C118.997 100.32 118.977 100.492 118.95 100.717C119.46 100.717 119.917 100.717 120.365 100.717C120.406 100.827 120.442 100.892 120.455 100.961C120.518 101.279 120.414 101.434 120.094 101.461C119.835 101.482 119.574 101.467 119.314 101.476C119.202 101.48 119.091 101.504 118.939 101.525C118.972 101.759 119.002 101.966 119.038 102.224C119.536 102.239 120.02 102.254 120.547 102.27C120.547 102.476 120.547 102.651 120.547 102.845C120.455 102.875 120.375 102.923 120.295 102.924C119.645 102.934 118.996 102.939 118.346 102.939C118.088 102.939 118.051 102.759 118.052 102.552C118.053 101.974 118.051 101.396 118.051 100.818C118.051 100.5 118.046 100.182 118.054 99.8645C118.057 99.7094 118.084 99.555 118.106 99.3495C118.415 99.3451 118.699 99.3411 119.025 99.3371Z" fill="#2C2E8E"/>
<path d="M108.573 100.739C108.926 100.888 108.926 100.888 108.796 101.389C108.584 101.397 108.357 101.401 108.131 101.416C107.921 101.43 107.712 101.455 107.484 101.477C107.484 101.788 107.484 102.044 107.484 102.332C107.992 102.375 108.49 102.418 108.988 102.461C108.942 102.864 108.887 102.938 108.563 102.942C107.986 102.948 107.409 102.937 106.832 102.927C106.648 102.924 106.539 102.822 106.514 102.636C106.512 102.622 106.509 102.607 106.509 102.593C106.522 101.553 106.536 100.512 106.552 99.4721C106.552 99.4472 106.577 99.4226 106.608 99.3672C107.363 99.3672 108.135 99.3672 108.946 99.3672C108.946 99.5034 108.959 99.6163 108.944 99.7253C108.905 100.007 108.841 100.065 108.552 100.078C108.321 100.088 108.089 100.079 107.858 100.084C107.716 100.087 107.575 100.102 107.369 100.117C107.475 100.372 107.561 100.577 107.656 100.807C107.963 100.783 108.249 100.76 108.573 100.739Z" fill="#2B2D8D"/>
<path d="M105.912 102.555C105.875 102.851 105.72 102.951 105.462 102.947C104.972 102.937 104.481 102.947 103.991 102.941C103.862 102.939 103.732 102.916 103.607 102.884C103.44 102.841 103.323 102.737 103.324 102.55C103.329 101.527 103.337 100.503 103.346 99.4803C103.346 99.4555 103.372 99.4309 103.406 99.3711C103.652 99.3711 103.918 99.3711 104.234 99.3711C104.248 99.5063 104.272 99.6436 104.274 99.7811C104.279 100.228 104.276 100.675 104.276 101.122C104.276 101.223 104.274 101.324 104.278 101.425C104.309 102.202 104.351 102.242 105.13 102.245C105.26 102.246 105.39 102.243 105.519 102.252C105.7 102.264 105.862 102.313 105.912 102.555Z" fill="#2B2D8D"/>
<path d="M60.9104 99.5513C60.9238 100.412 60.9345 101.232 60.9448 102.053C60.9457 102.125 60.9459 102.197 60.9443 102.269C60.9297 102.942 60.6997 103.086 59.9765 102.82C59.9698 102.154 59.9597 101.466 59.9576 100.778C59.9567 100.49 59.9704 100.202 59.9817 99.9148C60.0007 99.4323 60.0881 99.3534 60.5723 99.3663C60.7048 99.3698 60.8739 99.2825 60.9104 99.5513Z" fill="#343692"/>
<path d="M84.541 79.3965C84.8479 79.6408 85.2107 79.7242 85.6162 79.7164C86.3052 79.7033 86.9947 79.7143 87.725 79.7169C87.6136 79.9018 87.4023 79.9381 87.1837 79.9394C86.5357 79.9431 85.8876 79.945 85.2396 79.9386C84.8916 79.9352 84.6212 79.8074 84.541 79.3965Z" fill="#3E3F98"/>
<path d="M87.7808 79.7104C87.78 79.6971 87.8025 79.6766 87.8416 79.6406C87.8402 79.6512 87.8221 79.6772 87.7808 79.7104Z" fill="#3E3F98"/>
</g>
<defs>
<clipPath id="clip0_286_7451">
<rect width="224.395" height="65" fill="white" transform="translate(38 43.5859)"/>
</clipPath>
</defs>
</svg>
