<svg width="170" height="39" viewBox="0 0 170 39" fill="none" xmlns="http://www.w3.org/2000/svg">
<path d="M-49.0982 18.3969L-52 29.2178H-37.6397L-31.7636 7.20522L-49.0982 18.3969ZM0.784264 8.87023C0.433243 10.1749 -0.243065 11.1331 -1.25166 11.7451C-2.25793 12.3559 -3.6702 12.6624 -5.49317 12.6624H-11.285L-9.25144 5.08037H-3.45959C-1.63896 5.08037 -0.388149 5.38459 0.290493 6.00473C0.969135 6.62486 1.13294 7.57262 0.784264 8.8831M6.78088 8.71929C7.51802 5.98132 7.2138 3.8752 5.86588 2.40091C4.5203 0.938316 2.1591 0.201172 -1.21071 0.201172H-14.1365L-21.9175 29.2306H-15.6377L-12.5019 17.5299H-8.38325C-7.45889 17.5299 -6.73111 17.682 -6.19989 17.9746C-5.66751 18.2788 -5.35511 18.8053 -5.25916 19.5659L-4.13823 29.2306H2.58968L1.49918 20.2211C1.27686 18.2086 0.356014 17.0268 -1.2622 16.6758C0.80064 16.079 2.52884 15.0845 3.92122 13.7038C5.3039 12.3332 6.29174 10.6154 6.78088 8.73099M22.0456 18.8404C21.5191 20.8061 20.7117 22.2921 19.6201 23.3335C18.5272 24.3748 17.2214 24.8897 15.698 24.8897C14.1465 24.8897 13.0946 24.3865 12.5388 23.3686C11.9818 22.3506 11.9631 20.8763 12.4803 18.9457C12.9975 17.0151 13.8224 15.5057 14.9573 14.4175C16.0923 13.3294 17.4192 12.7853 18.9426 12.7853C20.4637 12.7853 21.5051 13.3118 22.0316 14.3567C22.5698 15.4062 22.5815 16.9074 22.055 18.8615L22.0456 18.8404ZM24.7976 8.56718L24.0113 11.5041C23.672 10.451 23.0133 9.60855 22.0398 8.97671C21.0639 8.35657 19.8564 8.04065 18.4161 8.04065C16.6493 8.04065 14.9527 8.49698 13.3263 9.40963C11.6999 10.3223 10.2724 11.6094 9.05549 13.2709C7.83862 14.9324 6.94937 16.8162 6.37603 18.934C5.8144 21.0635 5.69739 22.924 6.03671 24.5387C6.38773 26.1651 7.12488 27.4053 8.25985 28.2712C9.40652 29.1487 10.8691 29.5817 12.6593 29.5817C14.0818 29.5889 15.4884 29.2812 16.778 28.6807C18.053 28.1056 19.1871 27.259 20.101 26.2002L19.2819 29.2611H25.3546L30.8996 8.57771H24.8152L24.7976 8.56718ZM52.7214 8.56718H35.0615L33.8271 13.1773H44.1026L30.5181 24.9131L29.3574 29.2423H47.5871L48.8215 24.6323H37.8112L51.604 12.7209M68.2658 18.8053C67.7194 20.8412 66.9085 22.3717 65.8379 23.3686C64.7673 24.3748 63.4708 24.878 61.9486 24.878C58.766 24.878 57.7199 22.8538 58.8058 18.8053C59.344 16.7928 60.1584 15.2799 61.2465 14.2607C62.3347 13.2381 63.6534 12.728 65.2037 12.728C66.7248 12.728 67.7521 13.2346 68.281 14.2549C68.8099 15.2729 68.8052 16.7904 68.2658 18.803M71.8205 9.34528C70.4222 8.47474 68.6379 8.03948 66.4615 8.03948C64.2583 8.03948 62.2189 8.47241 60.3421 9.33826C58.4731 10.1987 56.8305 11.4831 55.5448 13.0895C54.2226 14.7159 53.2713 16.6231 52.6875 18.7995C52.1141 20.9676 52.0439 22.8713 52.4885 24.5012C52.9332 26.1276 53.8692 27.3796 55.2733 28.2454C56.6891 29.1183 58.491 29.5524 60.7024 29.5524C62.8788 29.5524 64.903 29.1148 66.7634 28.2443C68.6238 27.3691 70.2151 26.1264 71.5373 24.4883C72.8595 22.8573 73.8072 20.9547 74.3923 18.7784C74.9773 16.6021 75.0475 14.7019 74.6029 13.0684C74.1583 11.442 73.2339 10.1901 71.8415 9.31837M93.4995 14.0923L95.0557 8.46421C94.5292 8.1951 93.8389 8.05469 92.973 8.05469C91.5806 8.05469 90.2467 8.39869 88.9597 9.09605C87.8528 9.68811 86.912 10.5235 86.1164 11.5696L86.9237 8.5391L85.1604 8.54612H80.8312L75.2499 29.2213H81.408L84.3039 18.4133C84.7252 16.8419 85.4834 15.6052 86.5774 14.7276C87.6656 13.8465 89.0229 13.4054 90.6609 13.4054C91.6672 13.4054 92.6033 13.6359 93.4925 14.0958M110.634 18.9048C110.108 20.8354 109.312 22.3097 108.224 23.3276C107.136 24.3503 105.825 24.8604 104.304 24.8604C102.783 24.8604 101.742 24.3456 101.192 23.3159C100.63 22.2804 100.618 20.7886 101.145 18.8275C101.671 16.8677 102.479 15.3641 103.59 14.3228C104.702 13.2732 106.012 12.749 107.533 12.749C109.031 12.749 110.037 13.2872 110.576 14.3754C111.114 15.4636 111.126 16.973 110.608 18.9036M114.914 9.37921C113.773 8.46656 112.317 8.01023 110.55 8.01023C109.002 8.01023 107.526 8.36125 106.127 9.07031C104.729 9.77821 103.594 10.7435 102.722 11.9651L102.743 11.8247L103.776 8.53676H97.7621L96.2293 14.2584L96.1825 14.4573L89.8641 38.0272H96.0304L99.213 26.1627C99.5289 27.2181 100.172 28.0465 101.155 28.6456C102.138 29.2423 103.352 29.5384 104.794 29.5384C106.584 29.5384 108.293 29.1054 109.913 28.2396C111.54 27.3714 112.944 26.1218 114.137 24.5071C115.331 22.8924 116.216 21.0203 116.782 18.9024C117.355 16.7811 117.472 14.8891 117.144 13.2334C116.811 11.5754 116.073 10.2919 114.933 9.38389M135.368 18.8205C134.842 20.7745 134.034 22.2722 132.946 23.3019C131.858 24.3386 130.548 24.8546 129.026 24.8546C127.47 24.8546 126.417 24.3514 125.867 23.3335C125.306 22.3155 125.294 20.8412 125.809 18.9106C126.324 16.98 127.145 15.4706 128.28 14.3824C129.415 13.2943 130.743 12.7514 132.266 12.7514C133.787 12.7514 134.817 13.2779 135.355 14.3193C135.894 15.3641 135.897 16.8653 135.373 18.824L135.368 18.8205ZM138.118 8.54144L137.33 11.4783C136.991 10.4194 136.336 9.57695 135.365 8.95096C134.382 8.32615 133.177 8.01491 131.737 8.01491C129.971 8.01491 128.265 8.47124 126.636 9.38389C125.01 10.2965 123.582 11.5766 122.365 13.2334C121.148 14.8902 120.259 16.7787 119.686 18.8966C119.118 21.0226 119.007 22.8865 119.346 24.5082C119.689 26.1229 120.428 27.3702 121.57 28.2408C122.709 29.1066 124.179 29.5442 125.969 29.5442C127.408 29.5442 128.783 29.2447 130.088 28.6433C131.36 28.0655 132.491 27.2179 133.402 26.1592L132.583 29.2225H138.656L144.2 8.54729H138.127L138.118 8.54144ZM169.695 8.54846L169.698 8.54261H165.966C165.846 8.54261 165.741 8.54846 165.632 8.5508H163.696L162.701 9.93149L162.455 10.2591L162.35 10.4229L154.481 21.3841L152.855 8.54846H146.41L149.675 28.0536L142.467 38.0343H148.891L150.634 35.5619C150.683 35.4893 150.728 35.4285 150.786 35.3513L152.822 32.4612L152.881 32.3793L161.999 19.45L169.686 8.56835L169.698 8.56133H169.695V8.54846Z" fill="#072654"/>
</svg>
