<svg width="9" height="10" viewBox="0 0 9 10" fill="none" xmlns="http://www.w3.org/2000/svg">
<path d="M4.38333 5.85737L1.23566 9.00505C1.11789 9.12282 0.967999 9.1817 0.785991 9.1817C0.603982 9.1817 0.454093 9.12282 0.336323 9.00505C0.218553 8.88728 0.159668 8.73739 0.159668 8.55538C0.159668 8.37337 0.218553 8.22348 0.336323 8.10571L3.484 4.95804L0.336323 1.81037C0.218553 1.6926 0.159668 1.54271 0.159668 1.3607C0.159668 1.17869 0.218553 1.0288 0.336323 0.91103C0.454093 0.79326 0.603982 0.734375 0.785991 0.734375C0.967999 0.734375 1.11789 0.79326 1.23566 0.91103L4.38333 4.0587L7.53101 0.91103C7.64878 0.79326 7.79867 0.734375 7.98067 0.734375C8.16268 0.734375 8.31257 0.79326 8.43034 0.91103C8.54811 1.0288 8.607 1.17869 8.607 1.3607C8.607 1.54271 8.54811 1.6926 8.43034 1.81037L5.28267 4.95804L8.43034 8.10571C8.54811 8.22348 8.607 8.37337 8.607 8.55538C8.607 8.73739 8.54811 8.88728 8.43034 9.00505C8.31257 9.12282 8.16268 9.1817 7.98067 9.1817C7.79867 9.1817 7.64878 9.12282 7.53101 9.00505L4.38333 5.85737Z" fill="#D92D20"/>
</svg>
