<svg width="300" height="151" viewBox="0 0 300 151" fill="none" xmlns="http://www.w3.org/2000/svg">
<g clip-path="url(#clip0_286_7398)">
<path d="M175.702 45.6816C176.348 45.8845 176.538 46.3921 176.709 46.9357C178.517 52.6887 180.338 58.4374 182.135 64.194C182.281 64.6626 182.458 64.8764 182.979 64.8251C183.543 64.7696 184.117 64.8125 184.708 64.8125C184.708 65.8268 184.708 66.791 184.708 67.786C181.701 67.786 178.703 67.786 175.665 67.786C175.665 66.8176 175.665 65.8436 175.665 64.8181C176.629 64.8181 177.593 64.8181 178.627 64.8181C178.337 63.831 178.068 62.9092 177.796 61.9883C177.468 60.8787 177.466 60.8781 176.289 60.8855C174.27 60.8982 172.25 60.9179 170.23 60.9197C169.93 60.92 169.788 60.9949 169.701 61.307C169.384 62.4521 169.028 63.5866 168.664 64.8012C169.684 64.8012 170.657 64.8012 171.65 64.8012C171.65 65.8332 171.65 66.7973 171.65 67.789C168.741 67.789 165.852 67.789 162.928 67.789C162.928 66.8297 162.928 65.8671 162.928 64.8125C163.526 64.8125 164.139 64.7846 164.748 64.8221C165.169 64.8481 165.341 64.7122 165.47 64.2976C167.26 58.5557 169.072 52.8204 170.885 47.0856C171.054 46.5499 171.147 45.9448 171.823 45.7126C173.109 45.6816 174.383 45.6816 175.702 45.6816ZM172.283 52.5643C171.743 54.3803 171.202 56.1963 170.651 58.044C172.672 58.044 174.618 58.044 176.572 58.044C176.572 57.9749 176.583 57.9254 176.571 57.8829C175.707 54.9491 174.843 52.0152 173.966 49.0854C173.927 48.9567 173.759 48.8668 173.651 48.7589C173.534 48.878 173.354 48.9775 173.31 49.1193C172.96 50.2384 172.636 51.3655 172.283 52.5643Z" fill="#E77918"/>
<path d="M41.0957 68.0449C41.2286 67.9097 41.3743 67.8192 41.4926 67.7011C43.5974 65.6002 45.7001 63.4973 47.798 61.3895C47.9199 61.2671 47.9971 61.1001 48.0772 60.9805C49.4975 62.3985 50.823 63.7221 52.1215 65.0186C51.4837 65.6351 50.8161 66.2805 50.1326 66.9412C49.5979 66.3764 48.9589 65.7014 48.3584 65.0671C47.2736 66.1502 46.2787 67.1436 45.328 68.0928C46.2633 69.0262 47.2683 70.0293 48.3037 71.0627C50.5836 68.7833 52.9307 66.4368 55.2541 64.1138C55.9178 64.7806 56.5658 65.4316 57.1697 66.0382C54.1842 69.0182 51.1528 72.044 48.0394 75.1516C45.8065 72.893 43.4844 70.5443 41.129 68.1997C41.0957 68.1616 41.0957 68.1191 41.0957 68.0449Z" fill="#E77919"/>
<path d="M259.248 73.8842C258.659 73.929 258.07 73.9066 257.484 73.9431C257.303 73.9544 257.063 74.0826 256.969 74.232C255.236 76.9687 253.519 79.7156 251.806 82.4654C251.711 82.6182 251.636 82.814 251.635 82.9903C251.623 84.8505 251.628 86.7107 251.629 88.571C251.629 88.632 251.642 88.6929 251.653 88.7954C252.499 88.7954 253.335 88.7954 254.196 88.7954C254.196 89.2761 254.196 89.7135 254.196 90.1829C252.013 90.1829 249.845 90.1829 247.642 90.1829C247.642 89.7482 247.642 89.3127 247.642 88.8243C248.477 88.8243 249.326 88.8243 250.237 88.8243C250.237 88.6045 250.237 88.4362 250.237 88.2679C250.237 86.5826 250.246 84.8971 250.227 83.2119C250.224 82.9438 250.146 82.6409 250.005 82.4155C248.303 79.6965 246.579 76.9918 244.874 74.2744C244.709 74.0102 244.538 73.906 244.228 73.9221C243.706 73.9492 243.182 73.9295 242.637 73.9295C242.637 73.4612 242.637 73.0212 242.637 72.5493C244.709 72.5493 246.768 72.5493 248.865 72.5493C248.865 72.9892 248.865 73.4383 248.865 73.918C248.05 73.918 247.244 73.918 246.347 73.918C247.896 76.5015 249.409 79.0226 250.981 81.6435C252.563 79.0395 254.094 76.518 255.666 73.9313C254.785 73.9313 253.984 73.9313 253.16 73.9313C253.16 73.4543 253.16 73.0163 253.16 72.5144C255.165 72.5144 257.162 72.5144 259.204 72.5059C259.248 72.9448 259.248 73.3923 259.248 73.8842Z" fill="#494B53"/>
<path d="M207.378 106.471C207.089 106.354 206.845 106.238 206.571 106.107C206.639 105.907 206.704 105.717 206.779 105.498C207.456 105.656 208.182 106.024 208.755 105.448C209.026 105.176 209.054 104.664 209.193 104.261C209.15 104.246 209.107 104.231 209.064 104.216C208.786 104.346 208.519 104.516 208.228 104.598C207.384 104.834 206.537 104.428 206.196 103.602C205.802 102.645 205.858 101.677 206.281 100.737C206.741 99.7125 208.131 99.3545 209.13 100.345C209.176 100.186 209.217 100.042 209.267 99.8701C209.473 99.8701 209.687 99.8701 209.93 99.8701C209.943 99.9799 209.968 100.085 209.968 100.19C209.97 101.572 209.978 102.955 209.967 104.337C209.957 105.538 209.576 106.099 208.587 106.439C208.191 106.471 207.806 106.471 207.378 106.471ZM206.874 103.008C207.243 103.983 208.226 104.277 208.866 103.603C209.2 103.252 209.224 101.192 208.899 100.835C208.346 100.228 207.334 100.342 207.07 101.119C206.879 101.68 206.922 102.321 206.874 103.008Z" fill="#4C4E57"/>
<path d="M107.624 62.5734C107.624 63.3345 107.624 64.0478 107.624 64.812C108.636 64.812 109.616 64.812 110.626 64.812C110.626 65.8246 110.626 66.7867 110.626 67.7828C107.541 67.7828 104.452 67.7828 101.338 67.7828C101.338 66.8099 101.338 65.8486 101.338 64.8449C102.304 64.8449 103.251 64.8449 104.233 64.8449C104.233 59.4731 104.233 54.1435 104.233 48.7749C103.275 48.7749 102.326 48.7749 101.346 48.7749C101.346 47.7743 101.346 46.8119 101.346 45.8026C101.489 45.796 101.641 45.7827 101.794 45.7827C106.071 45.7817 110.349 45.7784 114.626 45.787C115.117 45.788 115.614 45.8169 116.097 45.9003C117.504 46.1432 118.381 47.005 118.662 48.3804C119.067 50.3583 119.094 52.3605 118.757 54.3536C118.528 55.7076 117.714 56.526 116.347 56.7704C116.129 56.8094 115.912 56.8567 115.695 56.9046C115.669 56.9103 115.65 56.944 115.597 56.9926C115.822 57.0472 116.027 57.0937 116.23 57.1463C117.399 57.4494 118.178 58.1652 118.379 59.3697C118.537 60.3222 118.599 61.2923 118.674 62.2568C118.738 63.0766 118.759 63.8996 118.801 64.7545C119.641 64.7545 120.447 64.7545 121.29 64.7545C121.29 65.7793 121.29 66.769 121.29 67.8658C119.81 67.8115 118.336 67.8087 116.872 67.6822C116.13 67.6179 115.633 67.0643 115.536 66.3164C115.368 65.011 115.269 63.6965 115.152 62.3848C115.08 61.5786 115.072 60.7642 114.956 59.9651C114.799 58.8877 114.196 58.3004 113.104 58.2669C111.297 58.2115 109.488 58.2518 107.624 58.2518C107.624 59.6741 107.624 61.0999 107.624 62.5734ZM109.185 48.7627C108.681 48.7627 108.177 48.7627 107.658 48.7627C107.658 50.9973 107.658 53.1773 107.658 55.3941C109.136 55.3941 110.579 55.3993 112.022 55.392C112.768 55.3883 113.516 55.3916 114.259 55.3385C114.973 55.2874 115.218 55.0809 115.249 54.3737C115.31 52.9796 115.35 51.58 115.296 50.1866C115.25 48.9825 115.013 48.7989 113.808 48.7774C112.299 48.7505 110.789 48.7657 109.185 48.7627Z" fill="#E77918"/>
<path d="M139.96 60.6985C140.417 60.6985 140.827 60.6985 141.263 60.6985C141.263 63.0775 141.263 65.4087 141.263 67.7783C135.476 67.7783 129.683 67.7783 123.853 67.7783C123.853 66.8288 123.853 65.869 123.853 64.8555C124.791 64.8555 125.736 64.8555 126.722 64.8555C126.722 59.4855 126.722 54.1685 126.722 48.7825C125.782 48.7825 124.824 48.7825 123.843 48.7825C123.843 47.7528 123.843 46.7921 123.843 45.8066C129.565 45.8066 135.266 45.8066 140.997 45.8066C140.997 48.0039 140.997 50.1888 140.997 52.4036C139.93 52.4036 138.873 52.4036 137.764 52.4036C137.764 51.2107 137.764 50.0265 137.764 48.8035C135.211 48.8035 132.708 48.8035 130.166 48.8035C130.166 50.8171 130.166 52.8427 130.166 54.9209C132.089 54.9209 134.034 54.9209 136.011 54.9209C136.011 55.9014 136.011 56.8299 136.011 57.8175C134.061 57.8175 132.116 57.8175 130.149 57.8175C130.149 60.1757 130.149 62.4751 130.149 64.8047C132.745 64.8047 135.329 64.8047 137.968 64.8047C137.968 63.4513 137.968 62.1093 137.968 60.6984C138.651 60.6984 139.282 60.6984 139.96 60.6985Z" fill="#E77918"/>
<path d="M153.737 62.5329C153.904 63.1026 154.045 63.6408 154.222 64.1665C154.272 64.3157 154.43 64.4287 154.538 64.5582C154.661 64.427 154.852 64.3158 154.898 64.1617C156.034 60.3287 157.156 56.4912 158.28 52.6543C158.61 51.5276 158.938 50.4004 159.265 49.2729C159.308 49.1267 159.338 48.9769 159.389 48.7659C158.386 48.7659 157.441 48.7659 156.47 48.7659C156.47 47.7529 156.47 46.7926 156.47 45.8066C159.389 45.8066 162.291 45.8066 165.218 45.8066C165.218 46.7851 165.218 47.7458 165.218 48.763C164.585 48.763 163.969 48.7868 163.356 48.7545C162.961 48.7336 162.784 48.8543 162.661 49.2507C160.866 55.0227 159.052 60.7886 157.242 66.5559C156.856 67.7852 156.678 67.9147 155.377 67.9156C154.677 67.916 153.978 67.9175 153.278 67.9151C152.164 67.9112 151.934 67.7454 151.603 66.6882C150.202 62.2224 148.804 57.756 147.405 53.2898C146.978 51.9271 146.543 50.5671 146.134 49.1992C146.036 48.8736 145.9 48.7356 145.542 48.7539C144.909 48.7864 144.274 48.763 143.604 48.763C143.604 47.7727 143.604 46.8109 143.604 45.8149C146.62 45.8149 149.646 45.8149 152.7 45.8149C152.7 46.7852 152.7 47.7457 152.7 48.7503C151.73 48.7503 150.783 48.7503 149.733 48.7503C151.076 53.3775 152.4 57.937 153.737 62.5329Z" fill="#E77919"/>
<path d="M61.5981 74.4192C62.2035 75.0274 62.785 75.6117 63.4114 76.241C64.0768 75.5398 64.7197 74.8623 65.3417 74.2068C66.057 74.9292 66.712 75.5907 67.3324 76.2173C64.3443 79.2061 61.3152 82.2358 58.3327 85.219C56.0182 82.908 53.6705 80.5638 51.3428 78.2396C52.6493 76.9361 53.9845 75.6039 55.2904 74.3009C55.924 74.9294 56.5858 75.5862 57.2917 76.2866C56.6353 76.9061 55.9569 77.5464 55.2992 78.1672C56.3612 79.2259 57.3602 80.2217 58.338 81.1964C59.2998 80.2337 60.2982 79.2345 61.3155 78.2163C58.9936 75.9049 56.6423 73.5642 54.3283 71.2607C55.044 70.5473 55.7018 69.8915 56.3786 69.2168C58.0672 70.8998 59.8208 72.6476 61.5981 74.4192Z" fill="#E77919"/>
<path d="M122.484 89.0975C122.565 88.9657 122.628 88.8375 122.628 88.7091C122.633 83.8903 122.632 79.0714 122.631 74.2526C122.631 74.1605 122.619 74.0684 122.61 73.9406C121.834 73.9406 121.075 73.9406 120.293 73.9406C120.293 73.4641 120.293 73.0247 120.293 72.5451C120.454 72.5359 120.606 72.52 120.757 72.5197C121.886 72.5176 123.017 72.5487 124.144 72.5077C124.869 72.4814 125.299 72.7347 125.639 73.4024C128.163 78.3688 130.724 83.3167 133.274 88.2701C133.344 88.4068 133.421 88.5404 133.55 88.7784C133.55 83.7692 133.55 78.8745 133.55 73.9392C132.681 73.9392 131.814 73.9392 130.921 73.9392C130.921 73.4614 130.921 73.0231 130.921 72.5515C133.024 72.5515 135.13 72.5515 137.268 72.5515C137.268 72.9896 137.268 73.427 137.268 73.9108C136.546 73.9108 135.807 73.9108 135.014 73.9108C135.014 79.3681 135.014 84.78 135.014 90.216C134.345 90.216 133.729 90.2327 133.114 90.2105C132.665 90.1942 132.489 89.833 132.311 89.4866C131.138 87.1985 129.962 84.912 128.786 82.625C127.357 79.8438 125.93 77.062 124.497 74.2828C124.413 74.121 124.289 73.9802 124.184 73.8296C124.145 73.8481 124.107 73.8666 124.068 73.885C124.068 78.9429 124.068 84.0009 124.068 89.1052C124.953 89.1052 125.835 89.1052 126.738 89.1052C126.738 89.4799 126.738 89.8089 126.738 90.1771C124.598 90.1771 122.462 90.1771 120.298 90.1771C120.298 89.8339 120.298 89.4913 120.298 89.101C121.016 89.101 121.727 89.101 122.484 89.0975Z" fill="#494B54"/>
<path d="M69.1236 61.6459C70.2628 62.7796 71.3781 63.8893 72.4554 64.9613C71.7737 65.6356 71.1124 66.2897 70.4468 66.9481C68.1833 64.6833 65.8304 62.329 63.4612 59.9584C62.7416 60.6945 62.0906 61.3604 61.4754 61.9896C60.7607 61.2808 60.0998 60.6254 59.4619 59.9928C62.4639 57.0013 65.488 53.9876 68.4704 51.0156C70.7631 53.3006 73.1121 55.6417 75.4388 57.9606C74.1467 59.2351 72.7969 60.5666 71.4786 61.8668C70.8882 61.2779 70.2291 60.6204 69.5102 59.9032C70.1646 59.2888 70.8443 58.6507 71.5137 58.0222C70.4537 56.9743 69.452 55.9842 68.4832 55.0265C67.5084 55.9894 66.507 56.9787 65.4678 58.0053C66.6697 59.2022 67.8847 60.4121 69.1236 61.6459Z" fill="#E77918"/>
<path d="M74.8603 70.8591C75.4343 70.2665 75.9845 69.6977 76.5943 69.0672C77.2957 69.8001 77.9407 70.4742 78.5691 71.1308C79.5999 70.0967 80.5852 69.1083 81.5618 68.1287C80.5805 67.1755 79.57 66.1939 78.5603 65.2131C76.2936 67.4768 73.946 69.8214 71.6356 72.1288C70.9248 71.4169 70.2674 70.7585 69.6494 70.1396C72.6131 67.1764 75.6435 64.1465 78.6421 61.1484C80.938 63.4399 83.286 65.7834 85.6076 68.1005C83.2784 70.423 80.9291 72.7656 78.6058 75.0822C77.3293 73.8024 75.9969 72.4666 74.6375 71.1036C74.6728 71.0645 74.7546 70.9737 74.8603 70.8591Z" fill="#E77919"/>
<path d="M194.83 86.439C194.738 85.4456 194.691 84.4916 194.543 83.5535C194.425 82.8049 193.944 82.3342 193.145 82.2957C192.432 82.2612 191.717 82.2398 191.003 82.2353C189.56 82.2263 188.116 82.2326 186.65 82.2326C186.65 84.427 186.65 86.5833 186.65 88.7836C187.509 88.7836 188.376 88.7836 189.277 88.7836C189.277 89.2737 189.277 89.7206 189.277 90.1865C187.121 90.1865 184.983 90.1865 182.826 90.1865C182.826 89.7342 182.826 89.3084 182.826 88.8231C183.601 88.8231 184.384 88.8231 185.191 88.8231C185.191 83.8405 185.191 78.917 185.191 73.9554C184.427 73.9554 183.654 73.9554 182.845 73.9554C182.845 73.4697 182.845 73.0204 182.845 72.516C182.999 72.516 183.153 72.516 183.307 72.516C186.312 72.5161 189.317 72.514 192.322 72.5187C192.703 72.5193 193.085 72.5439 193.465 72.5761C194.729 72.6834 195.649 73.405 195.959 74.6439C196.354 76.2219 196.356 77.8242 196.023 79.4168C195.799 80.4873 195.146 81.1914 193.931 81.5297C194.2 81.6085 194.332 81.6565 194.469 81.6857C195.379 81.8805 195.88 82.4665 195.97 83.365C196.097 84.6284 196.17 85.8971 196.265 87.1637C196.304 87.6856 196.339 88.2078 196.381 88.7931C197.225 88.7931 198.055 88.7931 198.905 88.7931C198.905 89.2818 198.905 89.7062 198.905 90.2134C198.487 90.2134 198.066 90.2159 197.646 90.2127C197.073 90.2084 196.5 90.2245 195.93 90.1859C195.337 90.1458 195.086 89.9234 195.028 89.3368C194.934 88.3891 194.894 87.436 194.83 86.439ZM193.875 74.2387C193.432 74.1374 192.991 73.9573 192.546 73.9487C190.72 73.9134 188.893 73.9299 187.066 73.9292C186.929 73.9292 186.791 73.9432 186.648 73.951C186.648 76.2471 186.648 78.5115 186.648 80.7932C186.727 80.8034 186.787 80.8179 186.847 80.8178C188.768 80.8143 190.69 80.8231 192.612 80.7996C193.799 80.7851 194.489 80.2611 194.631 79.0749C194.763 77.9667 194.722 76.8331 194.693 75.7124C194.678 75.1452 194.399 74.6466 193.875 74.2387Z" fill="#494B54"/>
<path d="M103.739 80.9917C103.739 78.6241 103.739 76.3043 103.739 73.9513C102.936 73.9513 102.161 73.9513 101.35 73.9513C101.35 73.4705 101.35 73.0214 101.35 72.5451C103.491 72.5451 105.628 72.5451 107.79 72.5451C107.79 73.0038 107.79 73.4411 107.79 73.9271C106.917 73.9271 106.051 73.9271 105.157 73.9271C105.15 74.0651 105.142 74.1564 105.142 74.2478C105.146 77.5871 105.134 80.9267 105.168 84.2657C105.177 85.1675 105.265 86.0778 105.419 86.9667C105.633 88.2091 106.159 88.7119 107.397 88.7495C109.222 88.805 111.052 88.7836 112.878 88.7252C113.823 88.695 114.379 88.205 114.565 87.264C114.74 86.3813 114.854 85.4724 114.864 84.5735C114.904 81.1074 114.891 77.6406 114.897 74.1741C114.897 74.1117 114.886 74.0493 114.876 73.9483C114.021 73.9483 113.167 73.9483 112.279 73.9483C112.279 73.4609 112.279 73.0122 112.279 72.541C114.434 72.541 116.572 72.541 118.739 72.541C118.739 72.9993 118.739 73.4357 118.739 73.9138C117.947 73.9138 117.159 73.9138 116.306 73.9138C116.306 74.1221 116.307 74.2901 116.306 74.4581C116.303 77.7657 116.332 81.0738 116.279 84.3806C116.26 85.5642 116.126 86.7612 115.895 87.9224C115.615 89.3319 114.733 90.0836 113.287 90.1289C111.096 90.1975 108.9 90.2045 106.71 90.1279C105.139 90.073 104.162 89.0569 104.009 87.2733C103.831 85.2029 103.822 83.118 103.739 80.9917Z" fill="#494B54"/>
<path d="M203.145 78.4622C203.357 79.8466 203.673 80.163 205.039 80.3211C207.043 80.553 209.049 80.7666 211.054 80.9878C211.102 80.993 211.149 80.9947 211.197 81.0009C212.964 81.2327 213.643 81.8501 213.861 83.6155C214.041 85.0679 214.073 86.536 213.732 87.9779C213.413 89.3227 212.565 90.1138 211.192 90.1452C208.731 90.2015 206.266 90.187 203.804 90.1348C202.701 90.1114 201.871 89.4204 201.668 88.3514C201.466 87.2861 201.432 86.1891 201.321 85.0728C201.873 85.0728 202.298 85.0728 202.846 85.0728C202.846 85.6098 202.806 86.1477 202.859 86.6767C202.904 87.1419 202.973 87.6368 203.176 88.047C203.463 88.6285 204.071 88.7866 204.681 88.7907C206.684 88.8042 208.687 88.8259 210.69 88.7821C211.911 88.7553 212.38 88.2783 212.446 87.0625C212.503 86.0163 212.492 84.9647 212.471 83.9162C212.458 83.2533 212.101 82.8331 211.399 82.7121C210.257 82.5156 209.105 82.3834 207.956 82.2317C206.728 82.0696 205.489 81.9735 204.274 81.745C202.716 81.4519 201.86 80.5367 201.747 78.9563C201.659 77.7116 201.669 76.4421 201.809 75.2033C202.012 73.4111 202.944 72.5886 204.759 72.5405C206.745 72.4879 208.734 72.4953 210.719 72.5618C212.513 72.6218 213.225 73.2988 213.481 75.0758C213.593 75.8586 213.588 76.6582 213.639 77.4946C213.145 77.4946 212.697 77.4946 212.218 77.4946C212.183 76.9148 212.153 76.3318 212.112 75.7497C212.023 74.4966 211.465 73.9529 210.195 73.9379C208.558 73.9185 206.92 73.9181 205.282 73.9356C203.845 73.9509 203.2 74.5844 203.144 76.035C203.113 76.8285 203.141 77.6243 203.145 78.4622Z" fill="#484A53"/>
<path d="M176.319 72.5176C177.572 72.5176 178.778 72.5176 180.015 72.5176C180.015 73.7511 180.015 74.9501 180.015 76.1789C179.579 76.1789 179.143 76.1789 178.667 76.1789C178.667 75.444 178.667 74.7173 178.667 73.9605C175.903 73.9605 173.179 73.9605 170.433 73.9605C170.433 76.0705 170.433 78.1637 170.433 80.3148C172.471 80.3148 174.511 80.3148 176.575 80.3148C176.575 80.8096 176.575 81.2472 176.575 81.7253C174.543 81.7253 172.515 81.7253 170.449 81.7253C170.449 84.0915 170.449 86.418 170.449 88.7776C173.164 88.7776 175.887 88.7776 178.659 88.7776C178.659 88.0027 178.659 87.2465 178.659 86.4704C179.131 86.4704 179.554 86.4704 180.012 86.4704C180.012 87.7068 180.012 88.9354 180.012 90.1898C175.559 90.1898 171.113 90.1898 166.632 90.1898C166.632 89.7468 166.632 89.3123 166.632 88.8258C167.392 88.8258 168.162 88.8258 168.958 88.8258C168.958 83.8408 168.958 78.907 168.958 73.9422C168.185 73.9422 167.426 73.9422 166.632 73.9422C166.632 73.4638 166.632 73.0156 166.632 72.5176C169.856 72.5176 173.064 72.5176 176.319 72.5176Z" fill="#4A4C54"/>
<path d="M161.842 76.256C160.403 80.6811 158.978 85.0709 157.549 89.4591C157.284 90.2736 157.219 90.3105 156.363 90.3196C155.035 90.3338 155.032 90.3346 154.625 89.076C153.042 84.1873 151.457 79.2994 149.889 74.4061C149.773 74.0467 149.64 73.8888 149.238 73.9191C148.67 73.9619 148.096 73.93 147.485 73.93C147.485 73.4629 147.485 73.0158 147.485 72.543C149.56 72.543 151.62 72.543 153.71 72.543C153.71 72.988 153.71 73.427 153.71 73.9128C152.927 73.9128 152.143 73.9128 151.305 73.9128C151.796 75.4969 152.27 77.024 152.743 78.5512C153.761 81.8388 154.776 85.1273 155.806 88.4111C155.854 88.5654 156.036 88.6778 156.156 88.8097C156.276 88.6757 156.459 88.5613 156.508 88.4049C157.982 83.7145 159.443 79.02 160.904 74.3257C160.94 74.2079 160.958 74.0842 160.994 73.9229C160.214 73.9229 159.471 73.9229 158.704 73.9229C158.704 73.4525 158.704 73.0158 158.704 72.5487C160.746 72.5487 162.773 72.5487 164.837 72.5487C164.837 72.992 164.837 73.4395 164.837 73.9177C164.104 73.9177 163.378 73.9177 162.613 73.9177C162.357 74.695 162.106 75.4576 161.842 76.256Z" fill="#494B53"/>
<path d="M60.2024 52.7234C60.9369 53.452 61.6476 54.1567 62.3115 54.815C61.6288 55.5012 60.9644 56.169 60.2628 56.8742C59.6782 56.2601 59.0351 55.5844 58.4149 54.9328C57.3617 55.9826 56.3631 56.978 55.3691 57.9689C57.6874 60.2863 60.0345 62.6325 62.3325 64.9296C61.6255 65.6397 60.9613 66.3068 60.3235 66.9474C57.3662 63.9952 54.3445 60.9787 51.3594 57.9988C53.6925 55.6745 56.0483 53.3275 58.4337 50.9512C58.9692 51.4877 59.5739 52.0936 60.2024 52.7234Z" fill="#E77A1A"/>
<path d="M73.6656 80.1596C71.9338 81.8892 70.2258 83.5948 68.544 85.2743C67.2037 83.9236 65.8773 82.5869 64.5897 81.2893C65.1765 80.7039 65.8354 80.0466 66.4955 79.388C67.0767 79.9804 67.7297 80.646 68.3454 81.2736C69.4054 80.2114 70.3999 79.2147 71.4149 78.1974C69.1239 75.9132 66.768 73.5645 64.4321 71.2356C65.1619 70.5135 65.8231 69.8591 66.4583 69.2305C69.4457 72.2146 72.4676 75.2333 75.5454 78.3078C74.9466 78.8976 74.318 79.5167 73.6656 80.1596Z" fill="#E77919"/>
<path d="M231 73.6377C229.762 73.6377 228.571 73.6377 227.333 73.6377C227.333 74.8203 227.333 75.9715 227.333 77.1543C226.851 77.1543 226.417 77.1543 225.955 77.1543C225.955 75.6314 225.955 74.1119 225.955 72.5547C230.761 72.5547 235.569 72.5547 240.415 72.5547C240.415 74.0701 240.415 75.6002 240.415 77.1586C239.984 77.1586 239.547 77.1586 239.064 77.1586C239.064 76.0002 239.064 74.846 239.064 73.6652C237.325 73.6652 235.632 73.6652 233.91 73.6652C233.91 78.7045 233.91 83.7347 233.91 88.8062C234.772 88.8062 235.608 88.8062 236.468 88.8062C236.468 89.284 236.468 89.7205 236.468 90.1854C234.271 90.1854 232.102 90.1854 229.9 90.1854C229.9 89.7381 229.9 89.3033 229.9 88.8134C230.754 88.8134 231.604 88.8134 232.472 88.8134C232.472 83.7375 232.472 78.7158 232.472 73.6377C231.994 73.6377 231.521 73.6377 231 73.6377Z" fill="#484A53"/>
<path d="M145.454 72.5158C145.576 72.6042 145.717 72.6878 145.724 72.7814C145.751 73.1429 145.735 73.5075 145.735 73.9117C144.882 73.9117 144.064 73.9117 143.21 73.9117C143.21 78.8856 143.21 83.818 143.21 88.792C144.025 88.792 144.846 88.792 145.701 88.792C145.701 89.2679 145.701 89.7035 145.701 90.1768C143.536 90.1768 141.369 90.1768 139.167 90.1768C139.167 89.743 139.167 89.308 139.167 88.8171C140.015 88.8171 140.865 88.8171 141.731 88.8171C141.731 83.8365 141.731 78.911 141.731 73.9345C140.877 73.9345 140.028 73.9345 139.156 73.9345C139.156 73.4468 139.156 73.0099 139.156 72.5156C141.257 72.5156 143.334 72.5156 145.454 72.5158Z" fill="#4A4C55"/>
<path d="M220.865 74.9798C220.865 79.6037 220.865 84.1801 220.865 88.7946C221.722 88.7946 222.543 88.7946 223.401 88.7946C223.401 89.2667 223.401 89.7026 223.401 90.177C221.242 90.177 219.073 90.177 216.875 90.177C216.875 89.7413 216.875 89.3033 216.875 88.8195C217.71 88.8195 218.544 88.8195 219.408 88.8195C219.408 83.8524 219.408 78.9303 219.408 73.9502C218.579 73.9502 217.731 73.9502 216.866 73.9502C216.866 73.4524 216.866 73.0126 216.866 72.5449C219.042 72.5449 221.198 72.5449 223.395 72.5449C223.395 72.9853 223.395 73.433 223.395 73.9186C222.572 73.9186 221.751 73.9186 220.865 73.9186C220.865 74.279 220.865 74.6056 220.865 74.9798Z" fill="#4A4C54"/>
<path d="M62.0467 71.4996C61.8354 71.7389 61.648 71.9542 61.4966 72.1281C60.7772 71.4153 60.1163 70.7605 59.4932 70.1431C61.4532 68.184 63.4616 66.1767 65.4323 64.207C66.0281 64.8033 66.6858 65.4615 67.3959 66.1721C65.667 67.8939 63.8688 69.6848 62.0467 71.4996Z" fill="#E77A1A"/>
<path d="M62.8008 51.2697C61.978 50.4537 61.1793 49.6617 60.4077 48.8967C61.4395 47.8703 62.437 46.878 63.4002 45.9199C64.3434 46.859 65.341 47.8523 66.2993 48.8065C65.3514 49.7538 64.3576 50.747 63.2666 51.8372C63.1577 51.7033 62.9913 51.4985 62.8008 51.2697Z" fill="#E77A1A"/>
<path d="M60.8897 86.8513C61.7307 86.0093 62.548 85.191 63.3573 84.3809C64.3664 85.4109 65.3507 86.4156 66.3073 87.392C65.359 88.3362 64.3628 89.3279 63.4008 90.2857C62.4526 89.3433 61.4563 88.3531 60.3335 87.2371C60.475 87.1409 60.6705 87.0079 60.8897 86.8513Z" fill="#E77A1A"/>
<path d="M190.446 104.565C190.115 104.565 189.831 104.565 189.52 104.565C189.52 104.37 189.52 104.205 189.52 104.03C189.741 103.977 189.953 103.926 190.206 103.865C190.206 102.616 190.206 101.38 190.206 100.144C190.206 99.9688 190.189 99.792 190.209 99.6193C190.267 99.118 190.211 98.7143 189.524 98.8017C189.524 98.5897 189.524 98.4243 189.524 98.2876C190.696 98.2876 191.871 98.2303 193.036 98.3096C193.706 98.3551 194.206 98.7943 194.35 99.5094C194.502 100.263 194.219 100.814 193.48 101.171C194.184 101.438 194.586 101.904 194.64 102.618C194.724 103.753 194.014 104.502 192.783 104.552C192.021 104.582 191.256 104.562 190.446 104.565ZM191.454 103.893C191.99 103.866 192.536 103.894 193.058 103.796C193.593 103.696 193.824 103.243 193.778 102.624C193.737 102.062 193.437 101.654 192.947 101.621C192.337 101.58 191.722 101.611 191.076 101.611C191.076 102.314 191.066 102.976 191.089 103.638C191.092 103.726 191.266 103.808 191.454 103.893ZM191.075 100.401C191.075 100.557 191.075 100.712 191.075 100.944C191.688 100.913 192.257 100.925 192.814 100.845C193.276 100.779 193.506 100.437 193.519 99.9627C193.534 99.4473 193.338 99.0696 192.87 98.991C192.29 98.8935 191.691 98.9077 191.075 98.8722C191.075 99.4214 191.075 99.8648 191.075 100.401Z" fill="#4C4E57"/>
<path d="M245.862 102.691C245.917 102.117 245.893 101.559 246.05 101.056C246.473 99.7028 247.746 99.3537 248.957 100.296C248.957 99.9501 248.957 99.6627 248.957 99.3752C248.957 99.0753 248.957 98.7754 248.957 98.4564C248.727 98.405 248.529 98.3606 248.297 98.3088C248.297 98.151 248.297 97.9854 248.297 97.793C248.78 97.793 249.266 97.793 249.797 97.793C249.797 99.8042 249.797 101.815 249.797 103.85C250.056 103.917 250.279 103.975 250.523 104.038C250.523 104.194 250.523 104.348 250.523 104.533C250.056 104.533 249.587 104.533 249.084 104.533C249.061 104.399 249.039 104.263 249.015 104.123C248.985 104.123 248.942 104.11 248.927 104.125C248.37 104.678 247.706 104.807 246.997 104.523C246.211 104.207 245.94 103.521 245.862 102.691ZM248.774 103.557C248.835 103.369 248.939 103.183 248.949 102.991C248.975 102.517 248.958 102.039 248.958 101.563C248.957 100.956 248.705 100.606 248.183 100.487C247.619 100.358 247.086 100.578 246.931 101.149C246.782 101.701 246.753 102.298 246.76 102.874C246.766 103.314 246.992 103.716 247.447 103.872C247.907 104.03 248.356 103.987 248.774 103.557Z" fill="#4A4C55"/>
<path d="M203.698 100.989C203.373 100.488 202.96 100.349 202.41 100.52C201.912 100.676 201.691 100.991 201.691 101.549C201.69 102.31 201.691 103.071 201.691 103.863C201.914 103.918 202.123 103.971 202.359 104.03C202.359 104.189 202.359 104.355 202.359 104.543C201.624 104.543 200.897 104.543 200.138 104.543C200.138 104.374 200.138 104.211 200.138 104.031C200.356 103.979 200.569 103.929 200.829 103.868C200.829 102.827 200.837 101.783 200.816 100.739C200.814 100.646 200.627 100.484 200.52 100.479C200.111 100.46 200.043 100.253 200.139 99.8788C200.602 99.8788 201.07 99.8788 201.57 99.8788C201.595 100.031 201.622 100.195 201.66 100.42C201.776 100.324 201.867 100.256 201.952 100.18C202.451 99.7322 203.032 99.6722 203.645 99.8529C204.251 100.031 204.554 100.495 204.603 101.089C204.658 101.768 204.644 102.453 204.657 103.135C204.661 103.372 204.657 103.609 204.657 103.869C204.889 103.923 205.1 103.972 205.334 104.026C205.334 104.192 205.334 104.359 205.334 104.545C204.589 104.545 203.864 104.545 203.107 104.545C203.107 104.37 203.107 104.206 203.107 104.03C203.332 103.978 203.545 103.928 203.833 103.861C203.792 102.921 203.75 101.974 203.698 100.989Z" fill="#4A4C54"/>
<path d="M241.023 104.562C240.662 104.562 240.348 104.562 240.016 104.562C240.016 104.361 240.016 104.208 240.016 104.037C240.249 103.978 240.474 103.922 240.705 103.864C240.705 102.752 240.705 101.66 240.705 100.561C240.431 100.382 239.769 100.579 240.054 99.865C240.517 99.865 240.987 99.865 241.469 99.865C241.494 100.048 241.517 100.213 241.551 100.465C242.006 99.9682 242.485 99.7161 243.102 99.7685C243.847 99.8319 244.356 100.197 244.453 100.932C244.548 101.651 244.524 102.386 244.547 103.115C244.555 103.352 244.548 103.589 244.548 103.861C244.765 103.914 244.975 103.966 245.216 104.025C245.216 104.179 245.216 104.343 245.216 104.535C244.495 104.535 243.771 104.535 243.007 104.535C243.007 104.383 243.007 104.22 243.007 104.028C243.207 103.981 243.419 103.931 243.653 103.877C243.653 102.996 243.695 102.111 243.638 101.232C243.601 100.657 243.193 100.413 242.587 100.464C241.982 100.515 241.585 100.899 241.582 101.444C241.579 102.237 241.582 103.03 241.582 103.861C241.798 103.915 242.007 103.966 242.247 104.025C242.247 104.179 242.247 104.347 242.247 104.562C241.857 104.562 241.464 104.562 241.023 104.562Z" fill="#494B54"/>
<path d="M257.139 104.159C257.036 104.148 256.911 104.144 256.838 104.204C256.336 104.615 255.785 104.758 255.149 104.591C254.589 104.444 254.29 104.078 254.204 103.525C254.115 102.953 254.327 102.435 254.836 102.206C255.216 102.035 255.648 101.961 256.066 101.899C256.39 101.852 256.726 101.89 257.048 101.89C257.192 101.071 257.003 100.629 256.475 100.482C255.781 100.289 255.253 100.551 255.018 101.237C254.904 101.237 254.779 101.239 254.654 101.236C254.579 101.234 254.503 101.222 254.433 101.215C254.309 100.298 254.401 100.123 255.237 99.9042C255.599 99.8096 255.989 99.7732 256.364 99.7855C257.379 99.819 257.937 100.387 257.97 101.403C257.992 102.07 257.965 102.737 257.981 103.404C257.986 103.639 257.841 103.959 258.265 104.044C258.317 104.054 258.311 104.354 258.338 104.566C258.036 104.566 257.785 104.547 257.537 104.571C257.242 104.599 257.128 104.475 257.139 104.159ZM255.697 103.914C256.798 103.925 257.265 103.435 257.035 102.417C256.548 102.473 256.042 102.485 255.562 102.605C255.225 102.689 255.024 102.992 255.057 103.373C255.086 103.702 255.284 103.88 255.697 103.914Z" fill="#4B4D56"/>
<path d="M219.08 100.959C219.094 100.682 219.091 100.502 218.775 100.429C218.645 100.399 218.574 100.111 218.431 99.8633C219.023 99.8633 219.447 99.8633 219.941 99.8633C219.941 100.273 219.933 100.678 219.943 101.083C219.96 101.812 219.953 102.544 220.026 103.268C220.078 103.78 220.441 103.993 220.991 103.95C221.584 103.903 222.041 103.57 222.053 103.118C222.075 102.341 222.09 101.56 222.037 100.785C222.025 100.616 221.718 100.466 221.465 100.232C221.465 100.219 221.465 100.065 221.465 99.8763C221.936 99.8763 222.401 99.8763 222.927 99.8763C222.927 100.618 222.927 101.359 222.927 102.1C222.927 102.529 222.959 102.961 222.918 103.386C222.88 103.788 223.017 103.986 223.44 103.999C223.44 104.179 223.44 104.347 223.44 104.539C223.018 104.539 222.597 104.539 222.155 104.539C222.137 104.353 222.121 104.189 222.115 104.125C221.657 104.304 221.216 104.582 220.75 104.633C219.917 104.726 219.285 104.213 219.18 103.378C219.083 102.595 219.108 101.796 219.08 100.959Z" fill="#4A4C55"/>
<path d="M214.014 104.228C213.928 103.828 213.801 104.12 213.726 104.183C213.231 104.601 212.68 104.762 212.044 104.592C211.464 104.436 211.144 104.082 211.07 103.5C210.993 102.906 211.217 102.406 211.77 102.174C212.155 102.014 212.588 101.954 213.007 101.894C213.301 101.852 213.606 101.886 213.896 101.886C214.087 101.146 213.892 100.648 213.369 100.487C212.682 100.276 212.109 100.547 211.902 101.206C211.713 101.206 211.514 101.206 211.314 101.206C211.161 100.191 211.21 100.231 212.043 99.9346C212.487 99.7766 213.015 99.7652 213.493 99.8097C214.331 99.8875 214.809 100.475 214.839 101.377C214.863 102.075 214.839 102.775 214.85 103.473C214.853 103.684 214.742 103.955 215.112 104.033C215.178 104.047 215.186 104.332 215.237 104.563C214.878 104.563 214.58 104.589 214.29 104.549C214.188 104.536 214.107 104.364 214.014 104.228ZM212.793 102.477C212.55 102.611 212.258 102.698 212.077 102.89C211.781 103.201 211.888 103.722 212.254 103.846C212.783 104.024 213.275 103.913 213.715 103.553C214.09 103.245 213.996 102.867 213.941 102.469C213.569 102.469 213.222 102.469 212.793 102.477Z" fill="#4B4D56"/>
<path d="M232.048 100.748C232.048 101.81 232.048 102.826 232.048 103.862C232.223 103.92 232.384 103.973 232.574 104.036C232.58 104.182 232.587 104.337 232.596 104.527C232.153 104.527 231.733 104.527 231.297 104.527C231.266 104.368 231.234 104.198 231.187 103.951C230.738 104.511 230.193 104.738 229.534 104.634C228.763 104.512 228.281 103.938 228.235 103.047C228.201 102.398 228.19 101.744 228.217 101.095C228.233 100.69 228.174 100.404 227.683 100.404C227.683 100.222 227.683 100.068 227.683 99.8773C228.129 99.8773 228.576 99.8773 229.072 99.8773C229.072 100.492 229.07 101.091 229.072 101.69C229.073 102.103 229.067 102.517 229.085 102.929C229.117 103.664 229.417 103.975 230.049 103.952C230.75 103.927 231.249 103.465 231.201 102.846C231.143 102.09 231.187 101.325 231.187 100.555C230.877 100.422 230.344 100.502 230.592 99.873C231.056 99.873 231.538 99.873 232.048 99.873C232.048 100.163 232.048 100.432 232.048 100.748Z" fill="#4A4C54"/>
<path d="M195.518 101.45C195.891 100.302 196.599 99.7366 197.581 99.771C198.533 99.8044 199.152 100.326 199.323 101.273C199.387 101.627 199.391 101.991 199.427 102.406C198.376 102.406 197.383 102.406 196.367 102.406C196.322 103.019 196.497 103.487 196.971 103.805C197.443 104.122 198.128 104.024 198.93 103.546C199.035 103.711 199.141 103.877 199.263 104.069C198.507 104.685 197.689 104.804 196.825 104.523C196.04 104.267 195.624 103.647 195.51 102.86C195.445 102.412 195.505 101.946 195.518 101.45ZM198.509 101.342C198.306 100.649 197.936 100.372 197.324 100.455C196.81 100.525 196.411 101.07 196.417 101.725C197.031 101.725 197.646 101.717 198.26 101.728C198.497 101.733 198.577 101.643 198.509 101.342Z" fill="#4B4D56"/>
<path d="M239.285 103.988C239.375 104.157 239.427 104.321 239.494 104.533C238.678 104.533 237.943 104.533 237.185 104.533C237.185 104.368 237.185 104.215 237.185 104.032C237.394 103.982 237.605 103.932 237.844 103.876C237.844 102.226 237.844 100.571 237.844 98.8937C237.523 98.7895 236.966 98.9094 237.215 98.2363C237.922 98.2363 238.644 98.2363 239.379 98.2363C239.671 98.8915 239.1 98.793 238.756 98.8949C238.756 100.556 238.756 102.2 238.756 103.875C238.915 103.91 239.081 103.947 239.285 103.988Z" fill="#494B53"/>
<path d="M216.501 102.461C216.501 101.097 216.501 99.7816 216.501 98.45C216.269 98.4005 216.07 98.358 215.839 98.3086C215.839 98.1446 215.839 97.9802 215.839 97.791C216.329 97.791 216.815 97.791 217.339 97.791C217.339 99.8045 217.339 101.815 217.339 103.854C217.59 103.918 217.813 103.974 218.058 104.036C218.058 104.19 218.058 104.344 218.058 104.53C217.319 104.53 216.582 104.53 215.825 104.53C215.825 104.37 215.825 104.217 215.825 104.034C216.032 103.983 216.243 103.931 216.501 103.868C216.501 103.423 216.501 102.966 216.501 102.461Z" fill="#484A53"/>
<path d="M224.157 100.317C224.145 100.153 224.145 100.028 224.145 99.8724C224.64 99.8724 225.109 99.8724 225.608 99.8724C225.64 100.028 225.673 100.19 225.72 100.417C226.149 99.9774 226.571 99.5931 227.235 99.8383C227.206 100.068 227.177 100.299 227.151 100.515C227.104 100.548 227.08 100.581 227.054 100.582C225.861 100.62 225.728 100.756 225.728 101.95C225.729 102.553 225.731 103.157 225.735 103.761C225.735 103.79 225.753 103.819 225.774 103.88C225.968 103.926 226.178 103.976 226.406 104.029C226.406 104.191 226.406 104.347 226.406 104.533C225.674 104.533 224.936 104.533 224.169 104.533C224.169 104.366 224.169 104.202 224.169 104.03C224.396 103.976 224.609 103.925 224.861 103.864C224.861 102.824 224.868 101.796 224.851 100.768C224.849 100.67 224.718 100.542 224.616 100.485C224.484 100.411 224.32 100.395 224.157 100.317Z" fill="#4A4C55"/>
<path d="M251.204 99.9974C251.711 99.9034 252.214 99.8518 252.75 99.7969C252.75 101.203 252.75 102.517 252.75 103.864C252.976 103.918 253.185 103.968 253.446 104.03C253.454 104.175 253.464 104.339 253.475 104.534C252.704 104.534 251.967 104.534 251.217 104.534C251.217 104.363 251.217 104.209 251.217 104.034C251.439 103.981 251.651 103.931 251.881 103.876C251.881 102.769 251.881 101.663 251.881 100.57C251.662 100.36 251.103 100.621 251.204 99.9974Z" fill="#464851"/>
<path d="M234.234 104.512C234.018 105.015 233.807 105.476 233.575 105.984C233.312 105.816 233.17 105.726 233.092 105.676C233.226 104.979 233.352 104.326 233.485 103.633C233.675 103.633 233.935 103.633 234.239 103.633C234.239 103.911 234.239 104.191 234.234 104.512Z" fill="#4A4C54"/>
<path d="M252.019 98.6351C251.942 98.36 251.909 98.0894 251.872 97.791C252.189 97.791 252.438 97.791 252.723 97.791C252.723 98.0534 252.723 98.3254 252.723 98.6398C252.499 98.6398 252.281 98.6398 252.019 98.6351Z" fill="#484A53"/>
</g>
<defs>
<clipPath id="clip0_286_7398">
<rect width="218.152" height="60.7887" fill="white" transform="translate(41 45.5859)"/>
</clipPath>
</defs>
</svg>
