<svg width="94" height="102" viewBox="0 0 94 102" fill="none" xmlns="http://www.w3.org/2000/svg">
<path d="M46.0149 1.2032C46.1904 -0.401067 48.3344 -0.401067 48.5099 1.2032L49.9806 14.6616C51.8797 32.0399 64.4989 45.7415 80.5044 47.8035L92.8996 49.4003C94.3773 49.5909 94.3773 51.9188 92.8996 52.1093L80.5044 53.7062C64.4989 55.7682 51.8797 69.4697 49.9806 86.8479L48.5099 100.306C48.3344 101.911 46.1904 101.911 46.0149 100.306L44.5442 86.8479C42.645 69.4697 30.0258 55.7682 14.0202 53.7062L1.625 52.1093C0.14746 51.9188 0.14746 49.5909 1.625 49.4003L14.0202 47.8035C30.0258 45.7415 42.645 32.0399 44.5442 14.6616L46.0149 1.2032Z" fill="#FF6432"/>
</svg>
