<svg width="52" height="56" viewBox="0 0 52 56" fill="none" xmlns="http://www.w3.org/2000/svg">
<path d="M25.3195 0.652346C25.4152 -0.217449 26.5848 -0.217449 26.6805 0.652346L27.4828 7.94913C28.5188 17.3712 35.4026 24.7999 44.1337 25.9178L50.8954 26.7836C51.7015 26.8869 51.7015 28.1491 50.8954 28.2523L44.1337 29.1181C35.4026 30.2361 28.5188 37.6647 27.4828 47.0868L26.6805 54.3835C26.5848 55.2534 25.4152 55.2534 25.3195 54.3835L24.5172 47.0868C23.4812 37.6647 16.5974 30.2361 7.86619 29.1181L1.10451 28.2523C0.298498 28.1491 0.298498 26.8869 1.10451 26.7836L7.86619 25.9178C16.5974 24.7999 23.4812 17.3712 24.5172 7.94913L25.3195 0.652346Z" fill="#9C7F16"/>
</svg>
