<svg width="208" height="151" viewBox="0 0 208 151" fill="none" xmlns="http://www.w3.org/2000/svg">
<g clip-path="url(#clip0_286_7706)">
<path d="M195.866 65.8149C196.512 68.1994 198.941 69.6034 201.326 68.9794C203.71 68.3332 205.114 65.9041 204.49 63.5196C203.844 61.1351 201.415 59.7311 199.03 60.3551C196.646 61.0014 195.242 63.4527 195.866 65.8149ZM189.804 70.6062C191.431 70.1605 192.389 68.5114 191.966 66.8846C191.52 65.2578 189.871 64.2996 188.244 64.723C186.618 65.1687 185.659 66.8178 186.083 68.4446C186.506 70.0714 188.178 71.0297 189.804 70.6062ZM180.868 72.1662C182.049 71.8542 182.762 70.6285 182.45 69.4251C182.138 68.244 180.913 67.5309 179.709 67.8429C178.528 68.1549 177.815 69.3806 178.127 70.584C178.439 71.7651 179.665 72.4782 180.868 72.1662Z" fill="#2B4C87"/>
<path d="M173.893 73.1914C174.65 72.9909 175.096 72.2109 174.896 71.4532C174.695 70.6955 173.915 70.2498 173.157 70.4504C172.4 70.6509 171.954 71.4309 172.154 72.1886C172.355 72.9463 173.135 73.392 173.893 73.1914Z" fill="#2E4E88"/>
<path d="M192.546 56.7678C193.66 58.7066 196.156 59.3751 198.095 58.2609C200.033 57.1466 200.702 54.6507 199.588 52.7119C198.473 50.7731 195.977 50.1045 194.039 51.2188C192.078 52.3553 191.431 54.829 192.546 56.7678ZM183.587 61.9379C184.367 63.2973 186.105 63.7653 187.465 62.9853C188.824 62.2054 189.292 60.4671 188.512 59.1077C187.732 57.7483 185.994 57.2803 184.634 58.0603C183.253 58.8403 182.785 60.5785 183.587 61.9379ZM177.191 63.275C176.211 63.8322 175.899 65.0801 176.456 66.0384C177.013 67.0189 178.261 67.3309 179.219 66.7738C180.2 66.2167 180.512 64.9687 179.954 64.0105C179.42 63.0522 178.172 62.7179 177.191 63.275ZM171.486 67.3978C170.862 67.7543 170.639 68.5566 170.996 69.2029C171.352 69.8269 172.177 70.0497 172.801 69.6932C173.425 69.3366 173.648 68.512 173.291 67.8881C172.935 67.2418 172.132 67.0412 171.486 67.3978Z" fill="#1E3E70"/>
<path d="M192.078 48.7906C193.504 47.3644 193.504 45.0467 192.078 43.6205C190.651 42.1942 188.334 42.1942 186.908 43.6205C185.481 45.0467 185.481 47.3644 186.908 48.7906C188.334 50.2169 190.651 50.2169 192.078 48.7906ZM183.186 52.5345C182.161 51.5094 180.489 51.5094 179.464 52.5345C178.439 53.5596 178.439 55.231 179.464 56.2561C180.489 57.2812 182.161 57.2812 183.186 56.2561C184.211 55.231 184.211 53.5596 183.186 52.5345ZM173.648 59.4875C172.935 60.2006 172.935 61.3594 173.648 62.0725C174.361 62.7857 175.52 62.7857 176.233 62.0725C176.946 61.3594 176.946 60.2006 176.233 59.4875C175.52 58.7743 174.361 58.7743 173.648 59.4875ZM169.124 66.5964C169.592 67.0644 170.372 67.0644 170.84 66.5964C171.308 66.1284 171.308 65.3485 170.84 64.8805C170.372 64.4125 169.592 64.4125 169.124 64.8805C168.634 65.3485 168.634 66.1061 169.124 66.5964Z" fill="#184D89"/>
<path d="M179.242 42.6621C180.891 43.6204 183.008 43.041 183.944 41.3919C184.902 39.7428 184.323 37.6257 182.673 36.6897C181.024 35.7315 178.907 36.3109 177.971 37.96C177.013 39.6091 177.592 41.7039 179.242 42.6621ZM173.069 48.4785C172.4 49.6374 172.801 51.1305 173.96 51.799C175.119 52.4676 176.612 52.0664 177.28 50.9076C177.949 49.7488 177.548 48.2557 176.389 47.5871C175.23 46.9186 173.737 47.3197 173.069 48.4785ZM171.464 56.1001C170.684 55.6544 169.704 55.9218 169.236 56.7018C168.79 57.4817 169.057 58.4623 169.837 58.9303C170.617 59.376 171.598 59.1085 172.043 58.3286C172.511 57.5486 172.244 56.568 171.464 56.1001ZM167.72 62.6073C167.185 62.2953 166.494 62.4736 166.205 63.0084C165.893 63.5433 166.071 64.2341 166.606 64.5238C167.141 64.8358 167.832 64.6575 168.121 64.1227C168.433 63.6101 168.255 62.9193 167.72 62.6073Z" fill="#3569A4"/>
<path d="M170.171 38.6956C171.909 39.1636 173.692 38.1385 174.138 36.4003C174.606 34.662 173.581 32.8792 171.843 32.4335C170.104 31.9655 168.321 32.9907 167.876 34.7289C167.408 36.4671 168.455 38.2499 170.171 38.6956ZM167.452 48.9022C168.633 49.2142 169.859 48.5234 170.193 47.32C170.505 46.1389 169.815 44.9132 168.611 44.5789C167.43 44.2669 166.204 44.9578 165.87 46.1612C165.558 47.3646 166.249 48.5902 167.452 48.9022ZM165.291 56.9472C166.093 57.17 166.94 56.6797 167.163 55.8775C167.386 55.0752 166.895 54.2284 166.093 54.0055C165.291 53.7827 164.444 54.2729 164.221 55.0752C163.998 55.8775 164.488 56.7243 165.291 56.9472ZM162.884 61.9613C162.75 62.4961 163.062 63.0533 163.597 63.2093C164.132 63.3653 164.689 63.031 164.845 62.4961C164.979 61.9613 164.667 61.4042 164.132 61.2482C163.597 61.1145 163.04 61.4265 162.884 61.9613Z" fill="#4B8DCB"/>
<path d="M160.344 37.2233C162.015 37.2233 163.397 35.8639 163.397 34.1702C163.397 32.4989 162.037 31.1172 160.344 31.1172C158.672 31.1172 157.291 32.4766 157.291 34.1702C157.313 35.8639 158.672 37.2233 160.344 37.2233ZM160.344 43.7083C159.229 43.7083 158.316 44.622 158.316 45.7362C158.316 46.8505 159.229 47.7642 160.344 47.7642C161.458 47.7642 162.372 46.8505 162.372 45.7362C162.372 44.622 161.48 43.7083 160.344 43.7083ZM161.77 54.784C161.77 54.004 161.124 53.3577 160.344 53.3577C159.564 53.3577 158.917 54.004 158.917 54.784C158.917 55.564 159.564 56.2102 160.344 56.2102C161.146 56.1879 161.77 55.564 161.77 54.784ZM160.344 60.8678C159.831 60.8678 159.43 61.2689 159.43 61.7815C159.43 62.2941 159.831 62.6952 160.344 62.6952C160.856 62.6952 161.257 62.2941 161.257 61.7815C161.257 61.2689 160.856 60.8678 160.344 60.8678Z" fill="#3398B3"/>
<path d="M150.427 38.3379C151.942 37.9368 152.833 36.3768 152.432 34.8615C152.031 33.3461 150.471 32.4547 148.956 32.8558C147.44 33.2569 146.549 34.8169 146.95 36.3323C147.351 37.8477 148.911 38.7391 150.427 38.3379ZM150.917 47.2297C151.184 48.2102 152.187 48.7896 153.145 48.5222C154.126 48.2548 154.705 47.252 154.438 46.2937C154.17 45.3132 153.168 44.7338 152.209 45.0012C151.229 45.2686 150.649 46.2714 150.917 47.2297ZM153.747 55.8317C153.925 56.5449 154.661 56.946 155.352 56.7677C156.065 56.5894 156.466 55.854 156.287 55.1409C156.109 54.4278 155.374 54.0267 154.683 54.2049C153.97 54.4055 153.569 55.1186 153.747 55.8317ZM156.042 62.4727C156.154 62.8961 156.599 63.1635 157.045 63.0521C157.469 62.9407 157.736 62.495 157.625 62.0493C157.513 61.6259 157.067 61.3585 156.622 61.4699C156.198 61.5813 155.931 62.027 156.042 62.4727Z" fill="#02A496"/>
<path d="M141.067 42.0151C142.337 41.2797 142.761 39.6751 142.025 38.4049C141.29 37.1346 139.685 36.7112 138.415 37.4466C137.145 38.182 136.721 39.7866 137.457 41.0568C138.192 42.3048 139.819 42.7282 141.067 42.0151ZM146.349 51.152C147.129 50.7063 147.396 49.7034 146.95 48.9458C146.505 48.1658 145.502 47.8983 144.722 48.3441C143.942 48.7898 143.674 49.7926 144.12 50.5726C144.588 51.3303 145.569 51.5977 146.349 51.152ZM150.672 58.6175C151.251 58.2832 151.452 57.5255 151.118 56.9461C150.783 56.3667 150.026 56.1661 149.446 56.5004C148.867 56.8347 148.666 57.5701 149.001 58.1718C149.335 58.7512 150.093 58.9518 150.672 58.6175ZM154.171 63.2751C153.97 62.9408 153.547 62.8294 153.19 63.0077C152.856 63.2082 152.744 63.6316 152.923 63.9882C153.123 64.3225 153.547 64.4339 153.903 64.2556C154.26 64.0328 154.371 63.6094 154.171 63.2751Z" fill="#00AA75"/>
<path d="M132.955 48.0088C133.913 47.0506 133.913 45.5129 132.955 44.5546C131.997 43.5964 130.459 43.5964 129.501 44.5546C128.543 45.5129 128.543 47.0506 129.501 48.0088C130.459 48.9448 131.997 48.9448 132.955 48.0088ZM140.421 53.4464C139.863 52.8893 138.972 52.8893 138.415 53.4464C137.858 54.0035 137.858 54.8949 138.415 55.4521C138.972 56.0092 139.863 56.0092 140.421 55.4521C140.978 54.9172 140.978 54.0035 140.421 53.4464ZM146.594 60.0428C146.148 59.5971 145.457 59.5971 145.011 60.0428C144.566 60.4885 144.566 61.1793 145.011 61.625C145.457 62.0707 146.148 62.0707 146.594 61.625C147.017 61.2016 147.017 60.4885 146.594 60.0428ZM151.184 65.3689C150.939 65.1238 150.56 65.1238 150.315 65.3689C150.07 65.6141 150.07 65.9929 150.315 66.2381C150.56 66.4832 150.939 66.4832 151.184 66.2381C151.429 65.9929 151.429 65.5918 151.184 65.3689Z" fill="#4FBA69"/>
<path d="M123.506 56.679C124.576 57.3029 125.935 56.9241 126.559 55.8544C127.183 54.7847 126.804 53.4253 125.735 52.8013C124.665 52.1774 123.306 52.5562 122.682 53.6259C122.058 54.6956 122.437 56.055 123.506 56.679ZM135.317 59.5537C134.738 59.2195 133.98 59.42 133.646 59.9994C133.312 60.5788 133.512 61.3365 134.092 61.6708C134.671 62.0051 135.429 61.8045 135.763 61.2251C136.097 60.6234 135.897 59.888 135.317 59.5537ZM143.05 64.2336C142.56 63.9439 141.936 64.1222 141.669 64.6125C141.379 65.1027 141.557 65.7267 142.047 65.9941C142.538 66.2838 143.162 66.1056 143.429 65.6153C143.697 65.1473 143.518 64.5233 143.05 64.2336Z" fill="#7EC45F"/>
<path d="M201.593 70.4512C198.897 70.4512 196.713 72.6351 196.713 75.3316C196.713 78.0281 198.897 80.212 201.593 80.212C204.29 80.212 206.474 78.0281 206.474 75.3316C206.474 72.6351 204.29 70.4512 201.593 70.4512ZM193.526 75.3316C193.526 73.4151 191.966 71.8328 190.027 71.8328C188.088 71.8328 186.528 73.3928 186.528 75.3316C186.528 77.2481 188.088 78.8304 190.027 78.8304C191.966 78.8304 193.526 77.2704 193.526 75.3316ZM181.002 72.9471C179.687 72.9471 178.617 74.0168 178.617 75.3316C178.617 76.6464 179.687 77.7161 181.002 77.7161C182.317 77.7161 183.386 76.6464 183.386 75.3316C183.386 74.0168 182.317 72.9471 181.002 72.9471Z" fill="#4C609B"/>
<path d="M175.542 75.3314C175.542 74.4846 174.851 73.7715 173.982 73.7715C173.135 73.7715 172.422 74.4623 172.422 75.3314C172.422 76.1783 173.113 76.8914 173.982 76.8914C174.851 76.8914 175.542 76.1783 175.542 75.3314Z" fill="#54669F"/>
<path d="M201.348 81.6818C198.963 81.0355 196.512 82.4618 195.888 84.8463C195.242 87.2308 196.668 89.6821 199.053 90.3061C201.437 90.9524 203.888 89.5261 204.512 87.1416C205.136 84.7571 203.71 82.328 201.348 81.6818ZM188.222 85.9382C189.849 86.3839 191.52 85.4034 191.944 83.7766C192.389 82.1498 191.409 80.4784 189.782 80.055C188.155 79.6093 186.484 80.5898 186.06 82.2166C185.637 83.8434 186.595 85.4925 188.222 85.9382ZM179.709 82.8183C180.89 83.1303 182.116 82.4395 182.45 81.2361C182.762 80.055 182.071 78.8293 180.868 78.495C179.687 78.183 178.461 78.8738 178.127 80.0772C177.815 81.2806 178.506 82.5063 179.709 82.8183ZM173.157 80.211C173.915 80.4115 174.695 79.9658 174.896 79.2081C175.096 78.4504 174.65 77.6705 173.893 77.4699C173.135 77.2693 172.355 77.715 172.154 78.4727C171.954 79.2304 172.4 80.0104 173.157 80.211Z" fill="#746FA8"/>
<path d="M198.094 92.4022C196.156 91.2879 193.682 91.9565 192.545 93.8953C191.431 95.8341 192.1 98.3077 194.039 99.4443C195.977 100.559 198.473 99.89 199.588 97.9512C200.702 96.0124 200.033 93.5387 198.094 92.4022ZM188.49 91.5553C189.27 90.1959 188.802 88.4577 187.442 87.6777C186.083 86.8978 184.345 87.3657 183.565 88.7251C182.785 90.0845 183.253 91.8228 184.612 92.6027C185.971 93.3827 187.71 92.9147 188.49 91.5553ZM179.977 86.6303C180.534 85.6498 180.2 84.4241 179.241 83.867C178.261 83.3098 177.035 83.6441 176.478 84.6024C175.921 85.5829 176.255 86.8086 177.213 87.3657C178.172 87.9452 179.42 87.6109 179.977 86.6303ZM173.291 82.775C173.648 82.151 173.447 81.3265 172.801 80.9699C172.177 80.6133 171.352 80.8139 170.996 81.4602C170.639 82.0842 170.84 82.8864 171.486 83.2653C172.132 83.6218 172.935 83.4213 173.291 82.775Z" fill="#99558E"/>
<path d="M186.908 101.873C185.481 103.299 185.481 105.617 186.908 107.043C188.334 108.469 190.651 108.469 192.078 107.043C193.504 105.617 193.504 103.299 192.078 101.873C190.651 100.447 188.334 100.447 186.908 101.873ZM183.186 98.1289C184.211 97.1038 184.211 95.4324 183.186 94.4073C182.161 93.3822 180.489 93.3822 179.464 94.4073C178.439 95.4324 178.439 97.1038 179.464 98.1289C180.489 99.1763 182.161 99.1763 183.186 98.1289ZM176.233 91.1759C176.946 90.4628 176.946 89.304 176.233 88.5909C175.52 87.8777 174.361 87.8777 173.648 88.5909C172.935 89.304 172.935 90.4628 173.648 91.1759C174.361 91.8891 175.52 91.8891 176.233 91.1759ZM169.124 85.8052C169.592 86.2732 170.372 86.2732 170.84 85.8052C171.308 85.3372 171.308 84.5573 170.84 84.0893C170.372 83.6213 169.592 83.6213 169.124 84.0893C168.634 84.5573 168.634 85.315 169.124 85.8052Z" fill="#AF3579"/>
<path d="M179.242 108.003C177.592 108.962 177.035 111.056 177.971 112.706C178.93 114.355 181.024 114.912 182.673 113.976C184.323 113.017 184.88 110.923 183.944 109.274C182.985 107.624 180.891 107.045 179.242 108.003ZM177.28 99.7579C176.612 98.599 175.119 98.1979 173.96 98.8665C172.801 99.535 172.4 101.028 173.069 102.187C173.737 103.346 175.23 103.747 176.389 103.078C177.548 102.41 177.949 100.917 177.28 99.7579ZM171.464 94.5654C172.244 94.1197 172.511 93.1169 172.066 92.3369C171.62 91.5569 170.617 91.2895 169.86 91.7352C169.08 92.1809 168.812 93.1837 169.258 93.9414C169.704 94.7437 170.684 95.0111 171.464 94.5654ZM166.606 86.1194C166.071 86.4314 165.893 87.0999 166.205 87.6348C166.517 88.1696 167.185 88.3479 167.72 88.0359C168.255 87.7239 168.433 87.0553 168.121 86.5205C167.809 86.0079 167.141 85.8074 166.606 86.1194Z" fill="#BE266A"/>
<path d="M170.171 111.968C168.433 112.436 167.408 114.219 167.876 115.935C168.344 117.673 170.127 118.698 171.843 118.23C173.581 117.762 174.606 115.979 174.138 114.263C173.692 112.525 171.91 111.5 170.171 111.968ZM168.611 106.085C169.793 105.773 170.506 104.547 170.194 103.344C169.882 102.163 168.656 101.45 167.453 101.762C166.272 102.074 165.558 103.299 165.87 104.503C166.182 105.684 167.408 106.397 168.611 106.085ZM167.163 94.8086C166.94 94.0063 166.116 93.5161 165.291 93.7389C164.489 93.9618 163.998 94.7863 164.221 95.6109C164.444 96.4131 165.269 96.9034 166.093 96.6805C166.896 96.4577 167.363 95.6109 167.163 94.8086ZM164.845 88.1676C164.689 87.6328 164.154 87.2985 163.597 87.4545C163.062 87.5882 162.728 88.1676 162.884 88.7025C163.04 89.2373 163.575 89.5716 164.132 89.4156C164.667 89.2596 165.001 88.7025 164.845 88.1676Z" fill="#D4535C"/>
<path d="M160.344 113.441C158.672 113.441 157.291 114.8 157.291 116.494C157.291 118.165 158.65 119.547 160.344 119.547C162.015 119.547 163.397 118.187 163.397 116.494C163.397 114.8 162.037 113.441 160.344 113.441ZM158.316 104.928C158.316 106.042 159.229 106.956 160.344 106.956C161.458 106.956 162.372 106.042 162.372 104.928C162.372 103.813 161.458 102.9 160.344 102.9C159.229 102.9 158.316 103.791 158.316 104.928ZM160.344 97.3062C161.124 97.3062 161.77 96.6599 161.77 95.88C161.77 95.1 161.124 94.4537 160.344 94.4537C159.564 94.4537 158.917 95.1 158.917 95.88C158.94 96.6822 159.564 97.3062 160.344 97.3062ZM160.344 87.9688C159.831 87.9688 159.43 88.3699 159.43 88.8824C159.43 89.395 159.831 89.7961 160.344 89.7961C160.856 89.7961 161.257 89.395 161.257 88.8824C161.257 88.3922 160.856 87.9688 160.344 87.9688Z" fill="#E06550"/>
<path d="M150.427 112.325C148.911 111.924 147.351 112.815 146.95 114.331C146.549 115.846 147.44 117.406 148.956 117.807C150.471 118.208 152.031 117.317 152.432 115.801C152.833 114.286 151.942 112.726 150.427 112.325ZM153.168 102.141C152.187 101.873 151.184 102.453 150.939 103.433C150.672 104.414 151.251 105.417 152.232 105.662C153.212 105.929 154.215 105.35 154.46 104.369C154.705 103.389 154.126 102.386 153.168 102.141ZM155.374 93.8951C154.661 93.7168 153.948 94.118 153.769 94.8311C153.591 95.5442 153.992 96.2573 154.705 96.4579C155.418 96.6362 156.131 96.2351 156.31 95.5219C156.488 94.8088 156.065 94.0957 155.374 93.8951ZM157.625 88.6136C157.736 88.1901 157.491 87.7444 157.045 87.6107C156.622 87.4993 156.176 87.7444 156.042 88.1901C155.931 88.6136 156.176 89.0593 156.622 89.193C157.067 89.3044 157.513 89.0593 157.625 88.6136Z" fill="#F57F28"/>
<path d="M141.067 108.672C139.797 107.936 138.192 108.382 137.457 109.63C136.721 110.9 137.167 112.505 138.415 113.24C139.685 113.975 141.29 113.53 142.025 112.282C142.761 111.012 142.337 109.385 141.067 108.672ZM146.349 99.5124C145.569 99.0667 144.588 99.3342 144.12 100.114C143.674 100.894 143.942 101.875 144.722 102.32C145.502 102.766 146.482 102.499 146.95 101.719C147.396 100.961 147.129 99.9581 146.349 99.5124ZM149.446 94.164C150.026 94.4983 150.783 94.2977 151.118 93.7183C151.452 93.1389 151.251 92.3812 150.672 92.0469C150.093 91.7127 149.335 91.9132 149.001 92.4926C148.666 93.072 148.867 93.8297 149.446 94.164ZM153.926 86.4311C153.591 86.2305 153.146 86.3419 152.945 86.6985C152.744 87.0328 152.856 87.4785 153.212 87.679C153.547 87.8796 153.992 87.7682 154.193 87.4116C154.371 87.0551 154.26 86.6316 153.926 86.4311Z" fill="#F89829"/>
<path d="M129.501 102.675C128.543 103.633 128.543 105.171 129.501 106.129C130.459 107.087 131.997 107.087 132.955 106.129C133.913 105.171 133.913 103.633 132.955 102.675C131.997 101.717 130.459 101.717 129.501 102.675ZM138.415 95.2093C137.858 95.7664 137.858 96.6578 138.415 97.2149C138.972 97.7721 139.863 97.7721 140.421 97.2149C140.978 96.6578 140.978 95.7664 140.421 95.2093C139.863 94.6522 138.972 94.6522 138.415 95.2093ZM145.011 89.0363C144.566 89.482 144.566 90.1728 145.011 90.6186C145.457 91.0643 146.148 91.0643 146.594 90.6186C147.039 90.1728 147.039 89.482 146.594 89.0363C146.148 88.5906 145.457 88.5906 145.011 89.0363ZM151.184 84.4456C150.939 84.2004 150.56 84.2004 150.315 84.4456C150.07 84.6907 150.07 85.0696 150.315 85.3147C150.56 85.5598 150.939 85.5598 151.184 85.3147C151.429 85.0696 151.429 84.6684 151.184 84.4456Z" fill="#FDC126"/>
<path d="M123.573 93.9172C122.503 94.5411 122.147 95.9005 122.748 96.9702C123.372 98.0399 124.732 98.3965 125.802 97.7948C126.871 97.1708 127.228 95.8114 126.626 94.7417C126.002 93.672 124.643 93.2932 123.573 93.9172ZM134.114 89.0144C133.534 89.3487 133.334 90.1064 133.668 90.6858C134.002 91.2652 134.76 91.4658 135.34 91.1315C135.919 90.7972 136.12 90.0395 135.785 89.4601C135.429 88.8807 134.693 88.6801 134.114 89.0144ZM142.025 84.6688C141.535 84.9585 141.379 85.5602 141.646 86.0505C141.936 86.5408 142.538 86.6968 143.028 86.4294C143.518 86.1396 143.674 85.538 143.407 85.0477C143.139 84.5574 142.515 84.3791 142.025 84.6688Z" fill="#FED626"/>
<path d="M119.027 68.2452H122.615V82.0174H119.027V68.2452ZM121.233 62.0945C120.119 61.8048 118.982 62.451 118.693 63.5653C118.403 64.6796 119.049 65.8161 120.163 66.1058C121.278 66.3955 122.414 65.7492 122.704 64.635C122.994 63.5207 122.325 62.3842 121.233 62.0945ZM133.691 82.3071C132.755 82.3071 131.908 82.1511 131.172 81.8168C130.415 81.4825 129.813 80.9923 129.367 80.346V88.9035H125.868V68.2452H129.345V70.1617C129.813 69.4709 130.415 68.936 131.15 68.5572C131.908 68.156 132.732 67.9778 133.668 67.9778C134.537 67.9778 135.362 68.1338 136.164 68.468C136.966 68.8023 137.68 69.2703 138.281 69.9166C138.883 70.5405 139.373 71.2982 139.752 72.1896C140.109 73.081 140.309 74.0616 140.309 75.1536C140.309 76.2678 140.131 77.2484 139.752 78.1175C139.373 78.9866 138.883 79.7443 138.281 80.3683C137.68 80.9923 136.966 81.4825 136.186 81.8168C135.362 82.1511 134.537 82.3071 133.691 82.3071ZM132.977 78.9866C133.512 78.9866 134.003 78.8752 134.448 78.6746C134.916 78.474 135.317 78.1843 135.652 77.8501C136.008 77.4935 136.276 77.0924 136.476 76.6244C136.677 76.1564 136.766 75.6438 136.766 75.109C136.766 74.5742 136.677 74.0616 136.476 73.5936C136.276 73.1256 136.008 72.7245 135.652 72.3679C135.295 72.0114 134.894 71.7439 134.448 71.5434C133.98 71.3428 133.49 71.2314 132.977 71.2314C132.443 71.2314 131.93 71.3428 131.462 71.5434C130.994 71.7439 130.593 72.0337 130.259 72.3679C129.924 72.7245 129.657 73.1256 129.456 73.6159C129.256 74.0839 129.167 74.5964 129.167 75.1313C129.167 75.6661 129.256 76.1787 129.456 76.6467C129.657 77.1147 129.924 77.5158 130.259 77.8723C130.593 78.2289 130.994 78.4963 131.462 78.6969C131.908 78.8975 132.42 78.9866 132.977 78.9866ZM142.827 68.2452H146.304V70.3623C146.638 69.5377 147.151 68.936 147.797 68.5572C148.443 68.1783 149.223 67.9778 150.115 67.9778C150.583 67.9778 151.006 68.0223 151.407 68.1338C151.808 68.2452 152.143 68.3566 152.432 68.5126L151.162 71.9891C150.984 71.8554 150.716 71.7439 150.404 71.6548C150.07 71.5657 149.714 71.5211 149.335 71.5211C148.443 71.5211 147.708 71.7662 147.173 72.2788C146.638 72.7913 146.348 73.6159 146.348 74.7747V82.0397H142.85L142.827 68.2452ZM160.21 82.3071C159.162 82.3071 158.204 82.1288 157.335 81.75C156.444 81.3711 155.686 80.8586 155.017 80.2123C154.371 79.566 153.859 78.786 153.48 77.9392C153.123 77.0701 152.923 76.1341 152.923 75.1536C152.923 74.173 153.101 73.237 153.48 72.3679C153.836 71.4988 154.349 70.7411 155.017 70.0948C155.664 69.4486 156.444 68.936 157.335 68.5572C158.226 68.1783 159.185 68 160.21 68C161.235 68 162.193 68.1783 163.085 68.5572C163.976 68.936 164.756 69.4486 165.402 70.0948C166.049 70.7411 166.561 71.4988 166.94 72.3679C167.319 73.237 167.497 74.173 167.497 75.1536C167.497 76.1341 167.319 77.0701 166.94 77.9392C166.561 78.8083 166.049 79.566 165.402 80.2123C164.756 80.8586 163.976 81.3711 163.085 81.75C162.215 82.1288 161.257 82.3071 160.21 82.3071ZM160.254 78.9643C160.789 78.9643 161.28 78.8529 161.725 78.6523C162.193 78.4518 162.594 78.1843 162.929 77.8278C163.263 77.4935 163.53 77.0924 163.731 76.6244C163.931 76.1564 164.021 75.6438 164.021 75.109C164.021 74.5742 163.931 74.0839 163.731 73.5936C163.53 73.1256 163.263 72.7022 162.929 72.3679C162.594 72.0337 162.193 71.7662 161.725 71.5434C161.257 71.3428 160.767 71.2314 160.254 71.2314C159.72 71.2314 159.229 71.3428 158.784 71.5434C158.316 71.7439 157.914 72.0114 157.58 72.3679C157.246 72.7022 156.978 73.1256 156.778 73.5936C156.577 74.0616 156.488 74.5742 156.488 75.109C156.488 75.6438 156.577 76.1564 156.778 76.6244C156.978 77.0924 157.246 77.4935 157.58 77.8278C157.914 78.1621 158.316 78.4295 158.784 78.6523C159.229 78.8752 159.72 78.9643 160.254 78.9643ZM94.1567 68.2452H97.7224L100.508 77.0478L103.762 68.2452H106.904L110.113 77.0478L112.988 68.2452H116.553L111.896 82.0174H108.575L105.299 73.0365L101.979 82.0174H98.6138L94.1567 68.2452Z" fill="#341D55"/>
</g>
<defs>
<clipPath id="clip0_286_7706">
<rect width="136.631" height="88.4273" fill="white" transform="translate(82 31.1172)"/>
</clipPath>
</defs>
</svg>
