<svg width="40" height="28" viewBox="0 0 40 28" fill="none" xmlns="http://www.w3.org/2000/svg">
<path d="M38.3124 4.76413C37.8709 3.07259 36.5464 1.74505 34.8729 1.2954C31.8464 0.474609 19.6836 0.474609 19.6836 0.474609C19.6836 0.474609 7.52073 0.474609 4.48714 1.2954C2.81368 1.74505 1.49628 3.07259 1.04765 4.76413C0.23584 7.82603 0.23584 14.2068 0.23584 14.2068C0.23584 14.2068 0.23584 20.5875 1.04765 23.6494C1.49628 25.3338 2.81368 26.6114 4.48714 27.061C7.52073 27.8818 19.6836 27.8818 19.6836 27.8818C19.6836 27.8818 31.8464 27.8818 34.88 27.061C36.5535 26.6114 37.8709 25.3338 38.3195 23.6494C39.1313 20.5875 39.1313 14.2068 39.1313 14.2068C39.1313 14.2068 39.1313 7.82603 38.3195 4.76413H38.3124ZM15.7029 20.0023V8.41129L25.8647 14.2068L15.7029 20.0023Z" fill="#FFF6C3"/>
</svg>
